<?xml version="1.0" standalone="no"?>
<!DOCTYPE svg PUBLIC "-//W3C//DTD SVG 1.1//EN" "http://www.w3.org/Graphics/SVG/1.1/DTD/svg11.dtd" >
<svg>
<metadata>
Created by FontForge 20090914 at Tue Mar  1 02:30:43 2016
 By www-data
(c) Copyright 2005 by Tong Duc Thinh. All Rights Reserved
</metadata>
<defs>
<font id="SFUMetaCaps" horiz-adv-x="571" >
  <font-face 
    font-family="SFU Meta"
    font-weight="400"
    font-variant="small-caps"
    font-stretch="normal"
    units-per-em="1000"
    panose-1="0 0 4 0 0 0 0 0 0 0"
    ascent="800"
    descent="-200"
    x-height="519"
    cap-height="686"
    bbox="-98 -208 1172 1163"
    underline-thickness="20"
    underline-position="-132"
    unicode-range="U+0020-U+F000"
  />
<missing-glyph horiz-adv-x="500" 
d="M63 0v1134h375v-1134h-375zM125 63h250v1009h-250v-1009z" />
    <glyph glyph-name=".notdef" horiz-adv-x="500" 
d="M63 0v1134h375v-1134h-375zM125 63h250v1009h-250v-1009z" />
    <glyph glyph-name="space" unicode=" " horiz-adv-x="333" 
 />
    <glyph glyph-name="exclam" unicode="!" horiz-adv-x="333" 
d="M187 699l-19 -501h-60l-19 488zM200 56c0 -17.333 -5.83301 -32.166 -17.5 -44.499s-26.167 -18.5 -43.5 -18.5s-31.833 6 -43.5 18s-17.5 26.667 -17.5 44s5.83301 31.833 17.5 43.5s26.167 17.5 43.5 17.5c16.667 0 31 -5.83301 43 -17.5s18 -25.834 18 -42.501z" />
    <glyph glyph-name="quotedbl" unicode="&#x22;" horiz-adv-x="519" 
d="M150 468v240h72v-240h-72zM297 468v240h72v-240h-72z" />
    <glyph glyph-name="numbersign" unicode="#" horiz-adv-x="556" 
d="M98 0l30 213h-98v66h108l20 152h-98v66h108l30 211h67l-30 -211h126l30 211h67l-30 -211h98v-66h-107l-21 -152h98v-66h-108l-30 -213h-67l30 213h-126l-30 -213h-67zM331 279l21 152h-126l-21 -152h126z" />
    <glyph glyph-name="dollar" unicode="$" horiz-adv-x="554" 
d="M245 -107v94c-73.333 0 -143.666 20.667 -210.999 62l36 64c55.333 -39.333 113.666 -59 174.999 -59v269l-25 8c-61.333 19.333 -102 39.666 -122 60.999c-28.667 30 -43 67.333 -43 112c0 56 18 101.333 54 136c34 33.333 79.333 53 136 59v84h59v-83
c64 -5.33301 124 -27 180 -65l-36 -59c-53.333 34.667 -101.333 53.667 -144 57v-239l33 -10c110.667 -33.333 166 -96.666 166 -189.999c0 -67.333 -31.667 -122.333 -95 -165c-29.333 -20 -64 -33 -104 -39v-97h-59zM245 412v219.001
c-67.333 -10.667 -101 -47.334 -101 -110.001c0 -48.667 33.667 -85 101 -109zM304 304.001l-0.000976562 -246.002c20.667 3.33301 40.334 12 59.001 26c32.667 24.667 49 57.334 49 98.001c0 56.667 -36 97.334 -108 122.001z" />
    <glyph glyph-name="percent" unicode="%" horiz-adv-x="831" 
d="M221 0l333 681h66l-333 -681h-66zM34 521c0 52 13.834 93.333 41.501 124s67.167 46 118.5 46c53.333 0 93.666 -15.833 120.999 -47.5s41 -74.5 41 -128.5c0 -50.667 -14.333 -91 -43 -121s-68 -45 -118 -45c-51.333 0 -91 15.667 -119 47s-42 73 -42 125zM480.001 162
c0 52 13.834 93.333 41.501 124s67.167 46 118.5 46c53.333 0 93.666 -15.833 120.999 -47.5s41 -74.5 41 -128.5c0 -50.667 -14.333 -91 -43 -121s-68 -45 -118 -45c-51.333 0 -91 15.667 -119 47s-42 73 -42 125zM193.002 636c-60.667 0 -91 -35.666 -91 -106.999
c0 -40.667 5.66699 -70.334 17 -89.001c14.667 -24 41 -36 79 -36c60.667 0 91 35.667 91 107c0 83.333 -32 125 -96 125zM639.002 277.001c-60.667 0 -91 -35.666 -91 -106.999c0 -40.667 5.66699 -70.334 17 -89.001c14.667 -24 41 -36 79 -36c60.667 0 91 35.667 91 107
c0 83.333 -32 125 -96 125z" />
    <glyph glyph-name="ampersand" unicode="&#x26;" horiz-adv-x="697" 
d="M517 259c0.666992 9.33301 0.998047 33.334 0.998047 72.001l69 2c0 -46 -2 -82.333 -6 -109c-5.33301 -35.333 -15.666 -68 -30.999 -98l126 -125h-104l-66 64c-43.333 -53.333 -108.666 -80 -195.999 -80c-64.667 0 -118 14.333 -160 43c-48 32.667 -72 80 -72 142
c0 38 11 71 33 99c16 20 51.667 45 107 75c-64.667 56 -97 107.333 -97 154s18.333 85 55 115c34.667 28.667 75.667 43 123 43c50.667 0 93 -12.667 127 -38c38 -28 57 -66.667 57 -116c0 -54.667 -28.667 -98.667 -86 -132l-57 -33l158 -157
c10 15.333 16.333 41.666 19 78.999zM250.998 421.001c15.333 -15.333 30.001 -29.002 44.001 -41.002c68 33.333 102 74.333 102 123c0 28.667 -9 51.834 -27 69.501s-41.333 26.5 -70 26.5s-53.334 -10 -74.001 -30c-14 -13.333 -21 -33.666 -21 -60.999
s15.333 -56.333 46 -87zM462.999 109.999l-198 193c-67.333 -32 -101 -78.333 -101 -139c0 -40 15.333 -70.333 46 -91c26 -18 60 -27 102 -27c28 0 55.667 5.33301 83 16c30 12 52.667 28 68 48z" />
    <glyph glyph-name="quotesingle" unicode="'" horiz-adv-x="278" 
d="M103 468v240h72v-240h-72z" />
    <glyph glyph-name="parenleft" unicode="(" horiz-adv-x="320" 
d="M237 -3c26.667 -47.333 64.999 -84.667 114.999 -112l-22 -40c-88.667 34 -153 102.667 -193 206c-26.667 69.333 -40 159.333 -40 270c0 150.667 31.667 265.334 95 344.001c40 50 86 85 138 105l19 -38c-71.333 -42.667 -119.666 -101.667 -144.999 -177
c-18 -54 -27 -131.333 -27 -232c0 -146.667 20 -255.334 60 -326.001z" />
    <glyph glyph-name="parenright" unicode=")" horiz-adv-x="322" 
d="M85 620c-26.667 47.333 -64.999 84.667 -114.999 112l22 40c88.667 -34 153 -102.667 193 -206c26.667 -69.333 40 -159.333 40 -270c0 -150.667 -31.667 -265.334 -95 -344.001c-40 -50 -86 -85 -138 -105l-19 38c71.333 42.667 119.666 101.667 144.999 177
c18 54 27 131.333 27 232c0 146.667 -20 255.334 -60 326.001z" />
    <glyph glyph-name="asterisk" unicode="*" horiz-adv-x="444" 
d="M252 708v-149l142 48l19 -58l-141 -48l89 -119l-49 -38l-90 123l-87 -123l-50 38l87 119l-141 48l19 58l142 -48v149h60z" />
    <glyph glyph-name="plus" unicode="+" horiz-adv-x="500" 
d="M36 214v72h178v178h72v-178h178v-72h-178v-178h-72v178h-178z" />
    <glyph glyph-name="comma" unicode="," horiz-adv-x="267" 
d="M90 -140l-4.99902 -3l-28 44c39.333 19.333 61.666 49 66.999 89c-3.33301 -0.666992 -7 -1 -11 -1c-16 0 -29.167 6.5 -39.5 19.5s-15.5 27.833 -15.5 44.5c0 20 6.66699 37 20 51s30 21 50 21c25.333 0 45.333 -10 60 -30c12.667 -17.333 19 -39.333 19 -66
c0 -66 -39 -122.333 -117 -169z" />
    <glyph glyph-name="hyphen" unicode="-" horiz-adv-x="302" 
d="M57 229v76h191v-76h-191z" />
    <glyph glyph-name="hyphen" unicode="&#x2010;" horiz-adv-x="302" 
d="M57 229v76h191v-76h-191z" />
    <glyph glyph-name="period" unicode="." horiz-adv-x="266" 
d="M66 56c0 18.667 6.33301 34.334 19 47.001s28.334 19 47.001 19c19.333 0 35.5 -6.16699 48.5 -18.5s19.5 -28.166 19.5 -47.499c0 -18.667 -6.33301 -34.834 -19 -48.501s-28.334 -20.5 -47.001 -20.5c-19.333 0 -35.5 6.66699 -48.5 20s-19.5 29.666 -19.5 48.999z" />
    <glyph glyph-name="slash" unicode="/" horiz-adv-x="213" 
d="M-64 -148l259 905h66l-259 -905h-66z" />
    <glyph glyph-name="zero" unicode="0" horiz-adv-x="535" 
d="M38 336c0 76 18.334 147.002 55.001 213.002c43.333 78 100.666 117 171.999 117c82 0 144.667 -43.333 188 -130c29.333 -58.667 44 -128.334 44 -209.001c0 -86 -17 -161 -51 -225c-42 -78.667 -102.667 -118 -182 -118c-50.667 0 -94.667 20 -132 60
c-62.667 67.333 -94 164.666 -94 291.999zM267.001 603.002c-51.333 0 -89.333 -34.668 -114 -104.001c-17.333 -48 -26 -103.667 -26 -167c0 -125.333 23.333 -210.666 70 -255.999c21.333 -20.667 44.333 -31 69 -31c49.333 0 88 32 116 96c18 41.333 27 103 27 185
c0 184.667 -47.333 277 -142 277z" />
    <glyph glyph-name="one" unicode="1" horiz-adv-x="535" 
d="M87 518l192.001 135h62v-590h101v-63h-284v63h104v496c-20.667 -14.667 -45.334 -30 -74.001 -46c-10.667 -6 -38.667 -18.667 -84 -38z" />
    <glyph glyph-name="two" unicode="2" horiz-adv-x="535" 
d="M243 64l211.999 -0.00195312l-16 -64h-382v45c38.667 27.333 88.667 75 150 143c103.333 114.667 155 207.667 155 279c0 36.667 -11.167 67.334 -33.5 92.001s-51.5 37 -87.5 37c-34.667 0 -83 -19.333 -145 -58l-8 -5l-34 38c72.667 62.667 144 94 214 94
c52.667 0 96.834 -17.667 132.501 -53s53.5 -79.333 53.5 -132c0 -59.333 -21.333 -118.333 -64 -177c-22.667 -31.333 -52 -66 -88 -104c-80.667 -85.333 -128.667 -131.666 -144 -138.999c34 2.66699 62.333 4 85 4z" />
    <glyph glyph-name="three" unicode="3" horiz-adv-x="535" 
d="M182 329l-10.001 -0.000976562v56h9c71.333 0 116 4 134 12c37.333 16.667 56 48.334 56 95.001c0 33.333 -11.667 60 -35 80c-22 18 -50 27 -84 27c-52 0 -105 -19.667 -159 -59l-35 41c36.667 34 82.334 58.667 137.001 74c24 6.66699 47.667 10 71 10
c52 0 96 -13.667 132 -41c38.667 -30.667 58 -71.334 58 -122.001c0 -36.667 -11 -68 -33 -94s-51.333 -44 -88 -54c29.333 -7.33301 55 -19.333 77 -36c41.333 -31.333 62 -70.666 62 -117.999c0 -78 -39.333 -138.333 -118 -181c-63.333 -34.667 -137.333 -52 -222 -52
c-20 0 -36.333 1 -49 3l-18 54c16.667 -2.66699 33.667 -4 51 -4c93.333 0 165.333 22.667 216 68c34.667 31.333 52 71.333 52 120c0 58.667 -27.667 96 -83 112c-20.667 6 -61 9 -121 9z" />
    <glyph glyph-name="four" unicode="4" horiz-adv-x="535" 
d="M52 187l236.999 468.001h87l-206 -408c-9.33301 -18.667 -21.333 -39.667 -36 -63c15.333 2 28.333 3 39 3h155c7.33301 0 14.666 -0.333008 21.999 -1c-0.666992 14.667 -1 24 -1 28c0 7.33301 1 25.666 3 54.999l12 177l62 19v-248
c0 -11.333 -0.333008 -21.666 -1 -30.999c8.66699 0.666992 16.334 1 23.001 1h59v-62h-55c-8.66699 0 -17.667 0.333008 -27 1c0.666992 -12.667 1 -25.667 1 -39v-91l-77 -23v113c0 11.333 0.333008 24.666 1 39.999c-13.333 -0.666992 -26.666 -1 -39.999 -1h-258v62z
" />
    <glyph glyph-name="five" unicode="5" horiz-adv-x="535" 
d="M95 310l32.001 337h296l-12 -66h-213l-17 -193c22.667 2.66699 45.334 4 68.001 4c60.667 0 110 -16 148 -48c40 -34 60 -81 60 -141c0 -42 -11.5 -81 -34.5 -117s-53.167 -63.667 -90.5 -83c-50 -25.333 -104.667 -38 -164 -38c-26 0 -50.667 3 -74 9l-14 60
c22 -9.33301 46.667 -14 74 -14c57.333 0 106.666 15.667 147.999 47c46 34.667 69 79.667 69 135c0 44 -13.833 76.667 -41.5 98s-63.834 32 -108.501 32c-53.333 0 -95.333 -7.33301 -126 -22z" />
    <glyph glyph-name="six" unicode="6" horiz-adv-x="535" 
d="M415 692l19 -50c-106 -33.333 -185.333 -91 -238 -173c-18.667 -29.333 -34.334 -70.333 -47.001 -123c36.667 34.667 85.334 52 146.001 52c56 0 103.167 -19 141.5 -57s57.5 -84.667 57.5 -140c0 -62.667 -20.833 -114.667 -62.5 -156s-94.167 -62 -157.5 -62
c-73.333 0 -130.333 28 -171 84c-36 49.333 -54 112 -54 188c0 105.333 36 198.333 108 279c66.667 74 152.667 126.667 258 158zM279 338c-45.333 0 -90.333 -17.666 -135 -52.999c-2 -15.333 -3 -32.333 -3 -51c0 -52.667 9 -95.334 27 -128.001
c22.667 -41.333 58 -62 106 -62c42.667 0 75.667 15.667 99 47c20.667 28 31 64 31 108c0 40.667 -10.333 73.667 -31 99c-22.667 26.667 -54 40 -94 40z" />
    <glyph glyph-name="seven" unicode="7" horiz-adv-x="535" 
d="M331 580h-264l19 66h417l-19 -80l-70 -102c-37.333 -54 -74 -116.333 -110 -187c-56 -109.333 -91.667 -201.333 -107 -276c0 -2 -0.666992 -5.66699 -2 -11l-97 -24c17.333 86.667 64.333 201 141 343c66.667 123.333 128 214 184 272c-32 -0.666992 -62.667 -1 -92 -1z
" />
    <glyph glyph-name="eight" unicode="8" horiz-adv-x="535" 
d="M330 351l63 -30.002c66 -31.333 99 -78.333 99 -141c0 -59.333 -23.333 -107.666 -70 -144.999c-42.667 -34.667 -94.667 -52 -156 -52c-59.333 0 -110 15.667 -152 47c-46.667 34.667 -70 80.667 -70 138c0 83.333 47 142 141 176
c-78.667 36.667 -118 88.334 -118 155.001c0 25.333 6.5 50.333 19.5 75s29.833 44 50.5 58c33.333 22 80.333 33 141 33c52 0 95.667 -12 131 -36c40.667 -27.333 61 -66 61 -116c0 -70.667 -46.667 -124.667 -140 -162zM279 375.998c76.667 40.667 115 84.333 115 131
c0 33.333 -13 59 -39 77c-23.333 16 -52.333 24 -87 24c-35.333 0 -64.333 -8 -87 -24c-25.333 -18 -38 -44 -38 -78c0 -30 11.5 -54.667 34.5 -74s56.833 -38 101.5 -56zM384 232.997c-21.333 22 -71.334 51 -150.001 87c-73.333 -39.333 -110 -88.333 -110 -147
c0 -41.333 14.667 -74 44 -98c26.667 -22 61.334 -33 104.001 -33c38.667 0 70.667 10 96 30c28 22 42 51.667 42 89c0 30 -8.66699 54 -26 72z" />
    <glyph glyph-name="nine" unicode="9" horiz-adv-x="535" 
d="M194 -14c-43.333 -18.667 -83.667 -30 -121 -34l-39 48c32.667 4 64.667 12.667 96 26c126 54 210 136.667 252 248c-36.667 -26 -78 -39 -124 -39c-60 0 -108.333 19.667 -145 59s-55 89 -55 149c0 64.667 21.167 118.167 63.5 160.5s95.833 63.5 160.5 63.5
c65.333 0 118 -24.333 158 -73c37.333 -45.333 56 -101.333 56 -168c0 -57.333 -12 -114.833 -36 -172.5s-56.333 -108.167 -97 -151.5c-44.667 -48 -101 -86.667 -169 -116zM267.999 294c44 0 88.001 17.668 132.001 53.001c6.66699 29.333 10 55.333 10 78
c0 47.333 -10 87.666 -30 120.999c-23.333 39.333 -57.333 59 -102 59c-42.667 0 -76 -17 -100 -51c-21.333 -30 -32 -67.333 -32 -112c0 -42.667 9.33301 -77 28 -103c21.333 -30 52.666 -45 93.999 -45z" />
    <glyph glyph-name="colon" unicode=":" horiz-adv-x="302" 
d="M85 55c0 19.333 6.5 35.5 19.5 48.5s29.167 19.5 48.5 19.5c18.667 0 34.334 -6.5 47.001 -19.5s19 -28.833 19 -47.5c0 -19.333 -6.5 -35.5 -19.5 -48.5s-29.167 -19.5 -48.5 -19.5c-18.667 0 -34.334 6.5 -47.001 19.5s-19 28.833 -19 47.5zM85 370
c0 19.333 6.49902 35.666 19.499 48.999s29.167 20 48.5 20c18.667 0 34.334 -6.5 47.001 -19.5s19 -28.833 19 -47.5s-6.5 -34.667 -19.5 -48s-28.833 -20 -47.5 -20s-34.5 6.33301 -47.5 19s-19.5 28.334 -19.5 47.001z" />
    <glyph glyph-name="semicolon" unicode=";" horiz-adv-x="303" 
d="M111 -140l-5 -3.00098l-28 44c39.333 19.333 62 49 68 89c-4 -0.666992 -7.66699 -1 -11 -1c-16 0 -29.167 6.5 -39.5 19.5s-15.5 27.833 -15.5 44.5c0 20 6.66699 37 20 51s30 21 50 21c25.333 0 45.333 -10 60 -30c12.667 -17.333 19 -39.333 19 -66
c0 -65.333 -39.333 -121.666 -118 -168.999zM79 373.999c0 18 6.66699 33.167 20 45.5s29 18.5 47 18.5c18.667 0 34.667 -6.33301 48 -19s20 -28.334 20 -47.001c0 -19.333 -6.33301 -35.666 -19 -48.999s-28.667 -20 -48 -20s-35.5 7 -48.5 21s-19.5 30.667 -19.5 50z" />
    <glyph glyph-name="less" unicode="&#x3c;" horiz-adv-x="314" 
d="M270 514l-160 -214l160 -214l-66 -43l-191 257l191 257z" />
    <glyph glyph-name="equal" unicode="=" horiz-adv-x="666" 
d="M72 348v66h522v-66h-522zM72 192v66h522v-66h-522z" />
    <glyph glyph-name="greater" unicode="&#x3e;" horiz-adv-x="314" 
d="M38 86l160 214l-160 214l66 43l192 -257l-192 -257z" />
    <glyph glyph-name="question" unicode="?" horiz-adv-x="357" 
d="M243 387c-23.333 -18.667 -38.333 -36.667 -45 -54c-4 -10.667 -6 -30.334 -6 -59.001c0 -16 2 -33.333 6 -52h-67c-6 24 -9 46.667 -9 68c0 58.667 18.667 103 56 133l60 48c20 20 30 44.333 30 73c0 25.333 -8.66699 45.5 -26 60.5s-38.666 22.5 -63.999 22.5
c-32 0 -64 -8 -96 -24c-4.66699 -2 -18 -9.33301 -40 -22l-33 55c51.333 39.333 112.666 59 183.999 59c46 0 83.167 -13.167 111.5 -39.5s42.5 -62.166 42.5 -107.499c0 -41.333 -15.333 -79 -46 -113c-4 -4.66699 -23.333 -20.667 -58 -48zM104 55
c0 18.667 6.5 34.498 19.5 47.498s28.833 19.5 47.5 19.5s34.667 -6.5 48 -19.5s20 -28.833 20 -47.5c0 -19.333 -6.33301 -35.666 -19 -48.999s-28.667 -20 -48 -20c-18.667 0 -34.667 6.83301 -48 20.5s-20 29.834 -20 48.501z" />
    <glyph glyph-name="at" unicode="@" horiz-adv-x="800" 
d="M619 550l-84 -283c-6 -20 -9 -36.667 -9 -50s8 -20 24 -20c40 0 74.333 27.333 103 82c24.667 47.333 37 92.666 37 135.999c0 74.667 -26.5 136.167 -79.5 184.5s-117.167 72.5 -192.5 72.5c-87.333 0 -160.5 -31 -219.5 -93s-88.5 -137 -88.5 -225
c0 -87.333 29.667 -162.166 89 -224.499s132.333 -93.5 219 -93.5c48.667 0 95.834 10.667 141.501 32s82.5 51 110.5 89h63c-32.667 -54.667 -77.167 -97.5 -133.5 -128.5s-116.833 -46.5 -181.5 -46.5c-106 0 -194.833 35.667 -266.5 107s-107.5 159.666 -107.5 264.999
c0 104.667 36.167 192.834 108.5 264.501s160.833 107.5 265.5 107.5c92 0 170.333 -27.667 235 -83c68.667 -58 103 -132.333 103 -223c0 -80 -27.333 -149.667 -82 -209c-49.333 -53.333 -100 -80 -152 -80c-40.667 0 -62 22 -64 66h-2c-38 -44 -79.667 -66 -125 -66
c-42.667 0 -76.834 15 -102.501 45s-38.5 66.667 -38.5 110c0 72.667 20.333 136.667 61 192c44.667 60.667 102 91 172 91c54 0 91 -27.333 111 -82h2l18 63h65zM262 293c0 -26.667 7.99902 -49.333 23.999 -68s37 -28 63 -28c42 0 79.333 25.667 112 77
c28.667 45.333 43 90.333 43 135c0 24 -7.66699 45.667 -23 65s-34.666 29 -57.999 29c-46 0 -85 -24.333 -117 -73c-29.333 -43.333 -44 -89 -44 -137z" />
    <glyph glyph-name="A" unicode="A" 
d="M233 686h107l227 -686h-93l-65 211h-256l-66 -211h-83zM249 513l-73 -235h212l-105 336z" />
    <glyph glyph-name="B" unicode="B" horiz-adv-x="590" 
d="M92 0l-0.000976562 686h99c106.667 0 174.667 -5 204 -15c34.667 -12 62.834 -32.167 84.501 -60.5s32.5 -60.5 32.5 -96.5c0 -74 -41 -124 -123 -150c42 -10.667 72.333 -23.334 91 -38.001c40.667 -32 61 -78 61 -138c0 -37.333 -10.667 -72.166 -32 -104.499
s-49.333 -54.833 -84 -67.5c-29.333 -10.667 -81.333 -16 -156 -16h-177zM267.999 617l-97.001 -0.000976562v-226h119c32.667 0 56.667 3 72 9c18.667 7.33301 33.334 21.333 44.001 42c10 18.667 15 39 15 61c0 62.667 -29.667 99.334 -89 110.001
c-14.667 2.66699 -36 4 -64 4zM291.998 322.999h-120.998v-256h137c37.333 0 64.666 3.66699 81.999 11c24 10 42 30 54 60c7.33301 18.667 11 37.667 11 57c0 28.667 -7.33301 54.5 -22 77.5s-35 37.5 -61 43.5c-20.667 4.66699 -47.334 7 -80.001 7z" />
    <glyph glyph-name="C" unicode="C" horiz-adv-x="536" 
d="M338 695c66.667 0 124.332 -18.666 172.999 -55.999l-44 -53c-39.333 28.667 -82.666 43 -129.999 43c-78.667 0 -135 -39.333 -169 -118c-19.333 -44.667 -29 -105.334 -29 -182.001c0 -60.667 7.33301 -109 22 -145c34 -84 95.333 -126 184 -126
c48 0 92.667 14.667 134 44l44 -57c-57.333 -37.333 -121 -56 -191 -56c-92 0 -163.667 37 -215 111c-44.667 64.667 -67 145 -67 241c0 94 24 174.333 72 241c53.333 75.333 125.333 113 216 113z" />
    <glyph glyph-name="D" unicode="D" horiz-adv-x="625" 
d="M90 0l0.000976562 680h137c58 0 99.333 -2.66699 124 -8c31.333 -6.66699 63.333 -21.667 96 -45c77.333 -55.333 116 -151.333 116 -288c0 -111.333 -26 -196 -78 -254c-30.667 -34.667 -63 -58 -97 -70c-28.667 -10 -68.334 -15 -119.001 -15h-179zM254.001 613h-82
v-545h73c36 0 64 1.66699 84 5c44 7.33301 77 29.333 99 66c30.667 50.667 46 114 46 190c0 154.667 -44 246 -132 274c-20.667 6.66699 -50 10 -88 10z" />
    <glyph glyph-name="E" unicode="E" horiz-adv-x="518" 
d="M92 0v681h375l-11 -68h-281v-222h235v-71h-235v-249h302v-71h-385z" />
    <glyph glyph-name="F" unicode="F" horiz-adv-x="465" 
d="M90 0v683h361l-13 -68h-265v-222h220v-67h-220v-326h-83z" />
    <glyph glyph-name="G" unicode="G" horiz-adv-x="607" 
d="M339 692c72.667 0 135.332 -22.668 187.999 -68.001l-37 -51c-52 35.333 -101.667 53 -149 53c-86.667 0 -143.667 -38.667 -171 -116c-18 -50.667 -27 -108.667 -27 -174c0 -92 16 -161.333 48 -208c16 -23.333 40.667 -41.666 74 -54.999c30 -12 60.667 -18 92 -18
c44 0 80.333 9 109 27v209h-138l-16 68h231v-320c-53.333 -34.667 -117.666 -52 -192.999 -52c-99.333 0 -175 35 -227 105c-46 62 -69 144.333 -69 247c0 129.333 35.333 225.333 106 288c49.333 43.333 109 65 179 65z" />
    <glyph glyph-name="H" unicode="H" horiz-adv-x="627" 
d="M87 0v686h80v-287h289v287h82v-686h-82v332h-289v-332h-80z" />
    <glyph glyph-name="I" unicode="I" horiz-adv-x="268" 
d="M94 0v686h80v-686h-80z" />
    <glyph glyph-name="J" unicode="J" horiz-adv-x="267" 
d="M97 115l0.000976562 570.999h82v-569c0 -74.667 -8.33301 -127 -25 -157c-22 -40 -60.667 -69.333 -116 -88l-40 51c39.333 16 66.666 38.333 81.999 67c11.333 20.667 17 62.334 17 125.001z" />
    <glyph glyph-name="K" unicode="K" 
d="M83 0v686h83v-686h-83zM170 363l264 323h105l-276 -322l274 -364h-105z" />
    <glyph glyph-name="L" unicode="L" horiz-adv-x="465" 
d="M90 0v686h82v-617h271l-11 -69h-342z" />
    <glyph glyph-name="M" unicode="M" horiz-adv-x="769" 
d="M66 0l60 686h120l125 -448c11.333 -40.667 20.333 -80.667 27 -120c10 52 18.333 89.333 25 112l129 456h121l59 -686h-82l-40 503c-2 26 -3.66699 65 -5 117c-7.33301 -34 -16.333 -70 -27 -108l-147 -512h-70l-136 487c-16 57.333 -27.333 102 -34 134
c-2 -46 -4.66699 -90.333 -8 -133l-38 -488h-79z" />
    <glyph glyph-name="N" unicode="N" horiz-adv-x="625" 
d="M85 0l0.000976562 684.001h95l228 -437c17.333 -32.667 38.666 -80.334 63.999 -143.001c-2.66699 35.333 -5.66699 104.666 -9 207.999l-3 372h81v-684h-86l-220 419c-36.667 70.667 -62.667 125.334 -78 164.001c5.33301 -64 8.33301 -126 9 -186l4 -397h-85z" />
    <glyph glyph-name="O" unicode="O" horiz-adv-x="661" 
d="M57 346c0 98.667 20.334 179 61.001 241c48 74 118.667 111 212 111c97.333 0 170 -38.667 218 -116c40 -64 60 -147.333 60 -250c0 -125.333 -33.333 -218.333 -100 -279c-48.667 -44 -106.667 -66 -174 -66c-94.667 0 -166.334 37.667 -215.001 113
c-41.333 64 -62 146 -62 246zM483.001 538c-30 62.667 -80.999 94 -152.999 94c-71.333 0 -121.333 -29 -150 -87c-21.333 -42 -32 -102.667 -32 -182c0 -110 14.667 -189.667 44 -239c12.667 -22 34 -40 64 -54c27.333 -13.333 54.666 -20 81.999 -20
c118.667 0 178 90 178 270c0 99.333 -11 172 -33 218z" />
    <glyph glyph-name="P" unicode="P" horiz-adv-x="572" 
d="M93 0l0.000976562 686h190c67.333 0 117.333 -10.667 150 -32c58.667 -38 88 -92.667 88 -164c0 -70 -20.333 -123.667 -61 -161s-96.334 -56 -167.001 -56h-120v-273h-80zM260.001 617h-87v-277h115c94.667 0 142 44.667 142 134c0 54 -15.667 92 -47 114
c-26 19.333 -67 29 -123 29z" />
    <glyph glyph-name="Q" unicode="Q" horiz-adv-x="661" 
d="M469 -72c-27.333 16.667 -47.3311 28 -59.998 34c-28 12.667 -56.333 21 -85 25c-91.333 0 -161 38.667 -209 116c-40 65.333 -60 146.333 -60 243c0 98 20.333 178.333 61 241c47.333 74 117.666 111 210.999 111c97.333 0 170.333 -38.333 219 -115
c40 -64 60 -147.667 60 -251c0 -124.667 -33.667 -217.667 -101 -279c-14.667 -13.333 -29.334 -24.333 -44.001 -33c3.33301 -1.33301 34 -17 92 -47c36 -18.667 66.667 -28 92 -28c19.333 0 33 1.66699 41 5l-27 -65c-12 -6 -31.667 -9 -59 -9
c-31.333 0 -75 17.333 -131 52zM480.002 538c-30 62.667 -81.001 93.999 -153.001 93.999c-69.333 0 -118 -26.667 -146 -80c-24 -45.333 -36 -108.333 -36 -189c0 -107.333 15 -187 45 -239c13.333 -23.333 34.333 -41.666 63 -54.999
c26.667 -12.667 54.334 -19 83.001 -19c118.667 0 178 90 178 270c0 98 -11.333 170.667 -34 218z" />
    <glyph glyph-name="R" unicode="R" 
d="M91 0l0.00195312 684.999h160c79.333 0 137 -14.667 173 -44c45.333 -36.667 68 -84.667 68 -144c0 -56.667 -16.333 -102.167 -49 -136.5s-77 -51.5 -133 -51.5h-10c22 -18 45 -43.667 69 -77l56 -80c19.333 -27.333 53.333 -78 102 -152h-103
c-14.667 31.333 -32.334 63 -53.001 95c-46.667 70.667 -87.334 127.334 -122.001 170.001c-22.667 28 -48 42.667 -76 44v-309h-82zM253.002 615.999h-79v-256h73c52 0 90.667 9.66699 116 29c28.667 22 43 58.333 43 109c0 22 -6.16699 42.833 -18.5 62.5
s-28.5 33.5 -48.5 41.5c-24 9.33301 -52.667 14 -86 14z" />
    <glyph glyph-name="S" unicode="S" horiz-adv-x="554" 
d="M277 701c73.333 0 142.333 -22.0029 207 -66.0029l-36 -59c-59.333 38.667 -115 58 -167 58c-40 0 -72 -8.66699 -96 -26c-27.333 -19.333 -41 -48.333 -41 -87c0 -50.667 38 -88 114 -112l79 -25c110.667 -35.333 166 -98.666 166 -189.999c0 -68 -31.667 -123 -95 -165
c-42 -28 -93.333 -42 -154 -42c-80 0 -153.333 20.667 -220 62l36 64c54.667 -39.333 116 -59 184 -59c44 0 80.333 10 109 30c32.667 22.667 49 55.334 49 98.001c0 60.667 -41 103.334 -123 128.001l-69 21c-60 18 -100.667 38.333 -122 61c-28.667 30 -43 67.333 -43 112
c0 62 22 111 66 147c40.667 33.333 92.667 50 156 50z" />
    <glyph glyph-name="T" unicode="T" horiz-adv-x="501" 
d="M23 617v69h454l-5 -69h-186v-617h-79v617h-184z" />
    <glyph glyph-name="U" unicode="U" horiz-adv-x="609" 
d="M79 207l0.000976562 478.999h81v-439c0 -48.667 2.33301 -83.667 7 -105c12 -56 58.333 -84 139 -84c56 0 95 13 117 39c20 24 30 64.333 30 121v468h81v-477c0 -43.333 -2 -73.666 -6 -90.999c-10.667 -46.667 -40 -81 -88 -103c-38 -18 -84 -27 -138 -27
c-102.667 0 -170.334 33 -203.001 99c-13.333 26.667 -20 66.667 -20 120z" />
    <glyph glyph-name="V" unicode="V" horiz-adv-x="573" 
d="M246 0l-231 685.999h89l145 -440c20.667 -63.333 34 -114.333 40 -153c6.66699 30.667 20.667 78.334 42 143.001l147 450h84l-235 -686h-81z" />
    <glyph glyph-name="W" unicode="W" horiz-adv-x="818" 
d="M186 0l-161.999 685.999h88l87 -401c7.33301 -35.333 19.666 -105 36.999 -209c8.66699 56 21.667 122.333 39 199l91 411h93l89 -398c23.333 -104 37 -174.667 41 -212c6.66699 48.667 20 119.334 40 212.001l85 398h82l-157 -686h-107l-85 381
c-16.667 76 -28.667 141 -36 195c-8 -56.667 -19.667 -119.667 -35 -189l-84 -387h-106z" />
    <glyph glyph-name="X" unicode="X" horiz-adv-x="537" 
d="M210 368l-182 318h97l137 -254l131 254h96l-172 -312l216 -374h-99l-170 315l-161 -315h-96z" />
    <glyph glyph-name="Y" unicode="Y" horiz-adv-x="537" 
d="M227 272l-221 413.999h101l130 -262c16.667 -33.333 28.334 -59 35.001 -77c5.33301 12.667 17.666 38.334 36.999 77.001l132 262h94l-223 -419v-267h-85v272z" />
    <glyph glyph-name="Z" unicode="Z" horiz-adv-x="484" 
d="M35 610l23.001 69h391v-70l-285 -474c-12 -20.667 -26 -42.667 -42 -66c16 0.666992 35.667 1 59 1h272l-21 -70h-407v63l293 482c20 32.667 34.667 54.667 44 66c-12.667 -0.666992 -36.334 -1 -71.001 -1h-256z" />
    <glyph glyph-name="bracketleft" unicode="[" horiz-adv-x="259" 
d="M193 732v-60h-93v-768h93v-60h-165v888h165z" />
    <glyph glyph-name="backslash" unicode="\" horiz-adv-x="370" 
d="M304 -43l-301 769l63 24l301 -768z" />
    <glyph glyph-name="bracketright" unicode="]" horiz-adv-x="259" 
d="M66 672v60h165v-888h-165v60h93v768h-93z" />
    <glyph glyph-name="asciicircum" unicode="^" horiz-adv-x="666" 
d="M80 275l223 433h60l223 -433h-74l-179 349l-179 -349h-74z" />
    <glyph glyph-name="underscore" unicode="_" horiz-adv-x="500" 
d="M0 -125v50h500v-50h-500z" />
    <glyph glyph-name="grave" unicode="`" horiz-adv-x="338" 
d="M82 742l207 -130l-26 -47l-224 100z" />
    <glyph glyph-name="a" unicode="a" horiz-adv-x="519" 
d="M211 522h100l193 -522h-90l-53 145h-210l-54 -145h-81zM258 451l-85 -240h169c-2 4 -30 84 -84 240z" />
    <glyph glyph-name="b" unicode="b" horiz-adv-x="536" 
d="M90 0v522.001h134c67.333 0 112 -3.66699 134 -11c28 -9.33301 51 -24 69 -44c20 -22.667 30 -48 30 -76c0 -33.333 -14 -61.666 -42 -84.999c-13.333 -11.333 -33.666 -21 -60.999 -29c34 -6.66699 59.333 -16.334 76 -29.001c34.667 -26 52 -60.333 52 -103
c0 -30 -9.16699 -56.833 -27.5 -80.5s-41.333 -40.334 -69 -50.001s-75.834 -14.5 -144.501 -14.5h-151zM248 454.001h-79.999v-150h97c25.333 0 43.666 1.66699 54.999 5c33.333 10 50 33 50 69c0 50.667 -40.667 76 -122 76zM268.001 238.001h-100v-172h98
c37.333 0 65.333 3.66699 84 11c30.667 12 46 36.667 46 74c0 20 -6 37.5 -18 52.5s-27.833 24.5 -47.5 28.5s-40.5 6 -62.5 6z" />
    <glyph glyph-name="c" unicode="c" horiz-adv-x="488" 
d="M308 531c59.333 0 108.333 -14.001 147 -42.001l-41 -54c-32.667 20.667 -67.667 31 -105 31c-68 0 -116 -29.333 -144 -88c-14.667 -30.667 -22 -72 -22 -124c0 -57.333 13.667 -103.666 41 -138.999c30 -39.333 73 -59 129 -59c36 0 69.667 9 101 27
c2 1.33301 5.66699 3.33301 11 6l40 -52c-39.333 -30 -93.333 -45 -162 -45c-75.333 0 -136 25.667 -182 77c-44.667 49.333 -67 112 -67 188c0 76.667 23.5 141.5 70.5 194.5s108.167 79.5 183.5 79.5z" />
    <glyph glyph-name="d" unicode="d" horiz-adv-x="562" 
d="M88 0l0.000976562 519.002h118c37.333 0 68.666 -1.33301 93.999 -4c44.667 -4.66699 84.667 -22 120 -52c52.667 -44.667 79 -112.334 79 -203.001c0 -78.667 -22 -142.334 -66 -191.001c-36 -39.333 -76.333 -61.333 -121 -66c-19.333 -2 -43.333 -3 -72 -3h-152z
M234.001 453.002h-66v-387h64c26.667 0 49 2 67 6c75.333 16.667 113 77.667 113 183c0 132 -59.333 198 -178 198z" />
    <glyph glyph-name="e" unicode="e" horiz-adv-x="471" 
d="M90 0v520h325l-11 -67h-234v-148h196v-67h-195v-168h253v-70h-334z" />
    <glyph glyph-name="f" unicode="f" horiz-adv-x="425" 
d="M89 0v520h312l-11 -66h-221v-147h182v-66h-182v-241h-80z" />
    <glyph glyph-name="g" unicode="g" horiz-adv-x="550" 
d="M306 528c61.333 0 117.002 -18.333 167.002 -55l-38 -51c-44 27.333 -86.333 41 -127 41c-71.333 0 -118 -25 -140 -75c-16 -36 -24 -79.667 -24 -131c0 -89.333 25.333 -148 76 -176c31.333 -17.333 65.666 -26 102.999 -26c35.333 0 63.666 5.66699 84.999 17v142h-114
l-13 67h204v-247c-46 -28 -101.667 -42 -167 -42c-82 0 -146.333 25 -193 75c-45.333 48 -68 113.333 -68 196c0 102 32.667 175.667 98 221c42 29.333 92.333 44 151 44z" />
    <glyph glyph-name="h" unicode="h" horiz-adv-x="566" 
d="M86 0v522h79v-212h233v212h80v-522h-80v244h-233v-244h-79z" />
    <glyph glyph-name="i" unicode="i" horiz-adv-x="263" 
d="M92 0v523h80v-523h-80z" />
    <glyph glyph-name="j" unicode="j" horiz-adv-x="262" 
d="M96 87l0.000976562 435h79v-436c0 -42 -3 -72.333 -9 -91c-15.333 -48 -54.333 -82.667 -117 -104l-38 46c31.333 13.333 54.666 32 69.999 56c10 16 15 47.333 15 94z" />
    <glyph glyph-name="k" unicode="k" horiz-adv-x="524" 
d="M84 0v522h81v-242l215 242h102l-228 -243l231 -279h-104l-216 275v-275h-81z" />
    <glyph glyph-name="l" unicode="l" horiz-adv-x="431" 
d="M90 0v522h80v-455h228l-11 -67h-297z" />
    <glyph glyph-name="m" unicode="m" horiz-adv-x="695" 
d="M69 0l52.998 521.998h109l97 -302c8.66699 -26 18.334 -63 29.001 -111c4 18.667 13.667 54.667 29 108l96 305h115l50 -522h-79l-31 335c-2.66699 28.667 -4.33398 65.334 -5.00098 110.001c-4 -18 -13.667 -53.667 -29 -107l-113 -338h-70l-110 339
c-7.33301 22.667 -16.666 58.334 -27.999 107.001c-1.33301 -31.333 -3.66602 -67 -6.99902 -107l-30 -339h-76z" />
    <glyph glyph-name="n" unicode="n" horiz-adv-x="565" 
d="M85 0v522.001h92l170 -284c0.666992 -0.666992 23 -41.334 67 -122.001c-2.66699 24 -5.66699 71.667 -9 143l-3 263h78v-522h-83l-168 277c-16.667 28 -41 73.333 -73 136c2.66699 -30.667 4.66699 -79 6 -145l5 -268h-82z" />
    <glyph glyph-name="o" unicode="o" horiz-adv-x="596" 
d="M62 263c0 79.333 19.333 142.667 58 190c42 52 101.667 78 179 78c80 0 141.333 -26 184 -78c39.333 -48.667 59 -113.667 59 -195s-18.667 -145 -56 -191c-40.667 -50.667 -101 -76 -181 -76c-78 0 -138.667 26.333 -182 79c-40.667 48.667 -61 113 -61 193z
M296 466.001c-55.333 0 -94.668 -19.332 -118.001 -57.999c-18 -30.667 -27 -75.667 -27 -135c0 -68 9 -118.667 27 -152c24 -45.333 67 -68 129 -68c56.667 0 96.334 19.667 119.001 59c17.333 30 26 75.333 26 136c0 67.333 -9 117.666 -27 150.999
c-24.667 44.667 -67.667 67 -129 67z" />
    <glyph glyph-name="p" unicode="p" horiz-adv-x="520" 
d="M90 0v522.999h154c66.667 0 114.667 -8.33301 144 -25c52 -29.333 78 -72.666 78 -129.999c0 -54.667 -20.333 -97 -61 -127c-36 -26.667 -82.333 -40 -139 -40h-97v-201h-79zM241 455.999h-72v-189h92c77.333 0 116 31 116 93c0 44.667 -19.667 73.667 -59 87
c-17.333 6 -43 9 -77 9z" />
    <glyph glyph-name="q" unicode="q" horiz-adv-x="596" 
d="M485 70c-18 -21.333 -37.668 -38.668 -59.001 -52.001c16 -6 43 -19.333 81 -40c34.667 -19.333 61.667 -31.666 81 -36.999s37.333 -5.66602 54 -0.999023l-31 -54c-10 -1.33301 -19.667 -2 -29 -2c-16 0 -30.667 1.66699 -44 5c-23.333 6.66699 -54.666 22 -93.999 46
c-41.333 25.333 -72.666 41.333 -93.999 48c-4.66699 2 -12.334 4.33301 -23.001 7c-6 0.666992 -14.667 1 -26 1c-78 0 -138.667 26.333 -182 79c-40.667 48.667 -61 113 -61 193c0 79.333 19.333 142.666 58 189.999c42 52 101.667 78 179 78c80 0 141.333 -26 184 -78
c39.333 -48.667 59 -113.667 59 -195c0 -83.333 -17.667 -146 -53 -188zM291.999 465.998c-55.333 0 -94.668 -19.332 -118.001 -57.999c-18 -30.667 -27 -75.667 -27 -135c0 -68 9 -118.667 27 -152c24 -45.333 67 -68 129 -68c56.667 0 96.334 19.667 119.001 59
c17.333 30 26 75.333 26 136c0 67.333 -9 117.666 -27 150.999c-24.667 44.667 -67.667 67 -129 67z" />
    <glyph glyph-name="r" unicode="r" horiz-adv-x="519" 
d="M88 0l-0.000976562 522.001h140c71.333 0 121.333 -9 150 -27c42.667 -26.667 64 -66 64 -118c0 -47.333 -14.167 -83.5 -42.5 -108.5s-66.833 -37.833 -115.5 -38.5c10.667 -5.33301 20 -13 28 -23c14 -16.667 40 -49.334 78 -98.001l83 -109h-99
c-9.33301 19.333 -25 45.333 -47 78c-39.333 58.667 -72.666 100 -99.999 124c-17.333 15.333 -37 24 -59 26v-228h-80zM230.999 456.001h-63v-172h54c42 0 73 4.66699 93 14c29.333 14 44 39.333 44 76c0 54.667 -42.667 82 -128 82z" />
    <glyph glyph-name="s" unicode="s" horiz-adv-x="507" 
d="M253 535c74 0 135 -17 183 -51l-36 -58c-47.333 28.667 -95 43 -143 43c-28.667 0 -53 -5.33301 -73 -16c-25.333 -13.333 -38 -33 -38 -59s16 -45.667 48 -59c6.66699 -2.66699 21.334 -7.66699 44.001 -15l71 -19c94.667 -25.333 142 -74.333 142 -147
c0 -58.667 -28.333 -103.667 -85 -135c-36 -20 -80.333 -30 -133 -30c-70 0 -134.333 16 -193 48l33 63c54 -29.333 109 -44 165 -44c31.333 0 58.666 6.33301 81.999 19c28.667 15.333 43 37.333 43 66c0 40 -33.667 68.667 -101 86l-77 20
c-35.333 9.33301 -64.333 25 -87 47c-25.333 24.667 -38 54 -38 88c0 49.333 20.667 88 62 116c36 24.667 79.667 37 131 37z" />
    <glyph glyph-name="t" unicode="t" horiz-adv-x="458" 
d="M32 455v67h399l-9 -67h-157v-455h-78v455h-155z" />
    <glyph glyph-name="u" unicode="u" horiz-adv-x="551" 
d="M78 190l-0.000976562 332h80v-313c0 -43.333 2.33301 -72.333 7 -87c13.333 -41.333 51 -62 113 -62c43.333 0 74.333 10.667 93 32c16.667 19.333 25 51.333 25 96v334h80v-332c0 -37.333 -2 -64.666 -6 -81.999c-9.33301 -41.333 -34 -72 -74 -92
c-32.667 -16.667 -72.667 -25 -120 -25c-103.333 0 -166.666 38 -189.999 114c-5.33301 17.333 -8 45.666 -8 84.999z" />
    <glyph glyph-name="v" unicode="v" horiz-adv-x="524" 
d="M223 -2l-199.001 524h87l115 -294c12.667 -32 25.334 -71.667 38.001 -119c8.66699 38.667 20.667 76.667 36 114l120 299h83l-203 -524h-77z" />
    <glyph glyph-name="w" unicode="w" horiz-adv-x="738" 
d="M173 -2l-140.001 524.001h86l67 -251c10.667 -41.333 22.334 -100 35.001 -176c10 56.667 22.667 113.667 38 171l67 256h90l70 -267c23.333 -88.667 35 -141 35 -157c8.66699 54.667 20.334 110 35.001 166l67 258h82l-136 -524h-100l-64 243
c-12.667 49.333 -24.334 105.666 -35.001 168.999c-5.33301 -28 -17 -82.333 -35 -163l-62 -249h-100z" />
    <glyph glyph-name="x" unicode="x" horiz-adv-x="496" 
d="M194 280l-157 243h95l111 -171l106 171h94l-149 -238l185 -285h-95l-139 216l-131 -216h-96z" />
    <glyph glyph-name="y" unicode="y" horiz-adv-x="493" 
d="M207 210l-189 313h98l105 -176c10.667 -18 20.667 -38.667 30 -62c8 20 18.333 40.333 31 61l106 176h92l-190 -313v-209h-83v210z" />
    <glyph glyph-name="z" unicode="z" horiz-adv-x="447" 
d="M44 452l21 67h340v-63l-240 -346c-8 -11.333 -19.667 -26.333 -35 -45c17.333 1.33301 34.666 2 51.999 2h227l-21 -67h-352v59l244 346c9.33301 12.667 22 29 38 49c-23.333 -1.33301 -43.666 -2 -60.999 -2h-213z" />
    <glyph glyph-name="braceleft" unicode="{" horiz-adv-x="333" 
d="M294 732v-60.002h-54c-32.667 0 -49 -26.333 -49 -79v-176c0 -29.333 -7.33301 -55.666 -22 -78.999c-16 -26 -37.333 -42.333 -64 -49v-2c28.667 -4 50.667 -19.667 66 -47c13.333 -23.333 20 -50.666 20 -81.999v-175c0 -52.667 16.333 -79 49 -79h54v-60h-70
c-32 0 -58 13 -78 39c-18 24 -27 52.667 -27 86v175c0 28.667 -7 54 -21 76c-16 25.333 -37.667 38 -65 38v60c26 0 47.333 12.667 64 38c14.667 22 22 47 22 75v176c0 32.667 9.33301 61 28 85c20 26.667 45.667 40 77 40h70z" />
    <glyph glyph-name="bar" unicode="|" horiz-adv-x="222" 
d="M78 -18v774h66v-774h-66z" />
    <glyph glyph-name="braceright" unicode="}" horiz-adv-x="333" 
d="M39 672v60.002h70c31.333 0 57 -13.333 77 -40c18.667 -24 28 -52.333 28 -85v-176c0 -28 7.33301 -53 22 -75c16.667 -25.333 38 -38 64 -38v-60c-27.333 0 -49 -12.667 -65 -38c-14 -22 -21 -47.333 -21 -76v-175c0 -33.333 -9 -62 -27 -86c-20 -26 -46 -39 -78 -39
h-70v60h54c32.667 0 49 26.333 49 79v175c0 31.333 6.66699 58.666 20 81.999c15.333 27.333 37.333 43 66 47v2c-26.667 6.66699 -48 23 -64 49c-14.667 23.333 -22 49.666 -22 78.999v176c0 52.667 -16.333 79 -49 79h-54z" />
    <glyph glyph-name="asciitilde" unicode="~" horiz-adv-x="666" 
d="M530 372l33 -48c-20.667 -29.333 -37.667 -49.333 -51 -60c-23.333 -18.667 -48.333 -28 -75 -28c-24 0 -58 10 -102 30c-56 25.333 -94.333 38 -115 38c-34.667 0 -62.667 -23.333 -84 -70l-33 48c20.667 28.667 37.667 48.667 51 60c22 18.667 46.667 28 74 28
c24 0 58 -10 102 -30c56 -25.333 94.333 -38 115 -38c34 0 62.333 23.333 85 70z" />
    <glyph glyph-name="euro" horiz-adv-x="498" 
d="M522 633l-22.999 -156.001l-48 6c0 104.667 -31.333 157 -94 157c-68.667 0 -122.334 -70.333 -161.001 -211h172l-21 -48h-164c-4 -16 -9.33301 -40.333 -16 -73h147l-21 -47h-134c-4 -27.333 -6 -52 -6 -74c0 -37.333 7 -67.666 21 -90.999
c17.333 -28.667 43.333 -43 78 -43c38.667 0 72.334 22.667 101.001 68c16 25.333 33 65 51 119l55 -10l-54 -188c-51.333 -35.333 -104.333 -53 -159 -53c-74 0 -129.333 28 -166 84c-31.333 47.333 -47 110 -47 188h-74l21 47h56c2 16.667 6 41 12 73h-66l21 48h59
c27.333 74.667 63.333 135.667 108 183c55.333 58.667 117.666 88 186.999 88c62.667 0 117.667 -22.333 165 -67z" />
    <glyph glyph-name="nonbreakingspace" unicode="&#xa0;" horiz-adv-x="333" 
 />
    <glyph glyph-name="exclamdown" unicode="&#xa1;" horiz-adv-x="266" 
d="M89 -9l19 501h60l19 -488zM76 634c0 17.333 5.83301 32.166 17.5 44.499s26.167 18.5 43.5 18.5s31.833 -6 43.5 -18s17.5 -26.667 17.5 -44s-5.83301 -31.833 -17.5 -43.5s-26.167 -17.5 -43.5 -17.5c-16.667 0 -31 5.83301 -43 17.5s-18 25.834 -18 42.501z" />
    <glyph glyph-name="cent" unicode="&#xa2;" horiz-adv-x="429" 
d="M293 586l0.00195312 -77c35.333 -4.66699 71.666 -22 108.999 -52l-43 -54c-26 21.333 -48 33.666 -66 36.999v-386c30.667 6.66699 57 23.667 79 51l43 -50c-36.667 -38 -77.334 -59.333 -122.001 -64v-76h-55v75c-62.667 6 -109.667 34.333 -141 85
c-27.333 44 -41 99.333 -41 166c0 92 25 162.667 75 212c33.333 32.667 69 51.334 107 56.001v77h55zM238.002 53v387c-40.667 -11.333 -68 -40.666 -82 -87.999c-9.33301 -30.667 -14 -73.334 -14 -128.001c0 -100.667 32 -157.667 96 -171z" />
    <glyph glyph-name="sterling" unicode="&#xa3;" horiz-adv-x="556" 
d="M57 0v78h108v252h-96v66h96v80c0 74 16.667 132 50 174c37.333 46.667 92 70 164 70c66 0 119.667 -20.667 161 -62l-55 -59c-34 32.667 -70 49 -108 49c-85.333 0 -128 -58 -128 -174v-78h162v-66h-162v-252h246v-78h-438z" />
    <glyph glyph-name="currency" unicode="&#xa4;" horiz-adv-x="447" 
d="M59 271c0 51.333 13.333 92 40 122l-44 63l68 40l38 -63c18 5.33301 37.333 8 58 8c21.333 0 41.333 -3.33301 60 -10l37 65l64 -40l-41 -62c0 -2.66699 2.66699 -6 8 -10c22.667 -28 34 -67.667 34 -119c0 -49.333 -11.667 -87 -35 -113l45 -65l-64 -41l-41 63
c-18 -6.66699 -40 -10 -66 -10c-22.667 0 -44 3.66699 -64 11l-41 -64l-62 41l43 65c-24.667 30 -37 69.667 -37 119zM218 386c-60.667 0 -91 -35.666 -91 -106.999c0 -40.667 5.66699 -70.334 17 -89.001c14.667 -24 41 -36 79 -36c60.667 0 91 35.667 91 107
c0 83.333 -32 125 -96 125z" />
    <glyph glyph-name="yen" unicode="&#xa5;" horiz-adv-x="537" 
d="M33 374l139 -0.000976562l-166 312h101l130 -262c16.667 -33.333 28.334 -59 35.001 -77c5.33301 12.667 17.666 38.334 36.999 77.001l132 262h94l-166 -312h149v-59h-180l-26 -48v-48h206v-59h-206v-160h-85v160h-194v59h194v53l-23 43h-171v59z" />
    <glyph glyph-name="brokenbar" unicode="&#xa6;" horiz-adv-x="222" 
d="M144 424h-66v332h66v-332zM144 -18h-66v322h66v-322z" />
    <glyph glyph-name="section" unicode="&#xa7;" horiz-adv-x="556" 
d="M463 632l-75.001 -41.001c-15.333 42 -49.666 63 -102.999 63c-30 0 -54.333 -6.66699 -73 -20c-21.333 -15.333 -32 -37.333 -32 -66c0 -33.333 14.667 -57.333 44 -72l98 -49c22 -10.667 39.667 -20 53 -28c20 -11.333 36.333 -22.666 49 -33.999
c33.333 -29.333 50 -63.666 50 -102.999c0 -56.667 -28.667 -101 -86 -133c46 -30 69 -71 69 -123c0 -54.667 -21 -97.334 -63 -128.001c-37.333 -28 -84.333 -42 -141 -42c-99.333 0 -165 41 -197 123l77 36c17.333 -58 59.333 -87 126 -87
c30.667 0 56.334 7.83301 77.001 23.5s31 38.5 31 68.5c0 24.667 -11.667 45.667 -35 63c-9.33301 6.66699 -31 19 -65 37l-122 64c-48.667 25.333 -73 66 -73 122c0 60.667 33.667 107.334 101 140.001c-51.333 29.333 -77 68.666 -77 117.999c0 50.667 20 91 60 121
c36 27.333 80 41 132 41c87.333 0 145.666 -31.333 174.999 -94zM235.999 225.999l89 -42.9971c17.333 7.33301 32.5 19.166 45.5 35.499s19.5 33.5 19.5 51.5c0 38.667 -32.333 74 -97 106l-58 29c-27.333 -11.333 -46.333 -21.333 -57 -30
c-18.667 -14.667 -28 -33.334 -28 -56.001s9.33301 -42.334 28 -59.001c10 -8.66699 29.333 -20 58 -34z" />
    <glyph glyph-name="dieresis" unicode="&#xa8;" horiz-adv-x="500" 
d="M91 621c0 14 5.00098 26.001 15.001 36.001s22 15 36 15c14.667 0 27 -4.83301 37 -14.5s15 -21.834 15 -36.501s-4.83301 -27.167 -14.5 -37.5s-21.834 -15.5 -36.501 -15.5s-27 5.16699 -37 15.5s-15 22.833 -15 37.5zM297.001 621.001
c0 14.667 5.00098 26.833 15.001 36.5s22.333 14.5 37 14.5c14 0 26.167 -5 36.5 -15s15.5 -22 15.5 -36c0 -14.667 -4.83301 -27.167 -14.5 -37.5s-21.834 -15.5 -36.501 -15.5s-27.167 5.16699 -37.5 15.5s-15.5 22.833 -15.5 37.5z" />
    <glyph glyph-name="copyright" unicode="&#xa9;" horiz-adv-x="800" 
d="M28 354c0 105.333 35.6689 193.668 107.002 265.001s159.666 107 264.999 107s193.666 -35.667 264.999 -107s107 -159.666 107 -264.999c0 -104.667 -35.833 -192.834 -107.5 -264.501s-159.834 -107.5 -264.501 -107.5c-105.333 0 -193.666 35.667 -264.999 107
s-107 159.666 -107 264.999zM94.002 354.002c0 -89.333 28.833 -164.67 86.5 -226.003s130.834 -92 219.501 -92c88 0 161 30.833 219 92.5s87 136.834 87 225.501s-29 163.834 -87 225.501s-131 92.5 -219 92.5c-88.667 0 -161.834 -30.667 -219.501 -92
s-86.5 -136.666 -86.5 -225.999zM538.002 281.998l62.001 -0.00195312c-10.667 -47.333 -32 -84.666 -64 -111.999c-33.333 -29.333 -73.666 -44 -120.999 -44c-66.667 0 -120.334 21.167 -161.001 63.5s-61 97.166 -61 164.499c0 68 19.5 122.833 58.5 164.5
s92.5 62.5 160.5 62.5c49.333 0 91 -13.167 125 -39.5s54.667 -63.5 62 -111.5h-61c-5.33301 29.333 -19.833 52.833 -43.5 70.5s-50.834 26.5 -81.501 26.5c-48.667 0 -87 -17 -115 -51c-26 -31.333 -39 -72 -39 -122c0 -47.333 14 -87.666 42 -120.999
c29.333 -35.333 67.333 -53 114 -53c31.333 0 58.5 9.33301 81.5 28s36.833 43.334 41.5 74.001z" />
    <glyph glyph-name="ordfeminine" unicode="&#xaa;" horiz-adv-x="392" 
d="M38 240v54h313v-54h-313zM75 400c-14 13.333 -23 26 -27 38c-2.66699 8 -4 21.333 -4 40c0 49.333 21.667 85.333 65 108c34 18 78 27 132 27c9.33301 0 18 -0.333008 26 -1v25c0 28.667 -4 47.667 -12 57c-12 13.333 -28 20 -48 20c-38 0 -78 -15 -120 -45l-30 46
c19.333 12 35.666 21 48.999 27c36 16 72.667 24 110 24c54.667 0 90 -20 106 -60c5.33301 -13.333 8 -35 8 -65v-18l-3 -123c-0.666992 -2.66699 -1 -8 -1 -16c0 -38.667 10.333 -63.667 31 -75l-32 -44c-27.333 8.66699 -44.666 26.667 -51.999 54
c-28 -32.667 -64 -49 -108 -49c-39.333 0 -69.333 10 -90 30zM265 474l2.00098 97c-8.66699 1.33301 -18.334 2 -29.001 2c-86 0 -129 -29.667 -129 -89c0 -46 21.667 -69 65 -69c40.667 0 71 19.667 91 59z" />
    <glyph glyph-name="guillemotleft" unicode="&#xab;" horiz-adv-x="500" 
d="M256 418l-117 -178l117 -178l-55 -36l-143 214l143 214zM442 418l-117 -178l117 -178l-55 -36l-143 214l143 214z" />
    <glyph glyph-name="sfthyphen" unicode="&#xad;" horiz-adv-x="338" 
d="M8 174l33 122h246l-33 -122h-246z" />
    <glyph glyph-name="registered" unicode="&#xae;" horiz-adv-x="800" 
d="M28 354c0 105.333 35.6689 193.668 107.002 265.001s159.666 107 264.999 107s193.666 -35.667 264.999 -107s107 -159.666 107 -264.999c0 -104.667 -35.833 -192.834 -107.5 -264.501s-159.834 -107.5 -264.501 -107.5c-105.333 0 -193.666 35.667 -264.999 107
s-107 159.666 -107 264.999zM94.002 354.002c0 -89.333 28.833 -164.67 86.5 -226.003s130.834 -92 219.501 -92c88 0 161 30.833 219 92.5s87 136.834 87 225.501s-29 163.834 -87 225.501s-131 92.5 -219 92.5c-88.667 0 -161.834 -30.667 -219.501 -92
s-86.5 -136.666 -86.5 -225.999zM258.002 136.998v435h164c101.333 0 152 -41.333 152 -124c0 -71.333 -38.333 -111 -115 -119l125 -192h-71l-118 187h-71v-187h-66zM324.002 517.998v-140h68c38 0 64.667 3.33301 80 10c24 10.667 36 31.667 36 63
c0 44.667 -32.333 67 -97 67h-87z" />
    <glyph glyph-name="macron" unicode="&#xaf;" horiz-adv-x="402" 
d="M60 683v54h274v-54h-274z" />
    <glyph glyph-name="macron" unicode="&#x2c9;" horiz-adv-x="402" 
d="M60 683v54h274v-54h-274z" />
    <glyph glyph-name="degree" unicode="&#xb0;" horiz-adv-x="390" 
d="M34 521c0 52 13.834 93.333 41.501 124s67.167 46 118.5 46c53.333 0 93.666 -15.833 120.999 -47.5s41 -74.5 41 -128.5c0 -50.667 -14.333 -91 -43 -121s-68 -45 -118 -45c-51.333 0 -91 15.667 -119 47s-42 73 -42 125zM193.001 636
c-60.667 0 -91 -35.666 -91 -106.999c0 -40.667 5.66699 -70.334 17 -89.001c14.667 -24 41 -36 79 -36c60.667 0 91 35.667 91 107c0 83.333 -32 125 -96 125z" />
    <glyph glyph-name="acute" unicode="&#xb4;" horiz-adv-x="338" 
d="M49 612l207 130l43 -77l-224 -100z" />
    <glyph glyph-name="mu" unicode="&#xb5;" horiz-adv-x="536" 
d="M84 -208l-1.00195 701.999l79 16v-359c0 -67.333 30.333 -101 91 -101c26.667 0 51.334 8.66699 74.001 26s40.334 38.666 53.001 63.999v353l77 13v-353c0 -46 4 -77 12 -93c4.66699 -9.33301 12 -18.666 22 -27.999l-50 -53c-30 24.667 -48 51.334 -54 80.001
c-38 -50.667 -90.667 -76 -158 -76c-30 0 -52.333 6.33301 -67 19v-195z" />
    <glyph glyph-name="mu" unicode="&#x3bc;" horiz-adv-x="536" 
d="M84 -208l-1.00195 701.999l79 16v-359c0 -67.333 30.333 -101 91 -101c26.667 0 51.334 8.66699 74.001 26s40.334 38.666 53.001 63.999v353l77 13v-353c0 -46 4 -77 12 -93c4.66699 -9.33301 12 -18.666 22 -27.999l-50 -53c-30 24.667 -48 51.334 -54 80.001
c-38 -50.667 -90.667 -76 -158 -76c-30 0 -52.333 6.33301 -67 19v-195z" />
    <glyph glyph-name="paragraph" unicode="&#xb6;" horiz-adv-x="600" 
d="M292 -126v441.999c-57.333 0 -106 16.333 -146 49c-42 34.667 -63 80.334 -63 137.001c0 67.333 21.667 119 65 155c40 34 94.333 51 163 51h243v-834h-72v768h-118v-768h-72z" />
    <glyph glyph-name="ch270" unicode="&#xb7;" horiz-adv-x="249" 
d="M38 348c0 22.667 7.66699 41.667 23 57s34.333 23 57 23s41.834 -7.66699 57.501 -23s23.5 -34.333 23.5 -57s-7.83301 -41.834 -23.5 -57.501s-34.834 -23.5 -57.501 -23.5s-41.667 7.83301 -57 23.5s-23 34.834 -23 57.501z" />
    <glyph glyph-name="ch270" unicode="&#x2219;" horiz-adv-x="249" 
d="M38 348c0 22.667 7.66699 41.667 23 57s34.333 23 57 23s41.834 -7.66699 57.501 -23s23.5 -34.333 23.5 -57s-7.83301 -41.834 -23.5 -57.501s-34.834 -23.5 -57.501 -23.5s-41.667 7.83301 -57 23.5s-23 34.834 -23 57.501z" />
    <glyph glyph-name="cedilla" unicode="&#xb8;" horiz-adv-x="429" 
d="M208 12l59 -7l-12 -47c43.333 -6 65 -30 65 -72c0 -25.333 -9.83301 -45.5 -29.5 -60.5s-42.5 -22.5 -68.5 -22.5c-25.333 0 -52.666 8 -81.999 24l21 47c23.333 -10.667 43.666 -16 60.999 -16c24 0 36 10 36 30c0 19.333 -12.667 29 -38 29
c-11.333 0 -24 -0.666992 -38 -2z" />
    <glyph glyph-name="ordmasculine" unicode="&#xba;" horiz-adv-x="392" 
d="M33 566c0 56 12.334 101.332 37.001 135.999c27.333 39.333 68 59 122 59c56.667 0 99 -20.667 127 -62c24 -35.333 36 -82.666 36 -141.999c0 -54.667 -13 -99 -39 -133c-28.667 -38 -69.334 -57 -122.001 -57c-54.667 0 -96 20.333 -124 61
c-24.667 35.333 -37 81.333 -37 138zM38.001 239.999v54h313v-54h-313zM267.001 659.999c-15.333 30.667 -40.667 46 -76 46c-59.333 0 -89 -44 -89 -132c0 -100.667 31.333 -151 94 -151c40 0 66.333 20 79 60c5.33301 16.667 8 40.334 8 71.001
c0 49.333 -5.33301 84.666 -16 105.999z" />
    <glyph glyph-name="guillemotright" unicode="&#xbb;" horiz-adv-x="500" 
d="M58 62l117 178l-117 178l55 36l143 -214l-143 -214zM244 62l117 178l-117 178l55 36l143 -214l-143 -214z" />
    <glyph glyph-name="questiondown" unicode="&#xbf;" horiz-adv-x="333" 
d="M136 297c22.667 18 37.332 35.668 43.999 53.001c4 10.667 6 30.334 6 59.001c0 16 -2 33.333 -6 52h67c6 -24 9 -46.667 9 -68c0 -58.667 -18.667 -103 -56 -133l-60 -48c-20 -20 -30 -44.333 -30 -73c0 -25.333 8.66699 -45.5 26 -60.5s38.666 -22.5 63.999 -22.5
c32 0 64 8 96 24c4.66699 2 18 9.33301 40 22l33 -55c-51.333 -39.333 -112.666 -59 -183.999 -59c-46 0 -83.167 13.167 -111.5 39.5s-42.5 62.166 -42.5 107.499c0 41.333 15.333 79 46 113c4.66699 5.33301 24.334 21.666 59.001 48.999zM273.998 628.001
c0 -18.667 -6.5 -34.498 -19.5 -47.498s-28.833 -19.5 -47.5 -19.5s-34.667 6.5 -48 19.5s-20 28.833 -20 47.5c0 19.333 6.33301 35.666 19 48.999s28.667 20 48 20c18.667 0 34.667 -6.83301 48 -20.5s20 -29.834 20 -48.501z" />
    <glyph glyph-name="Agrave" unicode="&#xc0;" 
d="M233 686h107l227 -686h-93l-65 211h-256l-66 -211h-83zM249 513l-73 -235h212l-105 336zM125 915l186 -127l-24 -32l-201 90z" />
    <glyph glyph-name="Aacute" unicode="&#xc1;" 
d="M233 686h107l227 -686h-93l-65 211h-256l-66 -211h-83zM249 513l-73 -235h212l-105 336zM263 787l186 127l39 -69l-202 -90z" />
    <glyph glyph-name="Acircumflex" unicode="&#xc2;" 
d="M233 686h107l227 -686h-93l-65 211h-256l-66 -211h-83zM249 513l-73 -235h212l-105 336zM175 716l-24 35l136 108l136 -108l-28 -35l-112 68z" />
    <glyph glyph-name="Atilde" unicode="&#xc3;" 
d="M233 686h107l227 -686h-93l-65 211h-256l-66 -211h-83zM249 513l-73 -235h212l-105 336zM437 847l3.00098 -38c-43.333 -32 -86 -48 -128 -48c-11.333 0 -27.666 5 -48.999 15s-37.666 15 -48.999 15c-14.667 0 -40 -12 -76 -36l-3 38c43.333 32 85.666 48 126.999 48
c11.333 0 27.666 -5 48.999 -15s37.666 -15 48.999 -15c14 0 39.667 12 77 36z" />
    <glyph glyph-name="Adieresis" unicode="&#xc4;" 
d="M233 686h107l227 -686h-93l-65 211h-256l-66 -211h-83zM249 513l-73 -235h212l-105 336zM131 781c0 14 5.00098 26.001 15.001 36.001s22 15 36 15c14.667 0 27 -4.83301 37 -14.5s15 -21.834 15 -36.501s-4.83301 -27.167 -14.5 -37.5s-21.834 -15.5 -36.501 -15.5
s-27 5.16699 -37 15.5s-15 22.833 -15 37.5zM337.001 781.001c0 14.667 5.00098 26.833 15.001 36.5s22.333 14.5 37 14.5c14 0 26.167 -5 36.5 -15s15.5 -22 15.5 -36c0 -14.667 -4.83301 -27.167 -14.5 -37.5s-21.834 -15.5 -36.501 -15.5s-27.167 5.16699 -37.5 15.5
s-15.5 22.833 -15.5 37.5z" />
    <glyph glyph-name="Aring" unicode="&#xc5;" 
d="M233 686h107l227 -686h-93l-65 211h-256l-66 -211h-83zM249 513l-73 -235h212l-105 336zM180 819c0 28.667 10.5 53.5 31.5 74.5s45.833 31.5 74.5 31.5c29.333 0 54 -10.333 74 -31s30 -45.667 30 -75s-10.333 -54.333 -31 -75s-45.667 -31 -75 -31s-54 10.333 -74 31
s-30 45.667 -30 75zM287 879c-16.667 0 -31.167 -5.83203 -43.5 -17.499s-18.5 -25.834 -18.5 -42.501c0 -16 5.83301 -30 17.5 -42s25.5 -18 41.5 -18s30 6 42 18s18 26 18 42s-5.5 30 -16.5 42s-24.5 18 -40.5 18z" />
    <glyph glyph-name="AE" unicode="&#xc6;" horiz-adv-x="920" 
d="M474 0v211h-236l-130 -211h-89l424 681h406l-11 -68h-281v-222h235v-71h-235v-249h302v-71h-385zM474 603l-195 -325h195v325z" />
    <glyph glyph-name="Ccedilla" unicode="&#xc7;" horiz-adv-x="536" 
d="M253 -75l18.9971 70.001c-75.333 16 -132.666 59.333 -171.999 130c-34.667 61.333 -52 133.333 -52 216c0 94 24 174.333 72 241c53.333 75.333 125.333 113 216 113c66.667 0 124.334 -18.667 173.001 -56l-44 -53c-39.333 28.667 -82.666 43 -129.999 43
c-78.667 0 -135 -39.333 -169 -118c-19.333 -44.667 -29 -105.334 -29 -182.001c0 -60.667 7.33301 -109 22 -145c34 -84 95.333 -126 184 -126c48 0 92.667 14.667 134 44l44 -57c-57.333 -37.333 -121 -56 -191 -56l-7 -31c43.333 -6 65 -30 65 -72
c0 -25.333 -9.83301 -45.5 -29.5 -60.5s-42.5 -22.5 -68.5 -22.5c-25.333 0 -52.666 8 -81.999 24l21 47c23.333 -10.667 43.666 -16 60.999 -16c24 0 36 10 36 30c0 19.333 -12.667 29 -38 29c-8 0 -16.667 -0.666992 -26 -2z" />
    <glyph glyph-name="Egrave" unicode="&#xc8;" horiz-adv-x="518" 
d="M92 0v681h375l-11 -68h-281v-222h235v-71h-235v-249h302v-71h-385zM118 916l186 -127l-24 -32l-201 90z" />
    <glyph glyph-name="Eacute" unicode="&#xc9;" horiz-adv-x="518" 
d="M92 0v681h375l-11 -68h-281v-222h235v-71h-235v-249h302v-71h-385zM256 789l186 127l39 -69l-202 -90z" />
    <glyph glyph-name="Ecircumflex" unicode="&#xca;" horiz-adv-x="518" 
d="M92 0v681h375l-11 -68h-281v-222h235v-71h-235v-249h302v-71h-385zM168 731l-24 35l136 108l136 -108l-28 -35l-112 68z" />
    <glyph glyph-name="Edieresis" unicode="&#xcb;" horiz-adv-x="518" 
d="M92 0v681h375l-11 -68h-281v-222h235v-71h-235v-249h302v-71h-385zM131 781c0 14 5.00098 26.001 15.001 36.001s22 15 36 15c14.667 0 27 -4.83301 37 -14.5s15 -21.834 15 -36.501s-4.83301 -27.167 -14.5 -37.5s-21.834 -15.5 -36.501 -15.5s-27 5.16699 -37 15.5
s-15 22.833 -15 37.5zM337.001 781.001c0 14.667 5.00098 26.833 15.001 36.5s22.333 14.5 37 14.5c14 0 26.167 -5 36.5 -15s15.5 -22 15.5 -36c0 -14.667 -4.83301 -27.167 -14.5 -37.5s-21.834 -15.5 -36.501 -15.5s-27.167 5.16699 -37.5 15.5s-15.5 22.833 -15.5 37.5z
" />
    <glyph glyph-name="Igrave" unicode="&#xcc;" horiz-adv-x="268" 
d="M94 0v686h80v-686h-80zM-28 915l186 -127l-24 -32l-201 90z" />
    <glyph glyph-name="Iacute" unicode="&#xcd;" horiz-adv-x="268" 
d="M94 0v686h80v-686h-80zM109 787l186 127l39 -69l-202 -90z" />
    <glyph glyph-name="Icircumflex" unicode="&#xce;" horiz-adv-x="268" 
d="M94 0v686h80v-686h-80zM3 721l-31 44l170 135l171 -135l-36 -44l-139 85z" />
    <glyph glyph-name="Idieresis" unicode="&#xcf;" horiz-adv-x="268" 
d="M94 0v686h80v-686h-80zM-19 781c0 14 5.00098 26.001 15.001 36.001s22 15 36 15c14.667 0 27 -4.83301 37 -14.5s15 -21.834 15 -36.501s-4.83301 -27.167 -14.5 -37.5s-21.834 -15.5 -36.501 -15.5s-27 5.16699 -37 15.5s-15 22.833 -15 37.5zM187.001 781.001
c0 14.667 5.00098 26.833 15.001 36.5s22.333 14.5 37 14.5c14 0 26.167 -5 36.5 -15s15.5 -22 15.5 -36c0 -14.667 -4.83301 -27.167 -14.5 -37.5s-21.834 -15.5 -36.501 -15.5s-27.167 5.16699 -37.5 15.5s-15.5 22.833 -15.5 37.5z" />
    <glyph glyph-name="Ntilde" unicode="&#xd1;" horiz-adv-x="624" 
d="M85 0l0.000976562 684.001h95l228 -437c17.333 -32.667 38.666 -80.334 63.999 -143.001c-2.66699 35.333 -5.66699 104.666 -9 207.999l-3 372h81v-684h-86l-220 419c-36.667 70.667 -62.667 125.334 -78 164.001c5.33301 -64 8.33301 -126 9 -186l4 -397h-85z
M460.001 861.001l28 -45c-34 -42 -74.333 -63 -121 -63c-15.333 0 -36.666 6.16699 -63.999 18.5s-48.333 18.5 -63 18.5c-21.333 0 -44.333 -13 -69 -39l-28 45c33.333 42 73.333 63 120 63c15.333 0 36.666 -6.16699 63.999 -18.5s48.333 -18.5 63 -18.5
c22 0 45.333 13 70 39z" />
    <glyph glyph-name="Ograve" unicode="&#xd2;" horiz-adv-x="661" 
d="M57 346c0 98.667 20.333 179 61 241c48 74 118.667 111 212 111c97.333 0 170 -38.667 218 -116c40 -64 60 -147.333 60 -250c0 -125.333 -33.333 -218.333 -100 -279c-48.667 -44 -106.667 -66 -174 -66c-95.333 0 -167 37.667 -215 113c-41.333 64 -62 146 -62 246z
M483 538c-30 62.667 -80.999 94 -152.999 94c-121.333 0 -182 -89.667 -182 -269c0 -109.333 14.667 -189 44 -239c12.667 -22 34 -40 64 -54c27.333 -13.333 54.666 -20 81.999 -20c118.667 0 178 90 178 270c0 99.333 -11 172 -33 218zM169.001 925l186 -127l-24 -32
l-201 90z" />
    <glyph glyph-name="Oacute" unicode="&#xd3;" horiz-adv-x="661" 
d="M57 346c0 98.667 20.333 179 61 241c48 74 118.667 111 212 111c97.333 0 170 -38.667 218 -116c40 -64 60 -147.333 60 -250c0 -125.333 -33.333 -218.333 -100 -279c-48.667 -44 -106.667 -66 -174 -66c-95.333 0 -167 37.667 -215 113c-41.333 64 -62 146 -62 246z
M483 538c-30 62.667 -80.999 94 -152.999 94c-121.333 0 -182 -89.667 -182 -269c0 -109.333 14.667 -189 44 -239c12.667 -22 34 -40 64 -54c27.333 -13.333 54.666 -20 81.999 -20c118.667 0 178 90 178 270c0 99.333 -11 172 -33 218zM306.001 797l186 127l39 -69
l-202 -90z" />
    <glyph glyph-name="Ocircumflex" unicode="&#xd4;" horiz-adv-x="661" 
d="M57 346c0 98.667 20.333 179 61 241c48 74 118.667 111 212 111c97.333 0 170 -38.667 218 -116c40 -64 60 -147.333 60 -250c0 -125.333 -33.333 -218.333 -100 -279c-48.667 -44 -106.667 -66 -174 -66c-95.333 0 -167 37.667 -215 113c-41.333 64 -62 146 -62 246z
M483 538c-30 62.667 -80.999 94 -152.999 94c-121.333 0 -182 -89.667 -182 -269c0 -109.333 14.667 -189 44 -239c12.667 -22 34 -40 64 -54c27.333 -13.333 54.666 -20 81.999 -20c118.667 0 178 90 178 270c0 99.333 -11 172 -33 218zM222.001 730l-24 35l136 108
l136 -108l-28 -35l-112 68z" />
    <glyph glyph-name="Otilde" unicode="&#xd5;" horiz-adv-x="661" 
d="M57 346c0 98.667 20.333 179 61 241c48 74 118.667 111 212 111c97.333 0 170 -38.667 218 -116c40 -64 60 -147.333 60 -250c0 -125.333 -33.333 -218.333 -100 -279c-48.667 -44 -106.667 -66 -174 -66c-95.333 0 -167 37.667 -215 113c-41.333 64 -62 146 -62 246z
M483 538c-30 62.667 -80.999 94 -152.999 94c-121.333 0 -182 -89.667 -182 -269c0 -109.333 14.667 -189 44 -239c12.667 -22 34 -40 64 -54c27.333 -13.333 54.666 -20 81.999 -20c118.667 0 178 90 178 270c0 99.333 -11 172 -33 218zM480.001 858l3.00098 -38
c-43.333 -32 -86 -48 -128 -48c-11.333 0 -27.666 5 -48.999 15s-37.666 15 -48.999 15c-14.667 0 -40 -12 -76 -36l-3 38c43.333 32 85.666 48 126.999 48c11.333 0 27.666 -5 48.999 -15s37.666 -15 48.999 -15c14 0 39.667 12 77 36z" />
    <glyph glyph-name="Odieresis" unicode="&#xd6;" horiz-adv-x="661" 
d="M57 346c0 98.667 20.334 179 61.001 241c48 74 118.667 111 212 111c97.333 0 170 -38.667 218 -116c40 -64 60 -147.333 60 -250c0 -125.333 -33.333 -218.333 -100 -279c-48.667 -44 -106.667 -66 -174 -66c-94.667 0 -166.334 37.667 -215.001 113
c-41.333 64 -62 146 -62 246zM483.001 538c-30 62.667 -80.999 94 -152.999 94c-71.333 0 -121.333 -29 -150 -87c-21.333 -42 -32 -102.667 -32 -182c0 -110 14.667 -189.667 44 -239c12.667 -22 34 -40 64 -54c27.333 -13.333 54.666 -20 81.999 -20
c118.667 0 178 90 178 270c0 99.333 -11 172 -33 218zM191.002 781c0 14 5.00098 26.001 15.001 36.001s22 15 36 15c14.667 0 27 -4.83301 37 -14.5s15 -21.834 15 -36.501s-4.83301 -27.167 -14.5 -37.5s-21.834 -15.5 -36.501 -15.5s-27 5.16699 -37 15.5
s-15 22.833 -15 37.5zM397.003 781.001c0 14.667 5.00098 26.833 15.001 36.5s22.333 14.5 37 14.5c14 0 26.167 -5 36.5 -15s15.5 -22 15.5 -36c0 -14.667 -4.83301 -27.167 -14.5 -37.5s-21.834 -15.5 -36.501 -15.5s-27.167 5.16699 -37.5 15.5s-15.5 22.833 -15.5 37.5z
" />
    <glyph glyph-name="multiply" unicode="&#xd7;" horiz-adv-x="500" 
d="M124 73l-51 51l126 126l-126 126l51 51l126 -126l126 126l51 -51l-126 -126l126 -126l-51 -51l-126 126z" />
    <glyph glyph-name="Oslash" unicode="&#xd8;" horiz-adv-x="661" 
d="M330 698c58.667 0 110.334 -15.668 155.001 -47.001l64 107l53 -32l-71 -119l15 -21c41.333 -62 62 -146.667 62 -254c0 -125.333 -33.333 -218.333 -100 -279c-48.667 -44 -106.667 -66 -174 -66c-56.667 0 -106.334 15 -149.001 45l-68 -113l-52 32l74 123
c-54.667 62.667 -82 153.334 -82 272.001c0 98.667 20.333 179 61 241c48 74 118.667 111 212 111zM486 531.999l-265 -441c34 -27.333 73 -41 117 -41c118.667 0 178 90 178 270c0 93.333 -10 164 -30 212zM181 144.999l266 443c-31.333 29.333 -70.333 44 -117 44
c-71.333 0 -121.333 -29 -150 -87c-21.333 -42 -32 -102.667 -32 -182c0 -90 11 -162.667 33 -218z" />
    <glyph glyph-name="Ugrave" unicode="&#xd9;" horiz-adv-x="609" 
d="M79 207l0.000976562 478.999h81v-439c0 -48.667 2.33301 -83.667 7 -105c12 -56 58.333 -84 139 -84c56 0 95 13 117 39c20 24 30 64.333 30 121v468h81v-477c0 -43.333 -2 -73.666 -6 -90.999c-10.667 -46 -40 -80.333 -88 -103c-38 -18 -84 -27 -138 -27
c-102.667 0 -170.334 33 -203.001 99c-13.333 26.667 -20 66.667 -20 120zM147.001 888.999l186 -127l-24 -32l-201 90z" />
    <glyph glyph-name="Uacute" unicode="&#xda;" horiz-adv-x="609" 
d="M79 207l0.000976562 478.999h81v-439c0 -48.667 2.33301 -83.667 7 -105c12 -56 58.333 -84 139 -84c56 0 95 13 117 39c20 24 30 64.333 30 121v468h81v-477c0 -43.333 -2 -73.666 -6 -90.999c-10.667 -46 -40 -80.333 -88 -103c-38 -18 -84 -27 -138 -27
c-102.667 0 -170.334 33 -203.001 99c-13.333 26.667 -20 66.667 -20 120zM284.001 762.999l186 127l39 -69l-202 -90z" />
    <glyph glyph-name="Ucircumflex" unicode="&#xdb;" horiz-adv-x="609" 
d="M79 207l0.000976562 478.999h81v-439c0 -48.667 2.33301 -83.667 7 -105c12 -56 58.333 -84 139 -84c56 0 95 13 117 39c20 24 30 64.333 30 121v468h81v-477c0 -43.333 -2 -73.666 -6 -90.999c-10.667 -46.667 -40 -81 -88 -103c-38 -18 -84 -27 -138 -27
c-102.667 0 -170.334 33 -203.001 99c-13.333 26.667 -20 66.667 -20 120zM165.001 720.999l-31 44l170 135l171 -135l-36 -44l-139 85z" />
    <glyph glyph-name="Udieresis" unicode="&#xdc;" horiz-adv-x="609" 
d="M79 207l0.000976562 478.999h81v-439c0 -48.667 2.33301 -83.667 7 -105c12 -56 58.333 -84 139 -84c56 0 95 13 117 39c20 24 30 64.333 30 121v468h81v-477c0 -43.333 -2 -73.666 -6 -90.999c-10.667 -46.667 -40 -81 -88 -103c-38 -18 -84 -27 -138 -27
c-102.667 0 -170.334 33 -203.001 99c-13.333 26.667 -20 66.667 -20 120zM151.001 780.999c0 14 5.00098 26.001 15.001 36.001s22 15 36 15c14.667 0 27 -4.83301 37 -14.5s15 -21.834 15 -36.501s-4.83301 -27.167 -14.5 -37.5s-21.834 -15.5 -36.501 -15.5
s-27 5.16699 -37 15.5s-15 22.833 -15 37.5zM357.002 781c0 14.667 5.00098 26.833 15.001 36.5s22.333 14.5 37 14.5c14 0 26.167 -5 36.5 -15s15.5 -22 15.5 -36c0 -14.667 -4.83301 -27.167 -14.5 -37.5s-21.834 -15.5 -36.501 -15.5s-27.167 5.16699 -37.5 15.5
s-15.5 22.833 -15.5 37.5z" />
    <glyph glyph-name="Yacute" unicode="&#xdd;" horiz-adv-x="537" 
d="M227 272l-221 414h101l130 -262c17.333 -34.667 29 -60.334 35 -77.001c6 14.667 18.333 40.334 37 77.001l132 262h94l-223 -419v-267h-85v272zM248 763l186 127l39 -69l-202 -90z" />
    <glyph glyph-name="agrave" unicode="&#xe0;" horiz-adv-x="519" 
d="M211 522h100l193 -522h-90l-53 145h-210l-54 -145h-81zM258 451l-85 -240h169c-2 4 -30 84 -84 240zM112 724l168 -115l-22 -28l-181 80z" />
    <glyph glyph-name="aacute" unicode="&#xe1;" horiz-adv-x="519" 
d="M211 522h100l193 -522h-90l-53 145h-210l-54 -145h-81zM258 451l-85 -240h169c-2 4 -30 84 -84 240zM234 608l167 115l35 -63l-181 -80z" />
    <glyph glyph-name="acircumflex" unicode="&#xe2;" horiz-adv-x="519" 
d="M211 522h100l193 -522h-90l-53 145h-210l-54 -145h-81zM258 451l-85 -240h169c-2 4 -30 84 -84 240zM161 550l-22 32l123 97l122 -97l-25 -32l-101 62z" />
    <glyph glyph-name="atilde" unicode="&#xe3;" horiz-adv-x="519" 
d="M211 522h100l193 -522h-90l-53 145h-210l-54 -145h-81zM258 451l-85 -240h169c-2 4 -30 84 -84 240zM397 664l3.00293 -34c-38.667 -28.667 -77.334 -43 -116.001 -43c-10.667 0 -25.334 4.5 -44.001 13.5s-33.334 13.5 -44.001 13.5c-12 0 -34.667 -11 -68 -33l-3 34
c40 29.333 78 44 114 44c10.667 0 25.5 -4.5 44.5 -13.5s33.833 -13.5 44.5 -13.5c12.667 0 35.667 10.667 69 32z" />
    <glyph glyph-name="adieresis" unicode="&#xe4;" horiz-adv-x="519" 
d="M211 522h100l193 -522h-90l-53 145h-210l-54 -145h-81zM258 451l-85 -240h169c-2 4 -30 84 -84 240zM109 621c0 14 5.00098 26.001 15.001 36.001s22 15 36 15c14.667 0 27 -4.83301 37 -14.5s15 -21.834 15 -36.501s-4.83301 -27.167 -14.5 -37.5
s-21.834 -15.5 -36.501 -15.5s-27 5.16699 -37 15.5s-15 22.833 -15 37.5zM315.001 621.001c0 14.667 5.00098 26.833 15.001 36.5s22.333 14.5 37 14.5c14 0 26.167 -5 36.5 -15s15.5 -22 15.5 -36c0 -14.667 -4.83301 -27.167 -14.5 -37.5s-21.834 -15.5 -36.501 -15.5
s-27.167 5.16699 -37.5 15.5s-15.5 22.833 -15.5 37.5z" />
    <glyph glyph-name="aring" unicode="&#xe5;" horiz-adv-x="519" 
d="M211 522h100l193 -522h-90l-53 145h-210l-54 -145h-81zM258 451l-85 -240h169c-2 4 -30 84 -84 240zM153 659c0 28.667 10.5 53.5 31.5 74.5s45.833 31.5 74.5 31.5c29.333 0 54 -10.333 74 -31s30 -45.667 30 -75s-10.333 -54.333 -31 -75s-45.667 -31 -75 -31
s-54 10.333 -74 31s-30 45.667 -30 75zM260 719c-16.667 0 -31.167 -5.83203 -43.5 -17.499s-18.5 -25.834 -18.5 -42.501c0 -16 5.83301 -30 17.5 -42s25.5 -18 41.5 -18s30 6 42 18s18 26 18 42s-5.5 30 -16.5 42s-24.5 18 -40.5 18z" />
    <glyph glyph-name="ae" unicode="&#xe6;" horiz-adv-x="730" 
d="M348 0v145h-191l-93 -145h-86l333 520h362l-11 -67h-234v-148h196v-67h-195v-168h253v-70h-334zM197 211h151v245z" />
    <glyph glyph-name="ccedilla" unicode="&#xe7;" horiz-adv-x="488" 
d="M235 -75l18.999 72c-63.333 11.333 -113 41.666 -149 90.999c-34 46.667 -51 103 -51 169c0 76.667 23.5 141.5 70.5 194.5s108.167 79.5 183.5 79.5c59.333 0 108.333 -14 147 -42l-41 -54c-32.667 20.667 -67.667 31 -105 31c-68 0 -116 -29.333 -144 -88
c-14.667 -30.667 -22 -72 -22 -124c0 -57.333 13.667 -103.666 41 -138.999c30 -39.333 73 -59 129 -59c34.667 0 68.334 9 101.001 27c4 4 7.66699 6 11 6l40 -52c-40 -30 -90.333 -45 -151 -45l-9 -34c43.333 -6 65 -30 65 -72c0 -25.333 -9.83301 -45.5 -29.5 -60.5
s-42.5 -22.5 -68.5 -22.5c-25.333 0 -52.666 8 -81.999 24l21 47c23.333 -10.667 43.666 -16 60.999 -16c24 0 36 10 36 30c0 19.333 -12.667 29 -38 29c-8 0 -16.667 -0.666992 -26 -2z" />
    <glyph glyph-name="egrave" unicode="&#xe8;" horiz-adv-x="471" 
d="M90 0v520h325l-11 -67h-234v-148h196v-67h-195v-168h253v-70h-334zM112 724l168 -115l-22 -28l-181 80z" />
    <glyph glyph-name="eacute" unicode="&#xe9;" horiz-adv-x="471" 
d="M90 0v520h325l-11 -67h-234v-148h196v-67h-195v-168h253v-70h-334zM234 608l167 115l35 -63l-181 -80z" />
    <glyph glyph-name="ecircumflex" unicode="&#xea;" horiz-adv-x="471" 
d="M90 0v520h325l-11 -67h-234v-148h196v-67h-195v-168h253v-70h-334zM161 560l-22 32l123 97l122 -97l-25 -32l-101 62z" />
    <glyph glyph-name="edieresis" unicode="&#xeb;" horiz-adv-x="471" 
d="M90 0v520h325l-11 -67h-234v-148h196v-67h-195v-168h253v-70h-334zM100 621c0 14 5.00098 26.001 15.001 36.001s22 15 36 15c14.667 0 27 -4.83301 37 -14.5s15 -21.834 15 -36.501s-4.83301 -27.167 -14.5 -37.5s-21.834 -15.5 -36.501 -15.5s-27 5.16699 -37 15.5
s-15 22.833 -15 37.5zM306.001 621.001c0 14.667 5.00098 26.833 15.001 36.5s22.333 14.5 37 14.5c14 0 26.167 -5 36.5 -15s15.5 -22 15.5 -36c0 -14.667 -4.83301 -27.167 -14.5 -37.5s-21.834 -15.5 -36.501 -15.5s-27.167 5.16699 -37.5 15.5s-15.5 22.833 -15.5 37.5z
" />
    <glyph glyph-name="igrave" unicode="&#xec;" horiz-adv-x="263" 
d="M92 0v523h80v-523h-80zM-13 724l168 -115l-22 -28l-181 80z" />
    <glyph glyph-name="iacute" unicode="&#xed;" horiz-adv-x="263" 
d="M92 0v523h80v-523h-80zM110 609l167 115l35 -63l-181 -80z" />
    <glyph glyph-name="icircumflex" unicode="&#xee;" horiz-adv-x="263" 
d="M92 0v523h80v-523h-80zM-6 561l-31 44l170 135l171 -135l-36 -44l-139 85z" />
    <glyph glyph-name="idieresis" unicode="&#xef;" horiz-adv-x="263" 
d="M92 0v523h80v-523h-80zM-23 621c0 14 5.00098 26.001 15.001 36.001s22 15 36 15c14.667 0 27 -4.83301 37 -14.5s15 -21.834 15 -36.501s-4.83301 -27.167 -14.5 -37.5s-21.834 -15.5 -36.501 -15.5s-27 5.16699 -37 15.5s-15 22.833 -15 37.5zM183.001 621.001
c0 14.667 5.00098 26.833 15.001 36.5s22.333 14.5 37 14.5c14 0 26.167 -5 36.5 -15s15.5 -22 15.5 -36c0 -14.667 -4.83301 -27.167 -14.5 -37.5s-21.834 -15.5 -36.501 -15.5s-27.167 5.16699 -37.5 15.5s-15.5 22.833 -15.5 37.5z" />
    <glyph glyph-name="ntilde" unicode="&#xf1;" horiz-adv-x="624" 
d="M85 0v522.001h92l170 -284c0.666992 -0.666992 23 -41.334 67 -122.001c-2.66699 24 -5.66699 71.667 -9 143l-3 263h78v-522h-83l-168 277c-16.667 28 -41 73.333 -73 136c2.66699 -30.667 4.66699 -79 6 -145l5 -268h-82zM427 701.001l28 -45
c-34 -42 -74.333 -63 -121 -63c-15.333 0 -36.666 6.16699 -63.999 18.5s-48.333 18.5 -63 18.5c-21.333 0 -44.333 -13 -69 -39l-28 45c33.333 42 73.333 63 120 63c15.333 0 36.666 -6.16699 63.999 -18.5s48.333 -18.5 63 -18.5c22 0 45.333 13 70 39z" />
    <glyph glyph-name="ograve" unicode="&#xf2;" horiz-adv-x="596" 
d="M62 263c0 79.333 19.333 142.667 58 190c42 52 101.667 78 179 78c80.667 0 142 -26 184 -78c39.333 -48 59 -113 59 -195c0 -81.333 -18.667 -145 -56 -191c-40.667 -50.667 -101 -76 -181 -76c-78 0 -138.667 26.333 -182 79c-40.667 48.667 -61 113 -61 193z
M296 466.001c-55.333 0 -94.668 -19.332 -118.001 -57.999c-18 -30.667 -27 -75.667 -27 -135c0 -67.333 9 -118 27 -152c24.667 -45.333 67.667 -68 129 -68c56.667 0 96.334 19.667 119.001 59c17.333 30 26 75.333 26 136c0 67.333 -9 117.666 -27 150.999
c-24.667 44.667 -67.667 67 -129 67zM152.998 734.002l168 -115l-22 -28l-181 80z" />
    <glyph glyph-name="oacute" unicode="&#xf3;" horiz-adv-x="596" 
d="M62 263c0 79.333 19.333 142.667 58 190c42 52 101.667 78 179 78c80.667 0 142 -26 184 -78c39.333 -48 59 -113 59 -195c0 -81.333 -18.667 -145 -56 -191c-40.667 -50.667 -101 -76 -181 -76c-78 0 -138.667 26.333 -182 79c-40.667 48.667 -61 113 -61 193z
M296 466.001c-55.333 0 -94.668 -19.332 -118.001 -57.999c-18 -30.667 -27 -75.667 -27 -135c0 -67.333 9 -118 27 -152c24.667 -45.333 67.667 -68 129 -68c56.667 0 96.334 19.667 119.001 59c17.333 30 26 75.333 26 136c0 67.333 -9 117.666 -27 150.999
c-24.667 44.667 -67.667 67 -129 67zM276.998 618.002l167 115l35 -63l-181 -80z" />
    <glyph glyph-name="ocircumflex" unicode="&#xf4;" horiz-adv-x="596" 
d="M62 263c0 79.333 19.333 142.667 58 190c42 52 101.667 78 179 78c80.667 0 142 -26 184 -78c39.333 -48 59 -113 59 -195c0 -81.333 -18.667 -145 -56 -191c-40.667 -50.667 -101 -76 -181 -76c-78 0 -138.667 26.333 -182 79c-40.667 48.667 -61 113 -61 193z
M296 466.001c-55.333 0 -94.668 -19.332 -118.001 -57.999c-18 -30.667 -27 -75.667 -27 -135c0 -67.333 9 -118 27 -152c24.667 -45.333 67.667 -68 129 -68c56.667 0 96.334 19.667 119.001 59c17.333 30 26 75.333 26 136c0 67.333 -9 117.666 -27 150.999
c-24.667 44.667 -67.667 67 -129 67zM201.998 561.002l-22 32l123 97l122 -97l-25 -32l-101 62z" />
    <glyph glyph-name="otilde" unicode="&#xf5;" horiz-adv-x="596" 
d="M62 263c0 79.333 19.333 142.667 58 190c42 52 101.667 78 179 78c80.667 0 142 -26 184 -78c39.333 -48 59 -113 59 -195c0 -81.333 -18.667 -145 -56 -191c-40.667 -50.667 -101 -76 -181 -76c-78 0 -138.667 26.333 -182 79c-40.667 48.667 -61 113 -61 193z
M296 466.001c-55.333 0 -94.668 -19.332 -118.001 -57.999c-18 -30.667 -27 -75.667 -27 -135c0 -67.333 9 -118 27 -152c24.667 -45.333 67.667 -68 129 -68c56.667 0 96.334 19.667 119.001 59c17.333 30 26 75.333 26 136c0 67.333 -9 117.666 -27 150.999
c-24.667 44.667 -67.667 67 -129 67zM437.998 674.002l3.00293 -34c-38.667 -28.667 -77.334 -43 -116.001 -43c-10.667 0 -25.334 4.5 -44.001 13.5s-33.334 13.5 -44.001 13.5c-12 0 -34.667 -11 -68 -33l-3 34c40 29.333 78 44 114 44c10.667 0 25.5 -4.5 44.5 -13.5
s33.833 -13.5 44.5 -13.5c12.667 0 35.667 10.667 69 32z" />
    <glyph glyph-name="odieresis" unicode="&#xf6;" horiz-adv-x="596" 
d="M62 263c0 79.333 19.333 142.667 58 190c42 52 101.667 78 179 78c80 0 141.333 -26 184 -78c39.333 -48.667 59 -113.667 59 -195s-18.667 -145 -56 -191c-40.667 -50.667 -101 -76 -181 -76c-78 0 -138.667 26.333 -182 79c-40.667 48.667 -61 113 -61 193z
M296 466.001c-55.333 0 -94.668 -19.332 -118.001 -57.999c-18 -30.667 -27 -75.667 -27 -135c0 -68 9 -118.667 27 -152c24 -45.333 67 -68 129 -68c56.667 0 96.334 19.667 119.001 59c17.333 30 26 75.333 26 136c0 67.333 -9 117.666 -27 150.999
c-24.667 44.667 -67.667 67 -129 67zM144.998 621.002c0 14 5.00098 26.001 15.001 36.001s22 15 36 15c14.667 0 27 -4.83301 37 -14.5s15 -21.834 15 -36.501s-4.83301 -27.167 -14.5 -37.5s-21.834 -15.5 -36.501 -15.5s-27 5.16699 -37 15.5s-15 22.833 -15 37.5z
M350.999 621.003c0 14.667 5.00098 26.833 15.001 36.5s22.333 14.5 37 14.5c14 0 26.167 -5 36.5 -15s15.5 -22 15.5 -36c0 -14.667 -4.83301 -27.167 -14.5 -37.5s-21.834 -15.5 -36.501 -15.5s-27.167 5.16699 -37.5 15.5s-15.5 22.833 -15.5 37.5z" />
    <glyph glyph-name="oslash" unicode="&#xf8;" horiz-adv-x="596" 
d="M299 531c48.667 0 92 -11 130 -33l70 104l51 -35l-75 -108c44.667 -44.667 67 -111.667 67 -201c0 -81.333 -18.667 -145 -56 -191c-40.667 -50.667 -101 -76 -181 -76c-51.333 0 -93 9.66699 -125 29l-69 -103l-50 35l71 108c-46.667 52.667 -70 120.334 -70 203.001
c0 79.333 19.333 142.666 58 189.999c42 52 101.667 78 179 78zM429 389l-212.001 -314c24 -14.667 54 -22 90 -22c56.667 0 96.334 19.667 119.001 59c17.333 30 26 75.333 26 136c0 65.333 -7.66699 112.333 -23 141zM176.999 125l212.999 315
c-24 17.333 -55.333 26 -94 26c-55.333 0 -94.666 -19.333 -117.999 -58c-18 -30.667 -27 -75.667 -27 -135c0 -64 8.66699 -113.333 26 -148z" />
    <glyph glyph-name="ugrave" unicode="&#xf9;" horiz-adv-x="551" 
d="M78 190l-0.000976562 332h80v-313c0 -43.333 2.33301 -72.333 7 -87c13.333 -41.333 51 -62 113 -62c43.333 0 74.333 10.667 93 32c16.667 20 25 52 25 96v334h80v-332c0 -37.333 -2 -64.666 -6 -81.999c-9.33301 -41.333 -34 -72 -74 -92
c-32.667 -16.667 -72.667 -25 -120 -25c-103.333 0 -166.666 38 -189.999 114c-5.33301 17.333 -8 45.666 -8 84.999zM130.999 704l168 -115l-22 -28l-181 80z" />
    <glyph glyph-name="uacute" unicode="&#xfa;" horiz-adv-x="551" 
d="M78 190l-0.000976562 332h80v-313c0 -43.333 2.33301 -72.333 7 -87c13.333 -41.333 51 -62 113 -62c43.333 0 74.333 10.667 93 32c16.667 20 25 52 25 96v334h80v-332c0 -37.333 -2 -64.666 -6 -81.999c-9.33301 -41.333 -34 -72 -74 -92
c-32.667 -16.667 -72.667 -25 -120 -25c-103.333 0 -166.666 38 -189.999 114c-5.33301 17.333 -8 45.666 -8 84.999zM254.999 588l167 115l35 -63l-181 -80z" />
    <glyph glyph-name="ucircumflex" unicode="&#xfb;" horiz-adv-x="551" 
d="M78 190l-0.000976562 332h80v-313c0 -43.333 2.33301 -72.333 7 -87c13.333 -41.333 51 -62 113 -62c43.333 0 74.333 10.667 93 32c16.667 19.333 25 51.333 25 96v334h80v-332c0 -37.333 -2 -64.666 -6 -81.999c-9.33301 -41.333 -34 -72 -74 -92
c-32.667 -16.667 -72.667 -25 -120 -25c-103.333 0 -166.666 38 -189.999 114c-5.33301 17.333 -8 45.666 -8 84.999zM140.999 561l-31 44l170 135l171 -135l-36 -44l-139 85z" />
    <glyph glyph-name="udieresis" unicode="&#xfc;" horiz-adv-x="551" 
d="M78 190l-0.000976562 332h80v-313c0 -43.333 2.33301 -72.333 7 -87c13.333 -41.333 51 -62 113 -62c43.333 0 74.333 10.667 93 32c16.667 19.333 25 51.333 25 96v334h80v-332c0 -37.333 -2 -64.666 -6 -81.999c-9.33301 -41.333 -34 -72 -74 -92
c-32.667 -16.667 -72.667 -25 -120 -25c-103.333 0 -166.666 38 -189.999 114c-5.33301 17.333 -8 45.666 -8 84.999zM123.999 621c0 14 5.00098 26.001 15.001 36.001s22 15 36 15c14.667 0 27 -4.83301 37 -14.5s15 -21.834 15 -36.501s-4.83301 -27.167 -14.5 -37.5
s-21.834 -15.5 -36.501 -15.5s-27 5.16699 -37 15.5s-15 22.833 -15 37.5zM330 621.001c0 14.667 5.00098 26.833 15.001 36.5s22.333 14.5 37 14.5c14 0 26.167 -5 36.5 -15s15.5 -22 15.5 -36c0 -14.667 -4.83301 -27.167 -14.5 -37.5s-21.834 -15.5 -36.501 -15.5
s-27.167 5.16699 -37.5 15.5s-15.5 22.833 -15.5 37.5z" />
    <glyph glyph-name="yacute" unicode="&#xfd;" horiz-adv-x="493" 
d="M207 210l-188.999 313h98l105 -176c10.667 -17.333 20.667 -38 30 -62c7.33301 18.667 17.666 39 30.999 61l106 176h92l-190 -313v-209h-83v210zM229.001 588l167 115l35 -63l-181 -80z" />
    <glyph glyph-name="ydieresis" unicode="&#xff;" horiz-adv-x="463" 
d="M96 621c0 14 5.00098 26.001 15.001 36.001s22 15 36 15c14.667 0 27 -4.83301 37 -14.5s15 -21.834 15 -36.501s-4.83301 -27.167 -14.5 -37.5s-21.834 -15.5 -36.501 -15.5s-27 5.16699 -37 15.5s-15 22.833 -15 37.5zM302.001 621.001
c0 14.667 5.00098 26.833 15.001 36.5s22.333 14.5 37 14.5c14 0 26.167 -5 36.5 -15s15.5 -22 15.5 -36c0 -14.667 -4.83301 -27.167 -14.5 -37.5s-21.834 -15.5 -36.501 -15.5s-27.167 5.16699 -37.5 15.5s-15.5 22.833 -15.5 37.5zM207.002 210l-189 313h98l105 -176
c10.667 -18 20.667 -38.667 30 -62c8 20 18.333 40.333 31 61l106 176h92l-190 -313v-209h-83v210z" />
    <glyph glyph-name="glyph271" unicode="&#x102;" 
d="M233 686h107l227 -686h-93l-65 211h-256l-66 -211h-83zM249 513l-73 -235h212l-105 336zM406 849l24.999 -21.001c-11.333 -17.333 -28.666 -35.666 -51.999 -54.999c-34 -28.667 -65 -43 -93 -43c-46 0 -93.667 32.667 -143 98l28 21c38.667 -38.667 77 -58 115 -58
c30.667 0 70.667 19.333 120 58z" />
    <glyph glyph-name="glyph272" unicode="&#x103;" horiz-adv-x="519" 
d="M211 522h100l193 -522h-90l-53 145h-210l-54 -145h-81zM258 451l-85 -240h169c-2 4 -30 84 -84 240zM366 667l23 -19c-12 -16 -27.667 -32.333 -47 -49c-30.667 -26 -58.667 -39 -84 -39c-39.333 0 -82 29.333 -128 88l25 19c34.667 -34.667 69 -52 103 -52
c30.667 0 66.667 17.333 108 52z" />
    <glyph glyph-name="Cacute" unicode="&#x106;" horiz-adv-x="711" 
d="M338 695c66.667 0 124.332 -18.666 172.999 -55.999l-44 -53c-39.333 28.667 -82.666 43 -129.999 43c-78.667 0 -135 -39.333 -169 -118c-19.333 -44.667 -29 -105.334 -29 -182.001c0 -60.667 7.33301 -109 22 -145c34 -84 95.333 -126 184 -126
c48 0 92.667 14.667 134 44l44 -57c-57.333 -37.333 -121 -56 -191 -56c-92 0 -163.667 37 -215 111c-44.667 64.667 -67 145 -67 241c0 94 24 174.333 72 241c53.333 75.333 125.333 113 216 113zM225.998 867.001l207 130l43 -77l-224 -100z" />
    <glyph glyph-name="cacute" unicode="&#x107;" horiz-adv-x="441" 
d="M308 531c59.333 0 108.333 -14.001 147 -42.001l-41 -54c-32.667 20.667 -67.667 31 -105 31c-68 0 -116 -29.333 -144 -88c-14.667 -30.667 -22 -72 -22 -124c0 -57.333 13.667 -103.666 41 -138.999c30 -39.333 73 -59 129 -59c36 0 69.667 9 101 27
c2 1.33301 5.66699 3.33301 11 6l40 -52c-39.333 -30 -93.333 -45 -162 -45c-75.333 0 -136 25.667 -182 77c-44.667 49.333 -67 112 -67 188c0 76.667 23.5 141.5 70.5 194.5s108.167 79.5 183.5 79.5zM27 611.999l207 130l43 -77l-224 -100z" />
    <glyph glyph-name="Ccaron" unicode="&#x10c;" horiz-adv-x="711" 
d="M338 695c66.667 0 124.332 -18.666 172.999 -55.999l-44 -53c-39.333 28.667 -82.666 43 -129.999 43c-78.667 0 -135 -39.333 -169 -118c-19.333 -44.667 -29 -105.334 -29 -182.001c0 -60.667 7.33301 -109 22 -145c34 -84 95.333 -126 184 -126
c48 0 92.667 14.667 134 44l44 -57c-57.333 -37.333 -121 -56 -191 -56c-92 0 -163.667 37 -215 111c-44.667 64.667 -67 145 -67 241c0 94 24 174.333 72 241c53.333 75.333 125.333 113 216 113zM510.998 992.001l30.999 -44.001c-14.667 -22 -35 -43.667 -61 -65
c-40 -33.333 -76.333 -50 -109 -50c-33.333 0 -69.666 16.667 -108.999 50c-24 20.667 -44.667 42.334 -62 65.001l36 44c46 -43.333 92.333 -65 139 -65c36.667 0 81.667 21.667 135 65z" />
    <glyph glyph-name="ccaron" unicode="&#x10d;" horiz-adv-x="441" 
d="M308 531c59.333 0 108.333 -14.001 147 -42.001l-41 -54c-32.667 20.667 -67.667 31 -105 31c-68 0 -116 -29.333 -144 -88c-14.667 -30.667 -22 -72 -22 -124c0 -57.333 13.667 -103.666 41 -138.999c30 -39.333 73 -59 129 -59c36 0 69.667 9 101 27
c2 1.33301 5.66699 3.33301 11 6l40 -52c-39.333 -30 -93.333 -45 -162 -45c-75.333 0 -136 25.667 -182 77c-44.667 49.333 -67 112 -67 188c0 76.667 23.5 141.5 70.5 194.5s108.167 79.5 183.5 79.5zM312 736.999l30.999 -44.001c-14.667 -22 -35 -43.667 -61 -65
c-40 -33.333 -76.333 -50 -109 -50c-33.333 0 -69.666 16.667 -108.999 50c-24 20.667 -44.667 42.334 -62 65.001l36 44c46 -43.333 92.333 -65 139 -65c36.667 0 81.667 21.667 135 65z" />
    <glyph glyph-name="Dslash" unicode="&#x110;" horiz-adv-x="625" 
d="M172 357l154 0.000976562v-50h-154v-239h73c36 0 64 1.66699 84 5c44 7.33301 77 29.333 99 66c30.667 50.667 46 114 46 190c0 153.333 -44 244.666 -132 273.999c-20 6.66699 -49.333 10 -88 10h-82v-256zM90 307.001h-67.999v50h68v323h137
c58 0 99.333 -2.66699 124 -8c31.333 -6.66699 63.333 -21.667 96 -45c77.333 -55.333 116 -151.333 116 -288c0 -111.333 -26 -196 -78 -254c-30.667 -34.667 -63 -58 -97 -70c-28.667 -10 -68.334 -15 -119.001 -15h-179v307z" />
    <glyph glyph-name="dcroat" unicode="&#x111;" horiz-adv-x="562" 
d="M168 278h112v-44h-112v-168h64c26.667 0 49 2 67 6c75.333 16.667 113 77.667 113 183c0 132 -59.333 198 -178 198h-66v-175zM88 234l-49.999 0.00195312v44h50v241h118c37.333 0 68.666 -1.33301 93.999 -4c44.667 -4.66699 84.667 -22 120 -52
c52.667 -44.667 79 -112.334 79 -203.001c0 -78.667 -22 -142.334 -66 -191.001c-36 -39.333 -76.333 -61.333 -121 -66c-19.333 -2 -43.333 -3 -72 -3h-152v234z" />
    <glyph glyph-name="Gbreve" unicode="&#x11e;" horiz-adv-x="767" 
d="M339 692c72.667 0 135.332 -22.668 187.999 -68.001l-37 -51c-52 35.333 -101.667 53 -149 53c-86.667 0 -143.667 -38.667 -171 -116c-18 -50.667 -27 -108.667 -27 -174c0 -92 16 -161.333 48 -208c16 -23.333 40.667 -41.666 74 -54.999c30 -12 60.667 -18 92 -18
c44 0 80.333 9 109 27v209h-138l-16 68h231v-320c-53.333 -34.667 -117.666 -52 -192.999 -52c-99.333 0 -175 35 -227 105c-46 62 -69 144.333 -69 247c0 129.333 35.333 225.333 106 288c49.333 43.333 109 65 179 65zM529.998 991.999l31 -44l-170 -135l-171 135l36 44
l139 -85z" />
    <glyph glyph-name="gbreve" unicode="&#x11f;" horiz-adv-x="492" 
d="M306 528c61.333 0 117.002 -18.333 167.002 -55l-38 -51c-44 27.333 -86.333 41 -127 41c-71.333 0 -118 -25 -140 -75c-16 -36 -24 -79.667 -24 -131c0 -89.333 25.333 -148 76 -176c31.333 -17.333 65.666 -26 102.999 -26c35.333 0 63.666 5.66699 84.999 17v142h-114
l-13 67h204v-247c-46 -28 -101.667 -42 -167 -42c-82 0 -146.333 25 -193 75c-45.333 48 -68 113.333 -68 196c0 102 32.667 175.667 98 221c42 29.333 92.333 44 151 44zM330.002 737l31 -44l-170 -135l-171 135l36 44l139 -85z" />
    <glyph glyph-name="glyph273" unicode="&#x128;" horiz-adv-x="268" 
d="M94 0v686h80v-686h-80zM287 847l3.00098 -38c-43.333 -32 -86 -48 -128 -48c-11.333 0 -27.666 5 -48.999 15s-37.666 15 -48.999 15c-14.667 0 -40 -12 -76 -36l-3 38c43.333 32 85.666 48 126.999 48c11.333 0 27.666 -5 48.999 -15s37.666 -15 48.999 -15
c14 0 39.667 12 77 36z" />
    <glyph glyph-name="glyph274" unicode="&#x129;" horiz-adv-x="263" 
d="M92 0v523h80v-523h-80zM266 664l3.00293 -34c-38.667 -28.667 -77.334 -43 -116.001 -43c-10.667 0 -25.334 4.5 -44.001 13.5s-33.334 13.5 -44.001 13.5c-12 0 -34.667 -11 -68 -33l-3 34c40 29.333 78 44 114 44c10.667 0 25.5 -4.5 44.5 -13.5
s33.833 -13.5 44.5 -13.5c12.667 0 35.667 10.667 69 32z" />
    <glyph glyph-name="Idotaccent" unicode="&#x130;" horiz-adv-x="429" 
d="M94 0v686h80v-686h-80zM90 906c0 17.333 5.83301 31.999 17.5 43.999s26.167 18 43.5 18s31.833 -5.83301 43.5 -17.5s17.5 -26.167 17.5 -43.5s-5.83301 -31.833 -17.5 -43.5s-26.167 -17.5 -43.5 -17.5c-16.667 0 -31 5.83301 -43 17.5s-18 25.834 -18 42.501z" />
    <glyph glyph-name="dotlessi" unicode="&#x131;" horiz-adv-x="263" 
d="M92 0v523h80v-523h-80z" />
    <glyph glyph-name="OE" unicode="&#x152;" horiz-adv-x="846" 
d="M817 0l-440 -1.00098c-59.333 0 -100.666 2.66699 -123.999 8c-32 7.33301 -64 22.333 -96 45c-77.333 55.333 -116 151.333 -116 288c0 111.333 26 196 78 254c31.333 34.667 63.666 58.334 96.999 71.001c29.333 10.667 69 16 119 16h472l-11 -68h-281v-222h235v-71
h-235v-249h302v-71zM318 65.999c49.333 0 87.333 2 114 6v532c-36 4.66699 -65.333 7 -88 7c-83.333 0 -139.333 -23.667 -168 -71c-30.667 -50.667 -46 -114 -46 -190s12.333 -138.667 37 -188c32 -64 82.333 -96 151 -96z" />
    <glyph glyph-name="oe" unicode="&#x153;" horiz-adv-x="774" 
d="M321 519l72.002 -0.000976562v1h325l-11 -67h-234v-148h196v-67h-195v-168h253v-70h-372c-10.667 0 -26.334 0.666992 -47.001 2s-36.334 2 -47.001 2c-45.333 5.33301 -85.333 22.666 -120 51.999c-52.667 44.667 -79 112.334 -79 203.001
c0 78.667 22 142.334 66 191.001c36 40 76.333 62 121 66c8 0 20 0.5 36 1.5s28 1.5 36 1.5zM327.002 65.999h66v387h-64c-26.667 0 -49 -2 -67 -6c-75.333 -16.667 -113 -77.667 -113 -183c0 -132 59.333 -198 178 -198z" />
    <glyph glyph-name="Scedilla" unicode="&#x15e;" horiz-adv-x="656" 
d="M277 701c73.333 0 142.333 -22.0029 207 -66.0029l-36 -59c-59.333 38.667 -115 58 -167 58c-40 0 -72 -8.66699 -96 -26c-27.333 -19.333 -41 -48.333 -41 -87c0 -50.667 38 -88 114 -112l79 -25c110.667 -35.333 166 -98.666 166 -189.999c0 -68 -31.667 -123 -95 -165
c-42 -28 -93.333 -42 -154 -42c-80 0 -153.333 20.667 -220 62l36 64c54.667 -39.333 116 -59 184 -59c44 0 80.333 10 109 30c32.667 22.667 49 55.334 49 98.001c0 60.667 -41 103.334 -123 128.001l-69 21c-60 18 -100.667 38.333 -122 61c-28.667 30 -43 67.333 -43 112
c0 62 22 111 66 147c40.667 33.333 92.667 50 156 50zM247 11.9971l59 -7l-12 -47c43.333 -6 65 -30 65 -72c0 -25.333 -9.83301 -45.5 -29.5 -60.5s-42.5 -22.5 -68.5 -22.5c-25.333 0 -52.666 8 -81.999 24l21 47c23.333 -10.667 43.666 -16 60.999 -16c24 0 36 10 36 30
c0 19.333 -12.667 29 -38 29c-11.333 0 -24 -0.666992 -38 -2z" />
    <glyph glyph-name="scedilla" unicode="&#x15f;" horiz-adv-x="383" 
d="M253 535c74 0 135 -17 183 -51l-36 -58c-47.333 28.667 -95 43 -143 43c-28.667 0 -53 -5.33301 -73 -16c-25.333 -13.333 -38 -33 -38 -59s16 -45.667 48 -59c6.66699 -2.66699 21.334 -7.66699 44.001 -15l71 -19c94.667 -25.333 142 -74.333 142 -147
c0 -58.667 -28.333 -103.667 -85 -135c-36 -20 -80.333 -30 -133 -30c-70 0 -134.333 16 -193 48l33 63c54 -29.333 109 -44 165 -44c31.333 0 58.666 6.33301 81.999 19c28.667 15.333 43 37.333 43 66c0 40 -33.667 68.667 -101 86l-77 20
c-35.333 9.33301 -64.333 25 -87 47c-25.333 24.667 -38 54 -38 88c0 49.333 20.667 88 62 116c36 24.667 79.667 37 131 37zM150 12l59 -7l-12 -47c43.333 -6 65 -30 65 -72c0 -25.333 -9.83301 -45.5 -29.5 -60.5s-42.5 -22.5 -68.5 -22.5c-25.333 0 -52.666 8 -81.999 24
l21 47c23.333 -10.667 43.666 -16 60.999 -16c24 0 36 10 36 30c0 19.333 -12.667 29 -38 29c-11.333 0 -24 -0.666992 -38 -2z" />
    <glyph glyph-name="ch903" unicode="&#x168;" horiz-adv-x="609" 
d="M79 207l0.000976562 478.999h81v-439c0 -48.667 2.33301 -83.667 7 -105c12 -56 58.333 -84 139 -84c56 0 95 13 117 39c20 24 30 64.333 30 121v468h81v-477c0 -43.333 -2 -73.666 -6 -90.999c-10.667 -46 -40 -80.333 -88 -103c-38 -18 -84 -27 -138 -27
c-102.667 0 -170.334 33 -203.001 99c-13.333 26.667 -20 66.667 -20 120zM456.001 821.999l3.00098 -38c-43.333 -32 -86 -48 -128 -48c-11.333 0 -27.666 5 -48.999 15s-37.666 15 -48.999 15c-14.667 0 -40 -12 -76 -36l-3 38c43.333 32 85.666 48 126.999 48
c11.333 0 27.666 -5 48.999 -15s37.666 -15 48.999 -15c14 0 39.667 12 77 36z" />
    <glyph glyph-name="ch904" unicode="&#x169;" horiz-adv-x="551" 
d="M78 190l-0.000976562 332h80v-313c0 -43.333 2.33301 -72.333 7 -87c13.333 -41.333 51 -62 113 -62c43.333 0 74.333 10.667 93 32c16.667 20 25 52 25 96v334h80v-332c0 -37.333 -2 -64.666 -6 -81.999c-9.33301 -41.333 -34 -72 -74 -92
c-32.667 -16.667 -72.667 -25 -120 -25c-103.333 0 -166.666 38 -189.999 114c-5.33301 17.333 -8 45.666 -8 84.999zM411.999 644l3.00293 -34c-38.667 -28.667 -77.334 -43 -116.001 -43c-10.667 0 -25.334 4.5 -44.001 13.5s-33.334 13.5 -44.001 13.5
c-12 0 -34.667 -11 -68 -33l-3 34c40 29.333 78 44 114 44c10.667 0 25.5 -4.5 44.5 -13.5s33.833 -13.5 44.5 -13.5c12.667 0 35.667 10.667 69 32z" />
    <glyph glyph-name="Ydieresis" unicode="&#x178;" horiz-adv-x="537" 
d="M227 272l-221 413.999h101l130 -262c16.667 -33.333 28.334 -59 35.001 -77c5.33301 12.667 17.666 38.334 36.999 77.001l132 262h94l-223 -419v-267h-85v272zM111 780.999c0 14 5.00098 26.001 15.001 36.001s22 15 36 15c14.667 0 27 -4.83301 37 -14.5
s15 -21.834 15 -36.501s-4.83301 -27.167 -14.5 -37.5s-21.834 -15.5 -36.501 -15.5s-27 5.16699 -37 15.5s-15 22.833 -15 37.5zM317.001 781c0 14.667 5.00098 26.833 15.001 36.5s22.333 14.5 37 14.5c14 0 26.167 -5 36.5 -15s15.5 -22 15.5 -36
c0 -14.667 -4.83301 -27.167 -14.5 -37.5s-21.834 -15.5 -36.501 -15.5s-27.167 5.16699 -37.5 15.5s-15.5 22.833 -15.5 37.5z" />
    <glyph glyph-name="florin" unicode="&#x192;" horiz-adv-x="287" 
d="M-3 -142c39.333 24.667 64.332 51.668 74.999 81.001c4.66699 13.333 9 49.666 13 108.999l24 387h-46v59h50l6 82c4 53.333 24.667 94 62 122c22.667 17.333 51.334 26 86.001 26c39.333 0 74 -9.66699 104 -29l-33 -55c-24 15.333 -47 23 -69 23
c-43.333 0 -67.333 -29.333 -72 -88l-6 -81h134l-28 -59h-110l-25 -380c-5.33301 -76 -13 -126.667 -23 -152c-14.667 -35.333 -49.667 -69 -105 -101z" />
    <glyph glyph-name="glyph277" unicode="&#x1a0;" horiz-adv-x="661" 
d="M483 538c-30 62.667 -80.999 94 -152.999 94c-121.333 0 -182 -89.667 -182 -269c0 -109.333 14.667 -189 44 -239c12.667 -22 34 -40 64 -54c27.333 -13.333 54.666 -20 81.999 -20c118.667 0 178 90 178 270c0 99.333 -11 172 -33 218zM500.001 638
c72 -60.667 107.999 -162.668 107.999 -306.001c0 -125.333 -33.333 -218.333 -100 -279c-48.667 -44 -106.667 -66 -174 -66c-95.333 0 -167 37.667 -215 113c-41.333 64 -62 146 -62 246c0 98.667 20.333 179 61 241c48 74 118.667 111 212 111c32 0 60 -4 84 -12l76 -12
c20 3.33301 32.333 11 37 23h-5c-12 4.66699 -18 14 -18 28c0 22.667 12.667 34 38 34c10.667 0 19.334 -4.66699 26.001 -14s10 -19.666 10 -30.999c0 -22 -13 -40.333 -39 -55c-12.667 -10 -25.667 -17 -39 -21z" />
    <glyph glyph-name="glyph278" unicode="&#x1a1;" horiz-adv-x="596" 
d="M296 466c-55.333 0 -94.668 -19.332 -118.001 -57.999c-18 -30.667 -27 -75.667 -27 -135c0 -67.333 9 -118 27 -152c24.667 -45.333 67.667 -68 129 -68c56.667 0 96.334 19.667 119.001 59c17.333 30 26 75.333 26 136c0 67.333 -9 117.666 -27 150.999
c-24.667 44.667 -67.667 67 -129 67zM386.998 517.001h55c18.667 3.33301 30 10.333 34 21h-5c-11.333 4 -17 12 -17 24c0 3.33301 0.666992 6.33301 2 9c2.66699 14.667 13.667 22 33 22c9.33301 0 17 -4.33301 23 -13s9 -18 9 -28c0 -4 -0.333008 -7.66699 -1 -11
c-6.66699 -16 -18 -28.667 -34 -38c-12 -10 -24.667 -16.333 -38 -19c12 -7.33301 25 -19.666 39 -36.999c36.667 -44.667 55 -107.667 55 -189s-18.667 -145 -56 -191c-40.667 -50.667 -101 -76 -181 -76c-78 0 -138.667 26.333 -182 79c-40.667 48.667 -61 113 -61 193
c0 79.333 19.333 142.666 58 189.999c42 52 101.667 78 179 78c32 0 61.333 -4.66699 88 -14z" />
    <glyph glyph-name="glyph279" unicode="&#x1af;" horiz-adv-x="609" 
d="M534 637l0.000976562 -428.002c0 -43.333 -2 -73.666 -6 -90.999c-10.667 -46 -40 -80.333 -88 -103c-38 -18 -84 -27 -138 -27c-102.667 0 -170.334 33 -203.001 99c-13.333 26.667 -20 66.667 -20 120v479h81v-439c0 -48.667 2.33301 -83.667 7 -105
c12 -56 58.333 -84 139 -84c56 0 95 13 117 39c20 24 30 64.333 30 121v468l76 -12c20 3.33301 32.333 11 37 23h-5c-12 4.66699 -18 14 -18 28c0 22.667 12.667 34 38 34c10.667 0 19.334 -4.66699 26.001 -14s10 -19.666 10 -30.999c0 -22 -13 -40.333 -39 -55
c-12.667 -10.667 -27.334 -18 -44.001 -22z" />
    <glyph glyph-name="glyph280" unicode="&#x1b0;" horiz-adv-x="551" 
d="M476 484l-0.000976562 -294.001c0 -37.333 -2 -64.666 -6 -81.999c-9.33301 -41.333 -34 -72 -74 -92c-32.667 -16.667 -72.667 -25 -120 -25c-103.333 0 -166.666 38 -189.999 114c-5.33301 17.333 -8 45.666 -8 84.999v332h80v-313c0 -43.333 2.33301 -72.333 7 -87
c13.333 -41.333 51 -62 113 -62c43.333 0 74.333 10.667 93 32c16.667 20 25 52 25 96v334l76 -5c17.333 3.33301 28.333 10.333 33 21h-5c-11.333 4 -17 12 -17 24c0 3.33301 0.666992 6.33301 2 9c2.66699 14.667 13.667 22 33 22c9.33301 0 17 -4.33301 23 -13
s9 -18 9 -28c0 -4 -0.333008 -7.66699 -1 -11c-6.66699 -16 -18 -28.667 -34 -38c-12 -9.33301 -25 -15.666 -39 -18.999z" />
    <glyph glyph-name="circumflex" unicode="&#x2c6;" horiz-adv-x="402" 
d="M60 561l-31 44l170 135l171 -135l-36 -44l-139 85z" />
    <glyph glyph-name="caron" unicode="&#x2c7;" horiz-adv-x="402" 
d="M334 737l30.999 -44.001c-14.667 -22 -35 -43.667 -61 -65c-40 -33.333 -76.333 -50 -109 -50c-33.333 0 -69.666 16.667 -108.999 50c-24 20.667 -44.667 42.334 -62 65.001l36 44c46 -43.333 92.333 -65 139 -65c36.667 0 81.667 21.667 135 65z" />
    <glyph glyph-name="breve" unicode="&#x2d8;" horiz-adv-x="402" 
d="M334 737l31 -44l-170 -135l-171 135l36 44l139 -85z" />
    <glyph glyph-name="dotaccent" unicode="&#x2d9;" horiz-adv-x="249" 
d="M63 651c0 17.333 5.83301 31.999 17.5 43.999s26.167 18 43.5 18s31.833 -5.83301 43.5 -17.5s17.5 -26.167 17.5 -43.5s-5.83301 -31.833 -17.5 -43.5s-26.167 -17.5 -43.5 -17.5c-16.667 0 -31 5.83301 -43 17.5s-18 25.834 -18 42.501z" />
    <glyph glyph-name="ring" unicode="&#x2da;" horiz-adv-x="315" 
d="M51 659c0 28.667 10.5 53.5 31.5 74.5s45.833 31.5 74.5 31.5c29.333 0 54 -10.333 74 -31s30 -45.667 30 -75s-10.333 -54.333 -31 -75s-45.667 -31 -75 -31s-54 10.333 -74 31s-30 45.667 -30 75zM158 719c-16.667 0 -31.167 -5.83203 -43.5 -17.499
s-18.5 -25.834 -18.5 -42.501c0 -16 5.83301 -30 17.5 -42s25.5 -18 41.5 -18s30 6 42 18s18 26 18 42s-5.5 30 -16.5 42s-24.5 18 -40.5 18z" />
    <glyph glyph-name="ogonek" unicode="&#x2db;" horiz-adv-x="429" 
d="M191 17l50.999 -28.998c-36 -30.667 -54 -61.334 -54 -92.001c0 -24 12 -36 36 -36c20.667 0 41 4.66699 61 14l21 -47c-29.333 -16 -56.666 -24 -81.999 -24c-28 0 -51.333 7.66699 -70 23s-28 36.666 -28 63.999c0 50.667 21.667 93 65 127z" />
    <glyph glyph-name="tilde" unicode="&#x2dc;" horiz-adv-x="380" 
d="M331 701l28 -45c-34 -42 -74.333 -63 -121 -63c-15.333 0 -36.666 6.16699 -63.999 18.5s-48.333 18.5 -63 18.5c-21.333 0 -44.333 -13 -69 -39l-28 45c33.333 42 73.333 63 120 63c15.333 0 36.666 -6.16699 63.999 -18.5s48.333 -18.5 63 -18.5c22 0 45.333 13 70 39z
" />
    <glyph glyph-name="hungarumlaut" unicode="&#x2dd;" horiz-adv-x="428" 
d="M44 545l86 210l81 -33l-117 -198zM204 561l124 189l74 -47l-154 -173z" />
    <glyph glyph-name="glyph281" unicode="&#x1ea0;" 
d="M233 686h107l227 -686h-93l-65 211h-256l-66 -211h-83zM249 513l-73 -235h212l-105 336zM224 -76c0 15.333 5.5 28.5 16.5 39.5s24.167 16.5 39.5 16.5c16 0 29.667 -5.33301 41 -16s17 -24 17 -40s-5.33301 -29.833 -16 -41.5s-24 -17.5 -40 -17.5
s-29.667 5.83301 -41 17.5s-17 25.5 -17 41.5z" />
    <glyph glyph-name="glyph282" unicode="&#x1ea1;" horiz-adv-x="519" 
d="M211 522h100l193 -522h-90l-53 145h-210l-54 -145h-81zM258 451l-85 -240h169c-2 4 -30 84 -84 240zM207 -70c0 14 4.83301 25.833 14.5 35.5s21.5 14.5 35.5 14.5c14.667 0 27 -4.66699 37 -14s15 -21.333 15 -36c0 -14 -4.83301 -26.333 -14.5 -37s-21.5 -16 -35.5 -16
c-14.667 0 -27 5.16699 -37 15.5s-15 22.833 -15 37.5z" />
    <glyph glyph-name="glyph283" unicode="&#x1ea2;" 
d="M233 686h107l227 -686h-93l-65 211h-256l-66 -211h-83zM249 513l-73 -235h212l-105 336zM219 932c24.667 20 55.332 30 91.999 30c23.333 0 42.5 -7 57.5 -21s22.5 -32.333 22.5 -55c0 -20.667 -8.33301 -39 -25 -55c-12.667 -9.33301 -31 -24 -55 -44
c-7.33301 -8 -11 -17 -11 -27c0 -4.66699 0.666992 -9.66699 2 -15h-32c-3.33301 12.667 -5 23 -5 31c0 16 9 32.667 27 50c18 13.333 28.667 21.666 32 24.999c10.667 10.667 16 22.334 16 35.001c0 28 -16 42 -48 42c-14 0 -30 -4 -48 -12
c-9.33301 4.66699 -17.666 10 -24.999 16z" />
    <glyph glyph-name="glyph284" unicode="&#x1ea3;" horiz-adv-x="519" 
d="M211 522h100l193 -522h-90l-53 145h-210l-54 -145h-81zM258 451l-85 -240h169c-2 4 -30 84 -84 240zM194 748c23.333 18.667 52.333 28.001 87 28.001c22 0 40.167 -6.66699 54.5 -20s21.5 -30.666 21.5 -51.999c0 -20 -8 -37.667 -24 -53l-29 -22
c-22 -16.667 -33 -31.334 -33 -44.001c0 -4.66699 0.666992 -9.66699 2 -15h-31c-3.33301 11.333 -5 20.666 -5 27.999c0 14.667 8.66699 31 26 49c30.667 22.667 46 41.667 46 57c0 26.667 -15.333 40 -46 40c-13.333 0 -28.333 -4 -45 -12
c-8.66699 4.66699 -16.667 10 -24 16z" />
    <glyph glyph-name="glyph285" unicode="&#x1ea4;" 
d="M233 686h107l227 -686h-93l-65 211h-256l-66 -211h-83zM249 513l-73 -235h212l-105 336zM175 716l-24 35l136 108l136 -108l-28 -35l-112 68zM424 816l186 127l39 -69l-202 -90z" />
    <glyph glyph-name="glyph286" unicode="&#x1ea5;" horiz-adv-x="519" 
d="M211 522h100l193 -522h-90l-53 145h-210l-54 -145h-81zM258 451l-85 -240h169c-2 4 -30 84 -84 240zM161 550l-22 32l123 97l122 -97l-25 -32l-101 62zM385 640l167 115l35 -63l-181 -80z" />
    <glyph glyph-name="glyph287" unicode="&#x1ea6;" 
d="M233 686h107l227 -686h-93l-65 211h-256l-66 -211h-83zM249 513l-73 -235h212l-105 336zM175 716l-24 35l136 108l136 -108l-28 -35l-112 68zM-36 943l186 -127l-24 -32l-201 90z" />
    <glyph glyph-name="glyph288" unicode="&#x1ea7;" horiz-adv-x="519" 
d="M211 522h100l193 -522h-90l-53 145h-210l-54 -145h-81zM258 451l-85 -240h169c-2 4 -30 84 -84 240zM161 549l-21 32l122 97l122 -97l-25 -32l-101 62zM-29 754l168 -115l-22 -28l-181 80z" />
    <glyph glyph-name="glyph289" unicode="&#x1ea8;" 
d="M233 686h107l227 -686h-93l-65 211h-256l-66 -211h-83zM249 513l-73 -235h212l-105 336zM175 716l-24 35l136 108l136 -108l-28 -35l-112 68zM384 971c24.667 20 55.332 30 91.999 30c23.333 0 42.5 -7 57.5 -21s22.5 -32.333 22.5 -55c0 -20.667 -8.33301 -39 -25 -55
c-12.667 -9.33301 -31 -24 -55 -44c-7.33301 -8 -11 -17 -11 -27c0 -4.66699 0.666992 -9.66699 2 -15h-32c-3.33301 12.667 -5 23 -5 31c0 16 9 32.667 27 50c18 13.333 28.667 21.666 32 24.999c10.667 10.667 16 22.334 16 35.001c0 28 -16 42 -48 42
c-14 0 -30 -4 -48 -12c-9.33301 4.66699 -17.666 10 -24.999 16z" />
    <glyph glyph-name="glyph290" unicode="&#x1ea9;" horiz-adv-x="519" 
d="M211 522h100l193 -522h-90l-53 145h-210l-54 -145h-81zM258 451l-85 -240h169c-2 4 -30 84 -84 240zM161 550l-22 31l123 97l122 -97l-25 -31l-101 61zM363 797c23.333 18.667 52.333 28.001 87 28.001c22 0 40.167 -6.66699 54.5 -20s21.5 -30.666 21.5 -51.999
c0 -20 -8 -37.667 -24 -53l-29 -22c-22 -16.667 -33 -31.334 -33 -44.001c0 -4.66699 0.666992 -9.66699 2 -15h-31c-3.33301 11.333 -5 20.666 -5 27.999c0 14.667 8.66699 31 26 49c30.667 22.667 46 41.667 46 57c0 26.667 -15.333 40 -46 40
c-13.333 0 -28.333 -4 -45 -12c-8.66699 4.66699 -16.667 10 -24 16z" />
    <glyph glyph-name="glyph291" unicode="&#x1eaa;" 
d="M233 686h107l227 -686h-93l-65 211h-256l-66 -211h-83zM249 513l-73 -235h212l-105 336zM175 716l-24 35l136 108l136 -108l-28 -35l-112 68zM437 979l3.00098 -38c-43.333 -32 -86 -48 -128 -48c-11.333 0 -27.666 5 -48.999 15s-37.666 15 -48.999 15
c-14.667 0 -40 -12 -76 -36l-3 38c43.333 32 85.666 48 126.999 48c11.333 0 27.666 -5 48.999 -15s37.666 -15 48.999 -15c14 0 39.667 12 77 36z" />
    <glyph glyph-name="glyph292" unicode="&#x1eab;" horiz-adv-x="519" 
d="M211 522h100l193 -522h-90l-53 145h-210l-54 -145h-81zM258 451l-85 -240h169c-2 4 -30 84 -84 240zM161 549l-21 32l122 97l122 -97l-25 -32l-101 62zM397 786l3.00293 -34c-38.667 -28.667 -77.334 -43 -116.001 -43c-10.667 0 -25.334 4.5 -44.001 13.5
s-33.334 13.5 -44.001 13.5c-12 0 -34.667 -11 -68 -33l-3 34c40 29.333 78 44 114 44c10.667 0 25.5 -4.5 44.5 -13.5s33.833 -13.5 44.5 -13.5c12.667 0 35.667 10.667 69 32z" />
    <glyph glyph-name="glyph293" unicode="&#x1eac;" 
d="M233 686h107l227 -686h-93l-65 211h-256l-66 -211h-83zM249 513l-73 -235h212l-105 336zM175 716l-24 35l136 108l136 -108l-28 -35l-112 68zM224 -76c0 15.333 5.5 28.5 16.5 39.5s24.167 16.5 39.5 16.5c16 0 29.667 -5.33301 41 -16s17 -24 17 -40
s-5.33301 -29.833 -16 -41.5s-24 -17.5 -40 -17.5s-29.667 5.83301 -41 17.5s-17 25.5 -17 41.5z" />
    <glyph glyph-name="glyph294" unicode="&#x1ead;" horiz-adv-x="519" 
d="M211 522h100l193 -522h-90l-53 145h-210l-54 -145h-81zM258 451l-85 -240h169c-2 4 -30 84 -84 240zM161 550l-22 32l123 97l122 -97l-25 -32l-101 62zM207 -70c0 14 4.83301 25.833 14.5 35.5s21.5 14.5 35.5 14.5c14.667 0 27 -4.66699 37 -14s15 -21.333 15 -36
c0 -14 -4.83301 -26.333 -14.5 -37s-21.5 -16 -35.5 -16c-14.667 0 -27 5.16699 -37 15.5s-15 22.833 -15 37.5z" />
    <glyph glyph-name="glyph295" unicode="&#x1eae;" 
d="M233 686h107l227 -686h-93l-65 211h-256l-66 -211h-83zM249 513l-73 -235h212l-105 336zM406 849l24.999 -21.001c-11.333 -17.333 -28.666 -35.666 -51.999 -54.999c-34 -28.667 -65 -43 -93 -43c-46 0 -93.667 32.667 -143 98l28 21c38.667 -38.667 77 -58 115 -58
c30.667 0 70.667 19.333 120 58zM262.999 890.999l186 127l39 -69l-202 -90z" />
    <glyph glyph-name="glyph296" unicode="&#x1eaf;" horiz-adv-x="519" 
d="M211 522h100l193 -522h-90l-53 145h-210l-54 -145h-81zM258 451l-85 -240h169c-2 4 -30 84 -84 240zM366 667l23 -19c-12 -16 -27.667 -32.333 -47 -49c-30.667 -26 -58.667 -39 -84 -39c-39.333 0 -82 29.333 -128 88l25 19c34.667 -34.667 69 -52 103 -52
c30.667 0 66.667 17.333 108 52zM238 705l167 114l35 -62l-182 -81z" />
    <glyph glyph-name="glyph297" unicode="&#x1eb0;" 
d="M233 686h107l227 -686h-93l-65 211h-256l-66 -211h-83zM249 513l-73 -235h212l-105 336zM406 849l24.999 -21.001c-11.333 -17.333 -28.666 -35.666 -51.999 -54.999c-34 -28.667 -65 -43 -93 -43c-46 0 -93.667 32.667 -143 98l28 21c38.667 -38.667 77 -58 115 -58
c30.667 0 70.667 19.333 120 58zM124.999 1019l186 -127l-24 -32l-201 90z" />
    <glyph glyph-name="glyph298" unicode="&#x1eb1;" horiz-adv-x="519" 
d="M211 522h100l193 -522h-90l-53 145h-210l-54 -145h-81zM258 451l-85 -240h169c-2 4 -30 84 -84 240zM366 667l22.002 -19c-12.667 -16.667 -28.334 -33 -47.001 -49c-30.667 -26 -58.334 -39 -83.001 -39c-40 0 -83 29.333 -129 88l25 19c37.333 -34.667 72 -52 104 -52
c26.667 0 62.667 17.333 108 52zM113.002 820l167 -114l-21 -29l-181 81z" />
    <glyph glyph-name="glyph299" unicode="&#x1eb2;" 
d="M233 686h107l227 -686h-93l-65 211h-256l-66 -211h-83zM249 513l-73 -235h212l-105 336zM406 849l24.999 -21.001c-11.333 -17.333 -28.666 -35.666 -51.999 -54.999c-34 -28.667 -65 -43 -93 -43c-46 0 -93.667 32.667 -143 98l28 21c38.667 -38.667 77 -58 115 -58
c30.667 0 70.667 19.333 120 58zM218.999 1036c24.667 20 55.332 30 91.999 30c23.333 0 42.5 -7 57.5 -21s22.5 -32.333 22.5 -55c0 -20.667 -8.33301 -39 -25 -55c-12.667 -9.33301 -31 -24 -55 -44c-7.33301 -8 -11 -17 -11 -27c0 -4.66699 0.666992 -9.66699 2 -15h-32
c-3.33301 12.667 -5 23 -5 31c0 16 9 32.667 27 50c18 13.333 28.667 21.666 32 24.999c10.667 10.667 16 22.334 16 35.001c0 28 -16 42 -48 42c-14 0 -30 -4 -48 -12c-9.33301 4.66699 -17.666 10 -24.999 16z" />
    <glyph glyph-name="glyph300" unicode="&#x1eb3;" horiz-adv-x="519" 
d="M211 522h100l193 -522h-90l-53 145h-210l-54 -145h-81zM258 451l-85 -240h169c-2 4 -30 84 -84 240zM365 667l23.001 -19c-12.667 -16.667 -28.334 -33 -47.001 -49c-30.667 -26 -58.667 -39 -84 -39c-40 0 -83 29.333 -129 88l26 19c34.667 -34.667 69 -52 103 -52
c26.667 0 62.667 17.333 108 52zM190.001 858c24.667 20 55.332 30 91.999 30c23.333 0 42.5 -7 57.5 -21s22.5 -32.333 22.5 -55c0 -20.667 -8.33301 -39 -25 -55c-12.667 -9.33301 -31 -24 -55 -44c-7.33301 -8 -11 -17 -11 -27c0 -4.66699 0.666992 -9.66699 2 -15h-32
c-3.33301 12.667 -5 23 -5 31c0 16 9 32.667 27 50c18 13.333 28.667 21.666 32 24.999c10.667 10.667 16 22.334 16 35.001c0 28 -16 42 -48 42c-14 0 -30 -4 -48 -12c-9.33301 4.66699 -17.666 10 -24.999 16z" />
    <glyph glyph-name="glyph301" unicode="&#x1eb4;" 
d="M233 686h107l227 -686h-93l-65 211h-256l-66 -211h-83zM249 513l-73 -235h212l-105 336zM406 849l24.999 -21.001c-11.333 -17.333 -28.666 -35.666 -51.999 -54.999c-34 -28.667 -65 -43 -93 -43c-46 0 -93.667 32.667 -143 98l28 21c38.667 -38.667 77 -58 115 -58
c30.667 0 70.667 19.333 120 58zM584.999 978.999l3.00098 -38c-43.333 -32 -86 -48 -128 -48c-11.333 0 -27.666 5 -48.999 15s-37.666 15 -48.999 15c-14.667 0 -40 -12 -76 -36l-3 38c43.333 32 85.666 48 126.999 48c11.333 0 27.666 -5 48.999 -15
s37.666 -15 48.999 -15c14 0 39.667 12 77 36z" />
    <glyph glyph-name="glyph302" unicode="&#x1eb5;" horiz-adv-x="519" 
d="M211 522h100l193 -522h-90l-53 145h-210l-54 -145h-81zM258 451l-85 -240h169c-2 4 -30 84 -84 240zM365 667l23.002 -19c-12.667 -16.667 -28.334 -33 -47.001 -49c-30.667 -26 -58.334 -39 -83.001 -39c-40 0 -83 29.333 -129 88l25 19c37.333 -34.667 72 -52 104 -52
c30 0 65.667 17.333 107 52zM527.002 784l2 -34c-38 -28.667 -76.333 -43 -115 -43c-10.667 0 -25.334 4.5 -44.001 13.5s-33.334 13.5 -44.001 13.5c-14 0 -36.667 -11 -68 -33l-3 35c39.333 28.667 77.333 43 114 43c10.667 0 25.334 -4.5 44.001 -13.5
s33.334 -13.5 44.001 -13.5c12 0 35.333 10.667 70 32z" />
    <glyph glyph-name="glyph303" unicode="&#x1eb6;" 
d="M224 -76c0 15.333 5.5 28.5 16.5 39.5s24.167 16.5 39.5 16.5c16 0 29.667 -5.33301 41 -16s17 -24 17 -40s-5.33301 -29.833 -16 -41.5s-24 -17.5 -40 -17.5s-29.667 5.83301 -41 17.5s-17 25.5 -17 41.5zM233 686h107l227 -686h-93l-65 211h-256l-66 -211h-83zM249 513
l-73 -235h212l-105 336zM406 849l24.999 -21.001c-11.333 -17.333 -28.666 -35.666 -51.999 -54.999c-34 -28.667 -65 -43 -93 -43c-46 0 -93.667 32.667 -143 98l28 21c38.667 -38.667 77 -58 115 -58c30.667 0 70.667 19.333 120 58z" />
    <glyph glyph-name="glyph304" unicode="&#x1eb7;" horiz-adv-x="519" 
d="M211 522h100l193 -522h-90l-53 145h-210l-54 -145h-81zM258 451l-85 -240h169c-2 4 -30 84 -84 240zM207 -70c0 14 4.83301 25.833 14.5 35.5s21.5 14.5 35.5 14.5c14.667 0 27 -4.66699 37 -14s15 -21.333 15 -36c0 -14 -4.83301 -26.333 -14.5 -37s-21.5 -16 -35.5 -16
c-14.667 0 -27 5.16699 -37 15.5s-15 22.833 -15 37.5zM366 667l23 -19c-12 -16 -27.667 -32.333 -47 -49c-30.667 -26 -58.667 -39 -84 -39c-39.333 0 -82 29.333 -128 88l25 19c34.667 -34.667 69 -52 103 -52c30.667 0 66.667 17.333 108 52z" />
    <glyph glyph-name="glyph305" unicode="&#x1eb8;" horiz-adv-x="518" 
d="M92 0v681h375l-11 -68h-281v-222h235v-71h-235v-249h302v-71h-385zM225 -86c0 15.333 5.5 28.5 16.5 39.5s24.167 16.5 39.5 16.5c16 0 29.667 -5.33301 41 -16s17 -24 17 -40s-5.33301 -29.833 -16 -41.5s-24 -17.5 -40 -17.5s-29.667 5.83301 -41 17.5
s-17 25.5 -17 41.5z" />
    <glyph glyph-name="glyph306" unicode="&#x1eb9;" horiz-adv-x="471" 
d="M90 0v520h325l-11 -67h-234v-148h196v-67h-195v-168h253v-70h-334zM207 -80c0 14 4.83301 25.833 14.5 35.5s21.5 14.5 35.5 14.5c14.667 0 27 -4.66699 37 -14s15 -21.333 15 -36c0 -14 -4.83301 -26.333 -14.5 -37s-21.5 -16 -35.5 -16c-14.667 0 -27 5.16699 -37 15.5
s-15 22.833 -15 37.5z" />
    <glyph glyph-name="glyph307" unicode="&#x1eba;" horiz-adv-x="518" 
d="M92 0v681h375l-11 -68h-281v-222h235v-71h-235v-249h302v-71h-385zM213 932c24.667 20 55.332 30 91.999 30c23.333 0 42.5 -7 57.5 -21s22.5 -32.333 22.5 -55c0 -20.667 -8.33301 -39 -25 -55c-12.667 -9.33301 -31 -24 -55 -44c-7.33301 -8 -11 -17 -11 -27
c0 -4.66699 0.666992 -9.66699 2 -15h-32c-3.33301 12.667 -5 23 -5 31c0 16 9 32.667 27 50c18 13.333 28.667 21.666 32 24.999c10.667 10.667 16 22.334 16 35.001c0 28 -16 42 -48 42c-14 0 -30 -4 -48 -12c-9.33301 4.66699 -17.666 10 -24.999 16z" />
    <glyph glyph-name="glyph308" unicode="&#x1ebb;" horiz-adv-x="471" 
d="M90 0v520h325l-11 -67h-234v-148h196v-67h-195v-168h253v-70h-334zM194 748c23.333 18.667 52.333 28.001 87 28.001c22 0 40.167 -6.66699 54.5 -20s21.5 -30.666 21.5 -51.999c0 -20 -8 -37.667 -24 -53l-29 -22c-22 -16.667 -33 -31.334 -33 -44.001
c0 -4.66699 0.666992 -9.66699 2 -15h-31c-3.33301 11.333 -5 20.666 -5 27.999c0 14.667 8.66699 31 26 49c30.667 22.667 46 41.667 46 57c0 26.667 -15.333 40 -46 40c-13.333 0 -28.333 -4 -45 -12c-8.66699 4.66699 -16.667 10 -24 16z" />
    <glyph glyph-name="glyph309" unicode="&#x1ebc;" horiz-adv-x="518" 
d="M92 0v681h375l-11 -68h-281v-222h235v-71h-235v-249h302v-71h-385zM434 848l3.00098 -38c-43.333 -32 -86 -48 -128 -48c-11.333 0 -27.666 5 -48.999 15s-37.666 15 -48.999 15c-14.667 0 -40 -12 -76 -36l-3 38c43.333 32 85.666 48 126.999 48
c11.333 0 27.666 -5 48.999 -15s37.666 -15 48.999 -15c14 0 39.667 12 77 36z" />
    <glyph glyph-name="glyph310" unicode="&#x1ebd;" horiz-adv-x="471" 
d="M90 0v520h325l-11 -67h-234v-148h196v-67h-195v-168h253v-70h-334zM397 664l3.00293 -34c-38.667 -28.667 -77.334 -43 -116.001 -43c-10.667 0 -25.334 4.5 -44.001 13.5s-33.334 13.5 -44.001 13.5c-12 0 -34.667 -11 -68 -33l-3 34c40 29.333 78 44 114 44
c10.667 0 25.5 -4.5 44.5 -13.5s33.833 -13.5 44.5 -13.5c12.667 0 35.667 10.667 69 32z" />
    <glyph glyph-name="glyph311" unicode="&#x1ebe;" horiz-adv-x="518" 
d="M92 0v681h375l-11 -68h-281v-222h235v-71h-235v-249h302v-71h-385zM168 731l-24 35l136 108l136 -108l-28 -35l-112 68zM417 831l186 127l39 -69l-202 -90z" />
    <glyph glyph-name="glyph312" unicode="&#x1ebf;" horiz-adv-x="471" 
d="M90 0v520h325l-11 -67h-234v-148h196v-67h-195v-168h253v-70h-334zM161 560l-22 32l123 97l122 -97l-25 -32l-101 62zM385 650l167 115l35 -63l-181 -80z" />
    <glyph glyph-name="glyph313" unicode="&#x1ec0;" horiz-adv-x="518" 
d="M92 0v681h375l-11 -68h-281v-222h235v-71h-235v-249h302v-71h-385zM172 731l-24 35l136 108l136 -108l-28 -35l-112 68zM-39 958l186 -127l-24 -32l-201 90z" />
    <glyph glyph-name="glyph314" unicode="&#x1ec1;" horiz-adv-x="471" 
d="M90 0v520h325l-11 -67h-234v-148h196v-67h-195v-168h253v-70h-334zM161 560l-21 32l122 97l122 -97l-25 -32l-101 62zM-29 765l168 -115l-22 -28l-181 80z" />
    <glyph glyph-name="glyph315" unicode="&#x1ec2;" horiz-adv-x="518" 
d="M92 0v681h375l-11 -68h-281v-222h235v-71h-235v-249h302v-71h-385zM172 730l-24 35l136 108l136 -108l-28 -35l-112 68zM381 985c24.667 20 55.332 30 91.999 30c23.333 0 42.5 -7 57.5 -21s22.5 -32.333 22.5 -55c0 -20.667 -8.33301 -39 -25 -55
c-12.667 -9.33301 -31 -24 -55 -44c-7.33301 -8 -11 -17 -11 -27c0 -4.66699 0.666992 -9.66699 2 -15h-32c-3.33301 12.667 -5 23 -5 31c0 16 9 32.667 27 50c18 13.333 28.667 21.666 32 24.999c10.667 10.667 16 22.334 16 35.001c0 28 -16 42 -48 42
c-14 0 -30 -4 -48 -12c-9.33301 4.66699 -17.666 10 -24.999 16z" />
    <glyph glyph-name="glyph316" unicode="&#x1ec3;" horiz-adv-x="471" 
d="M90 0v520h325l-11 -67h-234v-148h196v-67h-195v-168h253v-70h-334zM161 560l-22 31l123 97l122 -97l-25 -31l-101 61zM363 807c23.333 18.667 52.333 28.001 87 28.001c22 0 40.167 -6.66699 54.5 -20s21.5 -30.666 21.5 -51.999c0 -20 -8 -37.667 -24 -53l-29 -22
c-22 -16.667 -33 -31.334 -33 -44.001c0 -4.66699 0.666992 -9.66699 2 -15h-31c-3.33301 11.333 -5 20.666 -5 27.999c0 14.667 8.66699 31 26 49c30.667 22.667 46 41.667 46 57c0 26.667 -15.333 40 -46 40c-13.333 0 -28.333 -4 -45 -12
c-8.66699 4.66699 -16.667 10 -24 16z" />
    <glyph glyph-name="glyph317" unicode="&#x1ec4;" horiz-adv-x="518" 
d="M92 0v681h375l-11 -68h-281v-222h235v-71h-235v-249h302v-71h-385zM172 730l-24 35l136 108l136 -108l-28 -35l-112 68zM434 993l3.00098 -38c-43.333 -32 -86 -48 -128 -48c-11.333 0 -27.666 5 -48.999 15s-37.666 15 -48.999 15c-14.667 0 -40 -12 -76 -36l-3 38
c43.333 32 85.666 48 126.999 48c11.333 0 27.666 -5 48.999 -15s37.666 -15 48.999 -15c14 0 39.667 12 77 36z" />
    <glyph glyph-name="glyph318" unicode="&#x1ec5;" horiz-adv-x="471" 
d="M90 0v520h325l-11 -67h-234v-148h196v-67h-195v-168h253v-70h-334zM161 561l-21 32l122 97l122 -97l-25 -32l-101 62zM397 798l3.00293 -34c-38.667 -28.667 -77.334 -43 -116.001 -43c-10.667 0 -25.334 4.5 -44.001 13.5s-33.334 13.5 -44.001 13.5
c-12 0 -34.667 -11 -68 -33l-3 34c40 29.333 78 44 114 44c10.667 0 25.5 -4.5 44.5 -13.5s33.833 -13.5 44.5 -13.5c12.667 0 35.667 10.667 69 32z" />
    <glyph glyph-name="glyph319" unicode="&#x1ec6;" horiz-adv-x="518" 
d="M92 0v681h375l-11 -68h-281v-222h235v-71h-235v-249h302v-71h-385zM168 731l-24 35l136 108l136 -108l-28 -35l-112 68zM224 -86c0 15.333 5.5 28.5 16.5 39.5s24.167 16.5 39.5 16.5c16 0 29.667 -5.33301 41 -16s17 -24 17 -40s-5.33301 -29.833 -16 -41.5
s-24 -17.5 -40 -17.5s-29.667 5.83301 -41 17.5s-17 25.5 -17 41.5z" />
    <glyph glyph-name="glyph320" unicode="&#x1ec7;" horiz-adv-x="471" 
d="M90 0v520h325l-11 -67h-234v-148h196v-67h-195v-168h253v-70h-334zM161 560l-22 32l123 97l122 -97l-25 -32l-101 62zM207 -80c0 14 4.83301 25.833 14.5 35.5s21.5 14.5 35.5 14.5c14.667 0 27 -4.66699 37 -14s15 -21.333 15 -36c0 -14 -4.83301 -26.333 -14.5 -37
s-21.5 -16 -35.5 -16c-14.667 0 -27 5.16699 -37 15.5s-15 22.833 -15 37.5z" />
    <glyph glyph-name="glyph321" unicode="&#x1ec8;" horiz-adv-x="268" 
d="M94 0v686h80v-686h-80zM66 932c24.667 20 55.332 30 91.999 30c23.333 0 42.5 -7 57.5 -21s22.5 -32.333 22.5 -55c0 -20.667 -8.33301 -39 -25 -55c-12.667 -9.33301 -31 -24 -55 -44c-7.33301 -8 -11 -17 -11 -27c0 -4.66699 0.666992 -9.66699 2 -15h-32
c-3.33301 12.667 -5 23 -5 31c0 16 9 32.667 27 50c18 13.333 28.667 21.666 32 24.999c10.667 10.667 16 22.334 16 35.001c0 28 -16 42 -48 42c-14 0 -30 -4 -48 -12c-9.33301 4.66699 -17.666 10 -24.999 16z" />
    <glyph glyph-name="glyph322" unicode="&#x1ec9;" horiz-adv-x="263" 
d="M92 0v523h80v-523h-80zM69 748c23.333 18.667 52.333 28.001 87 28.001c22 0 40.167 -6.66699 54.5 -20s21.5 -30.666 21.5 -51.999c0 -20 -8 -37.667 -24 -53l-29 -22c-22 -16.667 -33 -31.334 -33 -44.001c0 -4.66699 0.666992 -9.66699 2 -15h-31
c-3.33301 11.333 -5 20.666 -5 27.999c0 14.667 8.66699 31 26 49c30.667 22.667 46 41.667 46 57c0 26.667 -15.333 40 -46 40c-13.333 0 -28.333 -4 -45 -12c-8.66699 4.66699 -16.667 10 -24 16z" />
    <glyph glyph-name="glyph323" unicode="&#x1eca;" horiz-adv-x="268" 
d="M94 0v686h80v-686h-80zM77 -86c0 15.333 5.5 28.5 16.5 39.5s24.167 16.5 39.5 16.5c16 0 29.667 -5.33301 41 -16s17 -24 17 -40s-5.33301 -29.833 -16 -41.5s-24 -17.5 -40 -17.5s-29.667 5.83301 -41 17.5s-17 25.5 -17 41.5z" />
    <glyph glyph-name="glyph324" unicode="&#x1ecb;" horiz-adv-x="263" 
d="M92 0v523h80v-523h-80zM82 -80c0 14 4.83301 25.833 14.5 35.5s21.5 14.5 35.5 14.5c14.667 0 27 -4.66699 37 -14s15 -21.333 15 -36c0 -14 -4.83301 -26.333 -14.5 -37s-21.5 -16 -35.5 -16c-14.667 0 -27 5.16699 -37 15.5s-15 22.833 -15 37.5z" />
    <glyph glyph-name="glyph325" unicode="&#x1ecc;" horiz-adv-x="661" 
d="M57 346c0 98.667 20.333 179 61 241c48 74 118.667 111 212 111c97.333 0 170 -38.667 218 -116c40 -64 60 -147.333 60 -250c0 -125.333 -33.333 -218.333 -100 -279c-48.667 -44 -106.667 -66 -174 -66c-95.333 0 -167 37.667 -215 113c-41.333 64 -62 146 -62 246z
M483 538c-30 62.667 -80.999 94 -152.999 94c-121.333 0 -182 -89.667 -182 -269c0 -109.333 14.667 -189 44 -239c12.667 -22 34 -40 64 -54c27.333 -13.333 54.666 -20 81.999 -20c118.667 0 178 90 178 270c0 99.333 -11 172 -33 218zM278.001 -97
c0 15.333 5.5 28.5 16.5 39.5s24.167 16.5 39.5 16.5c16 0 29.667 -5.33301 41 -16s17 -24 17 -40s-5.33301 -29.833 -16 -41.5s-24 -17.5 -40 -17.5s-29.667 5.83301 -41 17.5s-17 25.5 -17 41.5z" />
    <glyph glyph-name="glyph326" unicode="&#x1ecd;" horiz-adv-x="596" 
d="M62 263c0 79.333 19.333 142.667 58 190c42 52 101.667 78 179 78c80.667 0 142 -26 184 -78c39.333 -48 59 -113 59 -195c0 -81.333 -18.667 -145 -56 -191c-40.667 -50.667 -101 -76 -181 -76c-78 0 -138.667 26.333 -182 79c-40.667 48.667 -61 113 -61 193z
M296 466.001c-55.333 0 -94.668 -19.332 -118.001 -57.999c-18 -30.667 -27 -75.667 -27 -135c0 -67.333 9 -118 27 -152c24.667 -45.333 67.667 -68 129 -68c56.667 0 96.334 19.667 119.001 59c17.333 30 26 75.333 26 136c0 67.333 -9 117.666 -27 150.999
c-24.667 44.667 -67.667 67 -129 67zM254.998 -94.998c0 14 4.83301 25.833 14.5 35.5s21.5 14.5 35.5 14.5c14.667 0 27 -4.66699 37 -14s15 -21.333 15 -36c0 -14 -4.83301 -26.333 -14.5 -37s-21.5 -16 -35.5 -16c-14.667 0 -27 5.16699 -37 15.5s-15 22.833 -15 37.5z
" />
    <glyph glyph-name="glyph327" unicode="&#x1ece;" horiz-adv-x="661" 
d="M57 346c0 98.667 20.333 179 61 241c48 74 118.667 111 212 111c97.333 0 170 -38.667 218 -116c40 -64 60 -147.333 60 -250c0 -125.333 -33.333 -218.333 -100 -279c-48.667 -44 -106.667 -66 -174 -66c-95.333 0 -167 37.667 -215 113c-41.333 64 -62 146 -62 246z
M483 538c-30 62.667 -80.999 94 -152.999 94c-121.333 0 -182 -89.667 -182 -269c0 -109.333 14.667 -189 44 -239c12.667 -22 34 -40 64 -54c27.333 -13.333 54.666 -20 81.999 -20c118.667 0 178 90 178 270c0 99.333 -11 172 -33 218zM262.001 942
c24.667 20 55.332 30 91.999 30c23.333 0 42.5 -7 57.5 -21s22.5 -32.333 22.5 -55c0 -20.667 -8.33301 -39 -25 -55c-12.667 -9.33301 -31 -24 -55 -44c-7.33301 -8 -11 -17 -11 -27c0 -4.66699 0.666992 -9.66699 2 -15h-32c-3.33301 12.667 -5 23 -5 31
c0 16 9 32.667 27 50c18 13.333 28.667 21.666 32 24.999c10.667 10.667 16 22.334 16 35.001c0 28 -16 42 -48 42c-14 0 -30 -4 -48 -12c-9.33301 4.66699 -17.666 10 -24.999 16z" />
    <glyph glyph-name="glyph328" unicode="&#x1ecf;" horiz-adv-x="596" 
d="M62 263c0 79.333 19.333 142.667 58 190c42 52 101.667 78 179 78c80.667 0 142 -26 184 -78c39.333 -48 59 -113 59 -195c0 -81.333 -18.667 -145 -56 -191c-40.667 -50.667 -101 -76 -181 -76c-78 0 -138.667 26.333 -182 79c-40.667 48.667 -61 113 -61 193z
M296 466.001c-55.333 0 -94.668 -19.332 -118.001 -57.999c-18 -30.667 -27 -75.667 -27 -135c0 -67.333 9 -118 27 -152c24.667 -45.333 67.667 -68 129 -68c56.667 0 96.334 19.667 119.001 59c17.333 30 26 75.333 26 136c0 67.333 -9 117.666 -27 150.999
c-24.667 44.667 -67.667 67 -129 67zM235.998 758.002c23.333 18.667 52.333 28.001 87 28.001c22 0 40.167 -6.66699 54.5 -20s21.5 -30.666 21.5 -51.999c0 -20 -8 -37.667 -24 -53l-29 -22c-22 -16.667 -33 -31.334 -33 -44.001c0 -4.66699 0.666992 -9.66699 2 -15h-31
c-3.33301 11.333 -5 20.666 -5 27.999c0 14.667 8.66699 31 26 49c30.667 22.667 46 41.667 46 57c0 26.667 -15.333 40 -46 40c-13.333 0 -28.333 -4 -45 -12c-8.66699 4.66699 -16.667 10 -24 16z" />
    <glyph glyph-name="glyph329" unicode="&#x1ed0;" horiz-adv-x="661" 
d="M57 346c0 98.667 20.333 179 61 241c48 74 118.667 111 212 111c97.333 0 170 -38.667 218 -116c40 -64 60 -147.333 60 -250c0 -125.333 -33.333 -218.333 -100 -279c-48.667 -44 -106.667 -66 -174 -66c-95.333 0 -167 37.667 -215 113c-41.333 64 -62 146 -62 246z
M483 538c-30 62.667 -80.999 94 -152.999 94c-121.333 0 -182 -89.667 -182 -269c0 -109.333 14.667 -189 44 -239c12.667 -22 34 -40 64 -54c27.333 -13.333 54.666 -20 81.999 -20c118.667 0 178 90 178 270c0 99.333 -11 172 -33 218zM222.001 730l-24 35l136 108
l136 -108l-28 -35l-112 68zM471.001 830l186 127l39 -69l-202 -90z" />
    <glyph glyph-name="glyph330" unicode="&#x1ed1;" horiz-adv-x="596" 
d="M62 263c0 79.333 19.333 142.667 58 190c42 52 101.667 78 179 78c80.667 0 142 -26 184 -78c39.333 -48 59 -113 59 -195c0 -81.333 -18.667 -145 -56 -191c-40.667 -50.667 -101 -76 -181 -76c-78 0 -138.667 26.333 -182 79c-40.667 48.667 -61 113 -61 193z
M296 466.001c-55.333 0 -94.668 -19.332 -118.001 -57.999c-18 -30.667 -27 -75.667 -27 -135c0 -67.333 9 -118 27 -152c24.667 -45.333 67.667 -68 129 -68c56.667 0 96.334 19.667 119.001 59c17.333 30 26 75.333 26 136c0 67.333 -9 117.666 -27 150.999
c-24.667 44.667 -67.667 67 -129 67zM201.998 561.002l-22 32l123 97l122 -97l-25 -32l-101 62zM425.998 651.002l167 115l35 -63l-181 -80z" />
    <glyph glyph-name="glyph331" unicode="&#x1ed2;" horiz-adv-x="661" 
d="M57 346c0 98.667 20.333 179 61 241c48 74 118.667 111 212 111c97.333 0 170 -38.667 218 -116c40 -64 60 -147.333 60 -250c0 -125.333 -33.333 -218.333 -100 -279c-48.667 -44 -106.667 -66 -174 -66c-95.333 0 -167 37.667 -215 113c-41.333 64 -62 146 -62 246z
M483 538c-30 62.667 -80.999 94 -152.999 94c-121.333 0 -182 -89.667 -182 -269c0 -109.333 14.667 -189 44 -239c12.667 -22 34 -40 64 -54c27.333 -13.333 54.666 -20 81.999 -20c118.667 0 178 90 178 270c0 99.333 -11 172 -33 218zM222.001 731l-24 35l136 108
l136 -108l-28 -35l-112 68zM11.001 958l186 -127l-24 -32l-201 90z" />
    <glyph glyph-name="glyph332" unicode="&#x1ed3;" horiz-adv-x="596" 
d="M62 263c0 79.333 19.333 142.667 58 190c42 52 101.667 78 179 78c80.667 0 142 -26 184 -78c39.333 -48 59 -113 59 -195c0 -81.333 -18.667 -145 -56 -191c-40.667 -50.667 -101 -76 -181 -76c-78 0 -138.667 26.333 -182 79c-40.667 48.667 -61 113 -61 193z
M296 466.001c-55.333 0 -94.668 -19.332 -118.001 -57.999c-18 -30.667 -27 -75.667 -27 -135c0 -67.333 9 -118 27 -152c24.667 -45.333 67.667 -68 129 -68c56.667 0 96.334 19.667 119.001 59c17.333 30 26 75.333 26 136c0 67.333 -9 117.666 -27 150.999
c-24.667 44.667 -67.667 67 -129 67zM201.998 560.002l-21 32l122 97l122 -97l-25 -32l-101 62zM11.998 765.002l168 -115l-22 -28l-181 80z" />
    <glyph glyph-name="glyph333" unicode="&#x1ed4;" horiz-adv-x="661" 
d="M57 346c0 98.667 20.333 179 61 241c48 74 118.667 111 212 111c97.333 0 170 -38.667 218 -116c40 -64 60 -147.333 60 -250c0 -125.333 -33.333 -218.333 -100 -279c-48.667 -44 -106.667 -66 -174 -66c-95.333 0 -167 37.667 -215 113c-41.333 64 -62 146 -62 246z
M483 538c-30 62.667 -80.999 94 -152.999 94c-121.333 0 -182 -89.667 -182 -269c0 -109.333 14.667 -189 44 -239c12.667 -22 34 -40 64 -54c27.333 -13.333 54.666 -20 81.999 -20c118.667 0 178 90 178 270c0 99.333 -11 172 -33 218zM222.001 730l-24 35l136 108
l136 -108l-28 -35l-112 68zM431.001 985c24.667 20 55.332 30 91.999 30c23.333 0 42.5 -7 57.5 -21s22.5 -32.333 22.5 -55c0 -20.667 -8.33301 -39 -25 -55c-12.667 -9.33301 -31 -24 -55 -44c-7.33301 -8 -11 -17 -11 -27c0 -4.66699 0.666992 -9.66699 2 -15h-32
c-3.33301 12.667 -5 23 -5 31c0 16 9 32.667 27 50c18 13.333 28.667 21.666 32 24.999c10.667 10.667 16 22.334 16 35.001c0 28 -16 42 -48 42c-14 0 -30 -4 -48 -12c-9.33301 4.66699 -17.666 10 -24.999 16z" />
    <glyph glyph-name="glyph334" unicode="&#x1ed5;" horiz-adv-x="596" 
d="M62 263c0 79.333 19.333 142.667 58 190c42 52 101.667 78 179 78c80.667 0 142 -26 184 -78c39.333 -48 59 -113 59 -195c0 -81.333 -18.667 -145 -56 -191c-40.667 -50.667 -101 -76 -181 -76c-78 0 -138.667 26.333 -182 79c-40.667 48.667 -61 113 -61 193z
M296 466.001c-55.333 0 -94.668 -19.332 -118.001 -57.999c-18 -30.667 -27 -75.667 -27 -135c0 -67.333 9 -118 27 -152c24.667 -45.333 67.667 -68 129 -68c56.667 0 96.334 19.667 119.001 59c17.333 30 26 75.333 26 136c0 67.333 -9 117.666 -27 150.999
c-24.667 44.667 -67.667 67 -129 67zM201.998 560.002l-22 31l123 97l122 -97l-25 -31l-101 61zM403.998 807.002c23.333 18.667 52.333 28.001 87 28.001c22 0 40.167 -6.66699 54.5 -20s21.5 -30.666 21.5 -51.999c0 -20 -8 -37.667 -24 -53l-29 -22
c-22 -16.667 -33 -31.334 -33 -44.001c0 -4.66699 0.666992 -9.66699 2 -15h-31c-3.33301 11.333 -5 20.666 -5 27.999c0 14.667 8.66699 31 26 49c30.667 22.667 46 41.667 46 57c0 26.667 -15.333 40 -46 40c-13.333 0 -28.333 -4 -45 -12
c-8.66699 4.66699 -16.667 10 -24 16z" />
    <glyph glyph-name="glyph335" unicode="&#x1ed6;" horiz-adv-x="661" 
d="M57 346c0 98.667 20.333 179 61 241c48 74 118.667 111 212 111c97.333 0 170 -38.667 218 -116c40 -64 60 -147.333 60 -250c0 -125.333 -33.333 -218.333 -100 -279c-48.667 -44 -106.667 -66 -174 -66c-95.333 0 -167 37.667 -215 113c-41.333 64 -62 146 -62 246z
M483 538c-30 62.667 -80.999 94 -152.999 94c-121.333 0 -182 -89.667 -182 -269c0 -109.333 14.667 -189 44 -239c12.667 -22 34 -40 64 -54c27.333 -13.333 54.666 -20 81.999 -20c118.667 0 178 90 178 270c0 99.333 -11 172 -33 218zM222.001 730l-24 35l136 108
l136 -108l-28 -35l-112 68zM484.001 993l3.00098 -38c-43.333 -32 -86 -48 -128 -48c-11.333 0 -27.666 5 -48.999 15s-37.666 15 -48.999 15c-14.667 0 -40 -12 -76 -36l-3 38c43.333 32 85.666 48 126.999 48c11.333 0 27.666 -5 48.999 -15s37.666 -15 48.999 -15
c14 0 39.667 12 77 36z" />
    <glyph glyph-name="glyph336" unicode="&#x1ed7;" horiz-adv-x="596" 
d="M62 263c0 79.333 19.333 142.667 58 190c42 52 101.667 78 179 78c80.667 0 142 -26 184 -78c39.333 -48 59 -113 59 -195c0 -81.333 -18.667 -145 -56 -191c-40.667 -50.667 -101 -76 -181 -76c-78 0 -138.667 26.333 -182 79c-40.667 48.667 -61 113 -61 193z
M296 466.001c-55.333 0 -94.668 -19.332 -118.001 -57.999c-18 -30.667 -27 -75.667 -27 -135c0 -67.333 9 -118 27 -152c24.667 -45.333 67.667 -68 129 -68c56.667 0 96.334 19.667 119.001 59c17.333 30 26 75.333 26 136c0 67.333 -9 117.666 -27 150.999
c-24.667 44.667 -67.667 67 -129 67zM201.998 560.002l-21 32l122 97l122 -97l-25 -32l-101 62zM437.998 797.002l3.00293 -34c-38.667 -28.667 -77.334 -43 -116.001 -43c-10.667 0 -25.334 4.5 -44.001 13.5s-33.334 13.5 -44.001 13.5c-12 0 -34.667 -11 -68 -33l-3 34
c40 29.333 78 44 114 44c10.667 0 25.5 -4.5 44.5 -13.5s33.833 -13.5 44.5 -13.5c12.667 0 35.667 10.667 69 32z" />
    <glyph glyph-name="glyph337" unicode="&#x1ed8;" horiz-adv-x="661" 
d="M57 346c0 98.667 20.333 179 61 241c48 74 118.667 111 212 111c97.333 0 170 -38.667 218 -116c40 -64 60 -147.333 60 -250c0 -125.333 -33.333 -218.333 -100 -279c-48.667 -44 -106.667 -66 -174 -66c-95.333 0 -167 37.667 -215 113c-41.333 64 -62 146 -62 246z
M483 538c-30 62.667 -80.999 94 -152.999 94c-121.333 0 -182 -89.667 -182 -269c0 -109.333 14.667 -189 44 -239c12.667 -22 34 -40 64 -54c27.333 -13.333 54.666 -20 81.999 -20c118.667 0 178 90 178 270c0 99.333 -11 172 -33 218zM222.001 730l-24 35l136 108
l136 -108l-28 -35l-112 68zM278.001 -97c0 15.333 5.5 28.5 16.5 39.5s24.167 16.5 39.5 16.5c16 0 29.667 -5.33301 41 -16s17 -24 17 -40s-5.33301 -29.833 -16 -41.5s-24 -17.5 -40 -17.5s-29.667 5.83301 -41 17.5s-17 25.5 -17 41.5z" />
    <glyph glyph-name="glyph338" unicode="&#x1ed9;" horiz-adv-x="596" 
d="M62 263c0 79.333 19.333 142.667 58 190c42 52 101.667 78 179 78c80.667 0 142 -26 184 -78c39.333 -48 59 -113 59 -195c0 -81.333 -18.667 -145 -56 -191c-40.667 -50.667 -101 -76 -181 -76c-78 0 -138.667 26.333 -182 79c-40.667 48.667 -61 113 -61 193z
M296 466.001c-55.333 0 -94.668 -19.332 -118.001 -57.999c-18 -30.667 -27 -75.667 -27 -135c0 -67.333 9 -118 27 -152c24.667 -45.333 67.667 -68 129 -68c56.667 0 96.334 19.667 119.001 59c17.333 30 26 75.333 26 136c0 67.333 -9 117.666 -27 150.999
c-24.667 44.667 -67.667 67 -129 67zM201.998 561.002l-22 32l123 97l122 -97l-25 -32l-101 62zM254.998 -94.998c0 14 4.83301 25.833 14.5 35.5s21.5 14.5 35.5 14.5c14.667 0 27 -4.66699 37 -14s15 -21.333 15 -36c0 -14 -4.83301 -26.333 -14.5 -37
s-21.5 -16 -35.5 -16c-14.667 0 -27 5.16699 -37 15.5s-15 22.833 -15 37.5z" />
    <glyph glyph-name="glyph339" unicode="&#x1eda;" horiz-adv-x="661" 
d="M483 538c-30 62.667 -80.999 94 -152.999 94c-121.333 0 -182 -89.667 -182 -269c0 -109.333 14.667 -189 44 -239c12.667 -22 34 -40 64 -54c27.333 -13.333 54.666 -20 81.999 -20c118.667 0 178 90 178 270c0 99.333 -11 172 -33 218zM500.001 638
c72 -60.667 107.999 -162.668 107.999 -306.001c0 -125.333 -33.333 -218.333 -100 -279c-48.667 -44 -106.667 -66 -174 -66c-95.333 0 -167 37.667 -215 113c-41.333 64 -62 146 -62 246c0 98.667 20.333 179 61 241c48 74 118.667 111 212 111c32 0 60 -4 84 -12l76 -12
c20 3.33301 32.333 11 37 23h-5c-12 4.66699 -18 14 -18 28c0 22.667 12.667 34 38 34c10.667 0 19.334 -4.66699 26.001 -14s10 -19.666 10 -30.999c0 -22 -13 -40.333 -39 -55c-12.667 -10 -25.667 -17 -39 -21zM306 796.999l186 127l39 -69l-202 -90z" />
    <glyph glyph-name="glyph340" unicode="&#x1edb;" horiz-adv-x="596" 
d="M296 466c-55.333 0 -94.668 -19.332 -118.001 -57.999c-18 -30.667 -27 -75.667 -27 -135c0 -67.333 9 -118 27 -152c24.667 -45.333 67.667 -68 129 -68c56.667 0 96.334 19.667 119.001 59c17.333 30 26 75.333 26 136c0 67.333 -9 117.666 -27 150.999
c-24.667 44.667 -67.667 67 -129 67zM386.998 517.001h55c18.667 3.33301 30 10.333 34 21h-5c-11.333 4 -17 12 -17 24c0 3.33301 0.666992 6.33301 2 9c2.66699 14.667 13.667 22 33 22c9.33301 0 17 -4.33301 23 -13s9 -18 9 -28c0 -4 -0.333008 -7.66699 -1 -11
c-6.66699 -16 -18 -28.667 -34 -38c-12 -10 -24.667 -16.333 -38 -19c12 -7.33301 25 -19.666 39 -36.999c36.667 -44.667 55 -107.667 55 -189s-18.667 -145 -56 -191c-40.667 -50.667 -101 -76 -181 -76c-78 0 -138.667 26.333 -182 79c-40.667 48.667 -61 113 -61 193
c0 79.333 19.333 142.666 58 189.999c42 52 101.667 78 179 78c32 0 61.333 -4.66699 88 -14zM276.998 618.001l167 115l35 -63l-181 -80z" />
    <glyph glyph-name="glyph341" unicode="&#x1edc;" horiz-adv-x="661" 
d="M483 538c-30 62.667 -80.999 94 -152.999 94c-121.333 0 -182 -89.667 -182 -269c0 -109.333 14.667 -189 44 -239c12.667 -22 34 -40 64 -54c27.333 -13.333 54.666 -20 81.999 -20c118.667 0 178 90 178 270c0 99.333 -11 172 -33 218zM500.001 638
c72 -60.667 107.999 -162.668 107.999 -306.001c0 -125.333 -33.333 -218.333 -100 -279c-48.667 -44 -106.667 -66 -174 -66c-95.333 0 -167 37.667 -215 113c-41.333 64 -62 146 -62 246c0 98.667 20.333 179 61 241c48 74 118.667 111 212 111c32 0 60 -4 84 -12l76 -12
c20 3.33301 32.333 11 37 23h-5c-12 4.66699 -18 14 -18 28c0 22.667 12.667 34 38 34c10.667 0 19.334 -4.66699 26.001 -14s10 -19.666 10 -30.999c0 -22 -13 -40.333 -39 -55c-12.667 -10 -25.667 -17 -39 -21zM169 924.999l186 -127l-24 -32l-201 90z" />
    <glyph glyph-name="glyph342" unicode="&#x1edd;" horiz-adv-x="596" 
d="M296 466c-55.333 0 -94.668 -19.332 -118.001 -57.999c-18 -30.667 -27 -75.667 -27 -135c0 -67.333 9 -118 27 -152c24.667 -45.333 67.667 -68 129 -68c56.667 0 96.334 19.667 119.001 59c17.333 30 26 75.333 26 136c0 67.333 -9 117.666 -27 150.999
c-24.667 44.667 -67.667 67 -129 67zM386.998 517.001h55c18.667 3.33301 30 10.333 34 21h-5c-11.333 4 -17 12 -17 24c0 3.33301 0.666992 6.33301 2 9c2.66699 14.667 13.667 22 33 22c9.33301 0 17 -4.33301 23 -13s9 -18 9 -28c0 -4 -0.333008 -7.66699 -1 -11
c-6.66699 -16 -18 -28.667 -34 -38c-12 -10 -24.667 -16.333 -38 -19c12 -7.33301 25 -19.666 39 -36.999c36.667 -44.667 55 -107.667 55 -189s-18.667 -145 -56 -191c-40.667 -50.667 -101 -76 -181 -76c-78 0 -138.667 26.333 -182 79c-40.667 48.667 -61 113 -61 193
c0 79.333 19.333 142.666 58 189.999c42 52 101.667 78 179 78c32 0 61.333 -4.66699 88 -14zM152.998 734.001l168 -115l-22 -28l-181 80z" />
    <glyph glyph-name="glyph343" unicode="&#x1ede;" horiz-adv-x="661" 
d="M483 538c-30 62.667 -80.999 94 -152.999 94c-121.333 0 -182 -89.667 -182 -269c0 -109.333 14.667 -189 44 -239c12.667 -22 34 -40 64 -54c27.333 -13.333 54.666 -20 81.999 -20c118.667 0 178 90 178 270c0 99.333 -11 172 -33 218zM500.001 638
c72 -60.667 107.999 -162.668 107.999 -306.001c0 -125.333 -33.333 -218.333 -100 -279c-48.667 -44 -106.667 -66 -174 -66c-95.333 0 -167 37.667 -215 113c-41.333 64 -62 146 -62 246c0 98.667 20.333 179 61 241c48 74 118.667 111 212 111c32 0 60 -4 84 -12l76 -12
c20 3.33301 32.333 11 37 23h-5c-12 4.66699 -18 14 -18 28c0 22.667 12.667 34 38 34c10.667 0 19.334 -4.66699 26.001 -14s10 -19.666 10 -30.999c0 -22 -13 -40.333 -39 -55c-12.667 -10 -25.667 -17 -39 -21zM262 941.999c24.667 20 55.332 30 91.999 30
c23.333 0 42.5 -7 57.5 -21s22.5 -32.333 22.5 -55c0 -20.667 -8.33301 -39 -25 -55c-12.667 -9.33301 -31 -24 -55 -44c-7.33301 -8 -11 -17 -11 -27c0 -4.66699 0.666992 -9.66699 2 -15h-32c-3.33301 12.667 -5 23 -5 31c0 16 9 32.667 27 50
c18 13.333 28.667 21.666 32 24.999c10.667 10.667 16 22.334 16 35.001c0 28 -16 42 -48 42c-14 0 -30 -4 -48 -12c-9.33301 4.66699 -17.666 10 -24.999 16z" />
    <glyph glyph-name="glyph344" unicode="&#x1edf;" horiz-adv-x="596" 
d="M296 466c-55.333 0 -94.668 -19.332 -118.001 -57.999c-18 -30.667 -27 -75.667 -27 -135c0 -67.333 9 -118 27 -152c24.667 -45.333 67.667 -68 129 -68c56.667 0 96.334 19.667 119.001 59c17.333 30 26 75.333 26 136c0 67.333 -9 117.666 -27 150.999
c-24.667 44.667 -67.667 67 -129 67zM386.998 517.001h55c18.667 3.33301 30 10.333 34 21h-5c-11.333 4 -17 12 -17 24c0 3.33301 0.666992 6.33301 2 9c2.66699 14.667 13.667 22 33 22c9.33301 0 17 -4.33301 23 -13s9 -18 9 -28c0 -4 -0.333008 -7.66699 -1 -11
c-6.66699 -16 -18 -28.667 -34 -38c-12 -10 -24.667 -16.333 -38 -19c12 -7.33301 25 -19.666 39 -36.999c36.667 -44.667 55 -107.667 55 -189s-18.667 -145 -56 -191c-40.667 -50.667 -101 -76 -181 -76c-78 0 -138.667 26.333 -182 79c-40.667 48.667 -61 113 -61 193
c0 79.333 19.333 142.666 58 189.999c42 52 101.667 78 179 78c32 0 61.333 -4.66699 88 -14zM235.998 758.001c23.333 18.667 52.333 28.001 87 28.001c22 0 40.167 -6.66699 54.5 -20s21.5 -30.666 21.5 -51.999c0 -20 -8 -37.667 -24 -53l-29 -22
c-22 -16.667 -33 -31.334 -33 -44.001c0 -4.66699 0.666992 -9.66699 2 -15h-31c-3.33301 11.333 -5 20.666 -5 27.999c0 14.667 8.66699 31 26 49c30.667 22.667 46 41.667 46 57c0 26.667 -15.333 40 -46 40c-13.333 0 -28.333 -4 -45 -12
c-8.66699 4.66699 -16.667 10 -24 16z" />
    <glyph glyph-name="glyph345" unicode="&#x1ee0;" horiz-adv-x="661" 
d="M483 538c-30 62.667 -80.999 94 -152.999 94c-121.333 0 -182 -89.667 -182 -269c0 -109.333 14.667 -189 44 -239c12.667 -22 34 -40 64 -54c27.333 -13.333 54.666 -20 81.999 -20c118.667 0 178 90 178 270c0 99.333 -11 172 -33 218zM500.001 638
c72 -60.667 107.999 -162.668 107.999 -306.001c0 -125.333 -33.333 -218.333 -100 -279c-48.667 -44 -106.667 -66 -174 -66c-95.333 0 -167 37.667 -215 113c-41.333 64 -62 146 -62 246c0 98.667 20.333 179 61 241c48 74 118.667 111 212 111c32 0 60 -4 84 -12l76 -12
c20 3.33301 32.333 11 37 23h-5c-12 4.66699 -18 14 -18 28c0 22.667 12.667 34 38 34c10.667 0 19.334 -4.66699 26.001 -14s10 -19.666 10 -30.999c0 -22 -13 -40.333 -39 -55c-12.667 -10 -25.667 -17 -39 -21zM480 857.999l3.00098 -38c-43.333 -32 -86 -48 -128 -48
c-11.333 0 -27.666 5 -48.999 15s-37.666 15 -48.999 15c-14.667 0 -40 -12 -76 -36l-3 38c43.333 32 85.666 48 126.999 48c11.333 0 27.666 -5 48.999 -15s37.666 -15 48.999 -15c14 0 39.667 12 77 36z" />
    <glyph glyph-name="glyph346" unicode="&#x1ee1;" horiz-adv-x="596" 
d="M296 466c-55.333 0 -94.668 -19.332 -118.001 -57.999c-18 -30.667 -27 -75.667 -27 -135c0 -67.333 9 -118 27 -152c24.667 -45.333 67.667 -68 129 -68c56.667 0 96.334 19.667 119.001 59c17.333 30 26 75.333 26 136c0 67.333 -9 117.666 -27 150.999
c-24.667 44.667 -67.667 67 -129 67zM386.998 517.001h55c18.667 3.33301 30 10.333 34 21h-5c-11.333 4 -17 12 -17 24c0 3.33301 0.666992 6.33301 2 9c2.66699 14.667 13.667 22 33 22c9.33301 0 17 -4.33301 23 -13s9 -18 9 -28c0 -4 -0.333008 -7.66699 -1 -11
c-6.66699 -16 -18 -28.667 -34 -38c-12 -10 -24.667 -16.333 -38 -19c12 -7.33301 25 -19.666 39 -36.999c36.667 -44.667 55 -107.667 55 -189s-18.667 -145 -56 -191c-40.667 -50.667 -101 -76 -181 -76c-78 0 -138.667 26.333 -182 79c-40.667 48.667 -61 113 -61 193
c0 79.333 19.333 142.666 58 189.999c42 52 101.667 78 179 78c32 0 61.333 -4.66699 88 -14zM437.998 674.001l3.00293 -34c-38.667 -28.667 -77.334 -43 -116.001 -43c-10.667 0 -25.334 4.5 -44.001 13.5s-33.334 13.5 -44.001 13.5c-12 0 -34.667 -11 -68 -33l-3 34
c40 29.333 78 44 114 44c10.667 0 25.5 -4.5 44.5 -13.5s33.833 -13.5 44.5 -13.5c12.667 0 35.667 10.667 69 32z" />
    <glyph glyph-name="glyph347" unicode="&#x1ee2;" horiz-adv-x="661" 
d="M483 538c-30 62.667 -80.999 94 -152.999 94c-121.333 0 -182 -89.667 -182 -269c0 -109.333 14.667 -189 44 -239c12.667 -22 34 -40 64 -54c27.333 -13.333 54.666 -20 81.999 -20c118.667 0 178 90 178 270c0 99.333 -11 172 -33 218zM500.001 638
c72 -60.667 107.999 -162.668 107.999 -306.001c0 -125.333 -33.333 -218.333 -100 -279c-48.667 -44 -106.667 -66 -174 -66c-95.333 0 -167 37.667 -215 113c-41.333 64 -62 146 -62 246c0 98.667 20.333 179 61 241c48 74 118.667 111 212 111c32 0 60 -4 84 -12l76 -12
c20 3.33301 32.333 11 37 23h-5c-12 4.66699 -18 14 -18 28c0 22.667 12.667 34 38 34c10.667 0 19.334 -4.66699 26.001 -14s10 -19.666 10 -30.999c0 -22 -13 -40.333 -39 -55c-12.667 -10 -25.667 -17 -39 -21zM278 -97.001c0 15.333 5.5 28.5 16.5 39.5
s24.167 16.5 39.5 16.5c16 0 29.667 -5.33301 41 -16s17 -24 17 -40s-5.33301 -29.833 -16 -41.5s-24 -17.5 -40 -17.5s-29.667 5.83301 -41 17.5s-17 25.5 -17 41.5z" />
    <glyph glyph-name="glyph348" unicode="&#x1ee3;" horiz-adv-x="596" 
d="M296 466c-55.333 0 -94.668 -19.332 -118.001 -57.999c-18 -30.667 -27 -75.667 -27 -135c0 -67.333 9 -118 27 -152c24.667 -45.333 67.667 -68 129 -68c56.667 0 96.334 19.667 119.001 59c17.333 30 26 75.333 26 136c0 67.333 -9 117.666 -27 150.999
c-24.667 44.667 -67.667 67 -129 67zM386.998 517.001h55c18.667 3.33301 30 10.333 34 21h-5c-11.333 4 -17 12 -17 24c0 3.33301 0.666992 6.33301 2 9c2.66699 14.667 13.667 22 33 22c9.33301 0 17 -4.33301 23 -13s9 -18 9 -28c0 -4 -0.333008 -7.66699 -1 -11
c-6.66699 -16 -18 -28.667 -34 -38c-12 -10 -24.667 -16.333 -38 -19c12 -7.33301 25 -19.666 39 -36.999c36.667 -44.667 55 -107.667 55 -189s-18.667 -145 -56 -191c-40.667 -50.667 -101 -76 -181 -76c-78 0 -138.667 26.333 -182 79c-40.667 48.667 -61 113 -61 193
c0 79.333 19.333 142.666 58 189.999c42 52 101.667 78 179 78c32 0 61.333 -4.66699 88 -14zM254.998 -94.999c0 14 4.83301 25.833 14.5 35.5s21.5 14.5 35.5 14.5c14.667 0 27 -4.66699 37 -14s15 -21.333 15 -36c0 -14 -4.83301 -26.333 -14.5 -37s-21.5 -16 -35.5 -16
c-14.667 0 -27 5.16699 -37 15.5s-15 22.833 -15 37.5z" />
    <glyph glyph-name="glyph349" unicode="&#x1ee4;" horiz-adv-x="609" 
d="M79 207l0.000976562 478.999h81v-439c0 -48.667 2.33301 -83.667 7 -105c12 -56 58.333 -84 139 -84c56 0 95 13 117 39c20 24 30 64.333 30 121v468h81v-477c0 -43.333 -2 -73.666 -6 -90.999c-10.667 -46 -40 -80.333 -88 -103c-38 -18 -84 -27 -138 -27
c-102.667 0 -170.334 33 -203.001 99c-13.333 26.667 -20 66.667 -20 120zM246.001 -97.001c0 15.333 5.5 28.5 16.5 39.5s24.167 16.5 39.5 16.5c16 0 29.667 -5.33301 41 -16s17 -24 17 -40s-5.33301 -29.833 -16 -41.5s-24 -17.5 -40 -17.5s-29.667 5.83301 -41 17.5
s-17 25.5 -17 41.5z" />
    <glyph glyph-name="glyph350" unicode="&#x1ee5;" horiz-adv-x="551" 
d="M78 190l-0.000976562 332h80v-313c0 -43.333 2.33301 -72.333 7 -87c13.333 -41.333 51 -62 113 -62c43.333 0 74.333 10.667 93 32c16.667 20 25 52 25 96v334h80v-332c0 -37.333 -2 -64.666 -6 -81.999c-9.33301 -41.333 -34 -72 -74 -92
c-32.667 -16.667 -72.667 -25 -120 -25c-103.333 0 -166.666 38 -189.999 114c-5.33301 17.333 -8 45.666 -8 84.999zM224.999 -95c0 14 4.83301 25.833 14.5 35.5s21.5 14.5 35.5 14.5c14.667 0 27 -4.66699 37 -14s15 -21.333 15 -36c0 -14 -4.83301 -26.333 -14.5 -37
s-21.5 -16 -35.5 -16c-14.667 0 -27 5.16699 -37 15.5s-15 22.833 -15 37.5z" />
    <glyph glyph-name="glyph351" unicode="&#x1ee6;" horiz-adv-x="609" 
d="M79 207l0.000976562 478.999h81v-439c0 -48.667 2.33301 -83.667 7 -105c12 -56 58.333 -84 139 -84c56 0 95 13 117 39c20 24 30 64.333 30 121v468h81v-477c0 -43.333 -2 -73.666 -6 -90.999c-10.667 -46 -40 -80.333 -88 -103c-38 -18 -84 -27 -138 -27
c-102.667 0 -170.334 33 -203.001 99c-13.333 26.667 -20 66.667 -20 120zM240.001 906.999c24.667 20 55.332 30 91.999 30c23.333 0 42.5 -7 57.5 -21s22.5 -32.333 22.5 -55c0 -20.667 -8.33301 -39 -25 -55c-12.667 -9.33301 -31 -24 -55 -44
c-7.33301 -8 -11 -17 -11 -27c0 -4.66699 0.666992 -9.66699 2 -15h-32c-3.33301 12.667 -5 23 -5 31c0 16 9 32.667 27 50c18 13.333 28.667 21.666 32 24.999c10.667 10.667 16 22.334 16 35.001c0 28 -16 42 -48 42c-14 0 -30 -4 -48 -12
c-9.33301 4.66699 -17.666 10 -24.999 16z" />
    <glyph glyph-name="glyph352" unicode="&#x1ee7;" horiz-adv-x="551" 
d="M78 190l-0.000976562 332h80v-313c0 -43.333 2.33301 -72.333 7 -87c13.333 -41.333 51 -62 113 -62c43.333 0 74.333 10.667 93 32c16.667 20 25 52 25 96v334h80v-332c0 -37.333 -2 -64.666 -6 -81.999c-9.33301 -41.333 -34 -72 -74 -92
c-32.667 -16.667 -72.667 -25 -120 -25c-103.333 0 -166.666 38 -189.999 114c-5.33301 17.333 -8 45.666 -8 84.999zM235.999 728c23.333 18.667 52.333 28.001 87 28.001c22 0 40.167 -6.66699 54.5 -20s21.5 -30.666 21.5 -51.999c0 -20 -8 -37.667 -24 -53l-29 -22
c-22 -16.667 -33 -31.334 -33 -44.001c0 -4.66699 0.666992 -9.66699 2 -15h-31c-3.33301 11.333 -5 20.666 -5 27.999c0 14.667 8.66699 31 26 49c30.667 22.667 46 41.667 46 57c0 26.667 -15.333 40 -46 40c-13.333 0 -28.333 -4 -45 -12
c-8.66699 4.66699 -16.667 10 -24 16z" />
    <glyph glyph-name="glyph353" unicode="&#x1ee8;" horiz-adv-x="609" 
d="M534 637l0.000976562 -428.002c0 -43.333 -2 -73.666 -6 -90.999c-10.667 -46 -40 -80.333 -88 -103c-38 -18 -84 -27 -138 -27c-102.667 0 -170.334 33 -203.001 99c-13.333 26.667 -20 66.667 -20 120v479h81v-439c0 -48.667 2.33301 -83.667 7 -105
c12 -56 58.333 -84 139 -84c56 0 95 13 117 39c20 24 30 64.333 30 121v468l76 -12c20 3.33301 32.333 11 37 23h-5c-12 4.66699 -18 14 -18 28c0 22.667 12.667 34 38 34c10.667 0 19.334 -4.66699 26.001 -14s10 -19.666 10 -30.999c0 -22 -13 -40.333 -39 -55
c-12.667 -10.667 -27.334 -18 -44.001 -22zM284.001 762.998l186 127l39 -69l-202 -90z" />
    <glyph glyph-name="glyph354" unicode="&#x1ee9;" horiz-adv-x="551" 
d="M476 484l-0.000976562 -294.001c0 -37.333 -2 -64.666 -6 -81.999c-9.33301 -41.333 -34 -72 -74 -92c-32.667 -16.667 -72.667 -25 -120 -25c-103.333 0 -166.666 38 -189.999 114c-5.33301 17.333 -8 45.666 -8 84.999v332h80v-313c0 -43.333 2.33301 -72.333 7 -87
c13.333 -41.333 51 -62 113 -62c43.333 0 74.333 10.667 93 32c16.667 20 25 52 25 96v334l76 -5c17.333 3.33301 28.333 10.333 33 21h-5c-11.333 4 -17 12 -17 24c0 3.33301 0.666992 6.33301 2 9c2.66699 14.667 13.667 22 33 22c9.33301 0 17 -4.33301 23 -13
s9 -18 9 -28c0 -4 -0.333008 -7.66699 -1 -11c-6.66699 -16 -18 -28.667 -34 -38c-12 -9.33301 -25 -15.666 -39 -18.999zM254.999 587.999l167 115l35 -63l-181 -80z" />
    <glyph glyph-name="glyph355" unicode="&#x1eea;" horiz-adv-x="609" 
d="M534 637l0.000976562 -428.002c0 -43.333 -2 -73.666 -6 -90.999c-10.667 -46 -40 -80.333 -88 -103c-38 -18 -84 -27 -138 -27c-102.667 0 -170.334 33 -203.001 99c-13.333 26.667 -20 66.667 -20 120v479h81v-439c0 -48.667 2.33301 -83.667 7 -105
c12 -56 58.333 -84 139 -84c56 0 95 13 117 39c20 24 30 64.333 30 121v468l76 -12c20 3.33301 32.333 11 37 23h-5c-12 4.66699 -18 14 -18 28c0 22.667 12.667 34 38 34c10.667 0 19.334 -4.66699 26.001 -14s10 -19.666 10 -30.999c0 -22 -13 -40.333 -39 -55
c-12.667 -10.667 -27.334 -18 -44.001 -22zM147.001 888.998l186 -127l-24 -32l-201 90z" />
    <glyph glyph-name="glyph356" unicode="&#x1eeb;" horiz-adv-x="551" 
d="M476 484l-0.000976562 -294.001c0 -37.333 -2 -64.666 -6 -81.999c-9.33301 -41.333 -34 -72 -74 -92c-32.667 -16.667 -72.667 -25 -120 -25c-103.333 0 -166.666 38 -189.999 114c-5.33301 17.333 -8 45.666 -8 84.999v332h80v-313c0 -43.333 2.33301 -72.333 7 -87
c13.333 -41.333 51 -62 113 -62c43.333 0 74.333 10.667 93 32c16.667 20 25 52 25 96v334l76 -5c17.333 3.33301 28.333 10.333 33 21h-5c-11.333 4 -17 12 -17 24c0 3.33301 0.666992 6.33301 2 9c2.66699 14.667 13.667 22 33 22c9.33301 0 17 -4.33301 23 -13
s9 -18 9 -28c0 -4 -0.333008 -7.66699 -1 -11c-6.66699 -16 -18 -28.667 -34 -38c-12 -9.33301 -25 -15.666 -39 -18.999zM130.999 703.999l168 -115l-22 -28l-181 80z" />
    <glyph glyph-name="glyph357" unicode="&#x1eec;" horiz-adv-x="609" 
d="M534 637l0.000976562 -428.002c0 -43.333 -2 -73.666 -6 -90.999c-10.667 -46 -40 -80.333 -88 -103c-38 -18 -84 -27 -138 -27c-102.667 0 -170.334 33 -203.001 99c-13.333 26.667 -20 66.667 -20 120v479h81v-439c0 -48.667 2.33301 -83.667 7 -105
c12 -56 58.333 -84 139 -84c56 0 95 13 117 39c20 24 30 64.333 30 121v468l76 -12c20 3.33301 32.333 11 37 23h-5c-12 4.66699 -18 14 -18 28c0 22.667 12.667 34 38 34c10.667 0 19.334 -4.66699 26.001 -14s10 -19.666 10 -30.999c0 -22 -13 -40.333 -39 -55
c-12.667 -10.667 -27.334 -18 -44.001 -22zM240.001 906.998c24.667 20 55.332 30 91.999 30c23.333 0 42.5 -7 57.5 -21s22.5 -32.333 22.5 -55c0 -20.667 -8.33301 -39 -25 -55c-12.667 -9.33301 -31 -24 -55 -44c-7.33301 -8 -11 -17 -11 -27
c0 -4.66699 0.666992 -9.66699 2 -15h-32c-3.33301 12.667 -5 23 -5 31c0 16 9 32.667 27 50c18 13.333 28.667 21.666 32 24.999c10.667 10.667 16 22.334 16 35.001c0 28 -16 42 -48 42c-14 0 -30 -4 -48 -12c-9.33301 4.66699 -17.666 10 -24.999 16z" />
    <glyph glyph-name="glyph358" unicode="&#x1eed;" horiz-adv-x="551" 
d="M476 484l-0.000976562 -294.001c0 -37.333 -2 -64.666 -6 -81.999c-9.33301 -41.333 -34 -72 -74 -92c-32.667 -16.667 -72.667 -25 -120 -25c-103.333 0 -166.666 38 -189.999 114c-5.33301 17.333 -8 45.666 -8 84.999v332h80v-313c0 -43.333 2.33301 -72.333 7 -87
c13.333 -41.333 51 -62 113 -62c43.333 0 74.333 10.667 93 32c16.667 20 25 52 25 96v334l76 -5c17.333 3.33301 28.333 10.333 33 21h-5c-11.333 4 -17 12 -17 24c0 3.33301 0.666992 6.33301 2 9c2.66699 14.667 13.667 22 33 22c9.33301 0 17 -4.33301 23 -13
s9 -18 9 -28c0 -4 -0.333008 -7.66699 -1 -11c-6.66699 -16 -18 -28.667 -34 -38c-12 -9.33301 -25 -15.666 -39 -18.999zM235.999 727.999c23.333 18.667 52.333 28.001 87 28.001c22 0 40.167 -6.66699 54.5 -20s21.5 -30.666 21.5 -51.999c0 -20 -8 -37.667 -24 -53
l-29 -22c-22 -16.667 -33 -31.334 -33 -44.001c0 -4.66699 0.666992 -9.66699 2 -15h-31c-3.33301 11.333 -5 20.666 -5 27.999c0 14.667 8.66699 31 26 49c30.667 22.667 46 41.667 46 57c0 26.667 -15.333 40 -46 40c-13.333 0 -28.333 -4 -45 -12
c-8.66699 4.66699 -16.667 10 -24 16z" />
    <glyph glyph-name="glyph359" unicode="&#x1eee;" horiz-adv-x="609" 
d="M534 637l0.000976562 -428.002c0 -43.333 -2 -73.666 -6 -90.999c-10.667 -46 -40 -80.333 -88 -103c-38 -18 -84 -27 -138 -27c-102.667 0 -170.334 33 -203.001 99c-13.333 26.667 -20 66.667 -20 120v479h81v-439c0 -48.667 2.33301 -83.667 7 -105
c12 -56 58.333 -84 139 -84c56 0 95 13 117 39c20 24 30 64.333 30 121v468l76 -12c20 3.33301 32.333 11 37 23h-5c-12 4.66699 -18 14 -18 28c0 22.667 12.667 34 38 34c10.667 0 19.334 -4.66699 26.001 -14s10 -19.666 10 -30.999c0 -22 -13 -40.333 -39 -55
c-12.667 -10.667 -27.334 -18 -44.001 -22zM456.001 821.998l3.00098 -38c-43.333 -32 -86 -48 -128 -48c-11.333 0 -27.666 5 -48.999 15s-37.666 15 -48.999 15c-14.667 0 -40 -12 -76 -36l-3 38c43.333 32 85.666 48 126.999 48c11.333 0 27.666 -5 48.999 -15
s37.666 -15 48.999 -15c14 0 39.667 12 77 36z" />
    <glyph glyph-name="glyph360" unicode="&#x1eef;" horiz-adv-x="551" 
d="M476 484l-0.000976562 -294.001c0 -37.333 -2 -64.666 -6 -81.999c-9.33301 -41.333 -34 -72 -74 -92c-32.667 -16.667 -72.667 -25 -120 -25c-103.333 0 -166.666 38 -189.999 114c-5.33301 17.333 -8 45.666 -8 84.999v332h80v-313c0 -43.333 2.33301 -72.333 7 -87
c13.333 -41.333 51 -62 113 -62c43.333 0 74.333 10.667 93 32c16.667 20 25 52 25 96v334l76 -5c17.333 3.33301 28.333 10.333 33 21h-5c-11.333 4 -17 12 -17 24c0 3.33301 0.666992 6.33301 2 9c2.66699 14.667 13.667 22 33 22c9.33301 0 17 -4.33301 23 -13
s9 -18 9 -28c0 -4 -0.333008 -7.66699 -1 -11c-6.66699 -16 -18 -28.667 -34 -38c-12 -9.33301 -25 -15.666 -39 -18.999zM411.999 643.999l3.00293 -34c-38.667 -28.667 -77.334 -43 -116.001 -43c-10.667 0 -25.334 4.5 -44.001 13.5s-33.334 13.5 -44.001 13.5
c-12 0 -34.667 -11 -68 -33l-3 34c40 29.333 78 44 114 44c10.667 0 25.5 -4.5 44.5 -13.5s33.833 -13.5 44.5 -13.5c12.667 0 35.667 10.667 69 32z" />
    <glyph glyph-name="glyph361" unicode="&#x1ef0;" horiz-adv-x="609" 
d="M534 637l0.000976562 -428.002c0 -43.333 -2 -73.666 -6 -90.999c-10.667 -46 -40 -80.333 -88 -103c-38 -18 -84 -27 -138 -27c-102.667 0 -170.334 33 -203.001 99c-13.333 26.667 -20 66.667 -20 120v479h81v-439c0 -48.667 2.33301 -83.667 7 -105
c12 -56 58.333 -84 139 -84c56 0 95 13 117 39c20 24 30 64.333 30 121v468l76 -12c20 3.33301 32.333 11 37 23h-5c-12 4.66699 -18 14 -18 28c0 22.667 12.667 34 38 34c10.667 0 19.334 -4.66699 26.001 -14s10 -19.666 10 -30.999c0 -22 -13 -40.333 -39 -55
c-12.667 -10.667 -27.334 -18 -44.001 -22zM246.001 -97.002c0 15.333 5.5 28.5 16.5 39.5s24.167 16.5 39.5 16.5c16 0 29.667 -5.33301 41 -16s17 -24 17 -40s-5.33301 -29.833 -16 -41.5s-24 -17.5 -40 -17.5s-29.667 5.83301 -41 17.5s-17 25.5 -17 41.5z" />
    <glyph glyph-name="glyph362" unicode="&#x1ef1;" horiz-adv-x="551" 
d="M476 484l-0.000976562 -294.001c0 -37.333 -2 -64.666 -6 -81.999c-9.33301 -41.333 -34 -72 -74 -92c-32.667 -16.667 -72.667 -25 -120 -25c-103.333 0 -166.666 38 -189.999 114c-5.33301 17.333 -8 45.666 -8 84.999v332h80v-313c0 -43.333 2.33301 -72.333 7 -87
c13.333 -41.333 51 -62 113 -62c43.333 0 74.333 10.667 93 32c16.667 20 25 52 25 96v334l76 -5c17.333 3.33301 28.333 10.333 33 21h-5c-11.333 4 -17 12 -17 24c0 3.33301 0.666992 6.33301 2 9c2.66699 14.667 13.667 22 33 22c9.33301 0 17 -4.33301 23 -13
s9 -18 9 -28c0 -4 -0.333008 -7.66699 -1 -11c-6.66699 -16 -18 -28.667 -34 -38c-12 -9.33301 -25 -15.666 -39 -18.999zM224.999 -95.001c0 14 4.83301 25.833 14.5 35.5s21.5 14.5 35.5 14.5c14.667 0 27 -4.66699 37 -14s15 -21.333 15 -36
c0 -14 -4.83301 -26.333 -14.5 -37s-21.5 -16 -35.5 -16c-14.667 0 -27 5.16699 -37 15.5s-15 22.833 -15 37.5z" />
    <glyph glyph-name="glyph363" unicode="&#x1ef2;" horiz-adv-x="537" 
d="M227 272l-221 414h101l130 -262c17.333 -34.667 29 -60.334 35 -77.001c6 14.667 18.333 40.334 37 77.001l132 262h94l-223 -419v-267h-85v272zM110 889l186 -127l-24 -32l-201 90z" />
    <glyph glyph-name="glyph364" unicode="&#x1ef3;" horiz-adv-x="493" 
d="M207 210l-188.999 313h98l105 -176c10.667 -17.333 20.667 -38 30 -62c7.33301 18.667 17.666 39 30.999 61l106 176h92l-190 -313v-209h-83v210zM104.001 704l168 -115l-22 -28l-181 80z" />
    <glyph glyph-name="glyph365" unicode="&#x1ef4;" horiz-adv-x="537" 
d="M227 272l-221 414h101l130 -262c17.333 -34.667 29 -60.334 35 -77.001c6 14.667 18.333 40.334 37 77.001l132 262h94l-223 -419v-267h-85v272zM213 -86c0 15.333 5.5 28.5 16.5 39.5s24.167 16.5 39.5 16.5c16 0 29.667 -5.33301 41 -16s17 -24 17 -40
s-5.33301 -29.833 -16 -41.5s-24 -17.5 -40 -17.5s-29.667 5.83301 -41 17.5s-17 25.5 -17 41.5z" />
    <glyph glyph-name="glyph366" unicode="&#x1ef5;" horiz-adv-x="493" 
d="M207 210l-188.999 313h98l105 -176c10.667 -17.333 20.667 -38 30 -62c7.33301 18.667 17.666 39 30.999 61l106 176h92l-190 -313v-209h-83v210zM198.001 -80c0 14 4.83301 25.833 14.5 35.5s21.5 14.5 35.5 14.5c14.667 0 27 -4.66699 37 -14s15 -21.333 15 -36
c0 -14 -4.83301 -26.333 -14.5 -37s-21.5 -16 -35.5 -16c-14.667 0 -27 5.16699 -37 15.5s-15 22.833 -15 37.5z" />
    <glyph glyph-name="glyph367" unicode="&#x1ef6;" horiz-adv-x="537" 
d="M227 272l-221 414h101l130 -262c17.333 -34.667 29 -60.334 35 -77.001c6 14.667 18.333 40.334 37 77.001l132 262h94l-223 -419v-267h-85v272zM205 907c24.667 20 55.332 30 91.999 30c23.333 0 42.5 -7 57.5 -21s22.5 -32.333 22.5 -55
c0 -20.667 -8.33301 -39 -25 -55c-12.667 -9.33301 -31 -24 -55 -44c-7.33301 -8 -11 -17 -11 -27c0 -4.66699 0.666992 -9.66699 2 -15h-32c-3.33301 12.667 -5 23 -5 31c0 16 9 32.667 27 50c18 13.333 28.667 21.666 32 24.999c10.667 10.667 16 22.334 16 35.001
c0 28 -16 42 -48 42c-14 0 -30 -4 -48 -12c-9.33301 4.66699 -17.666 10 -24.999 16z" />
    <glyph glyph-name="glyph368" unicode="&#x1ef7;" horiz-adv-x="493" 
d="M207 210l-188.999 313h98l105 -176c10.667 -17.333 20.667 -38 30 -62c7.33301 18.667 17.666 39 30.999 61l106 176h92l-190 -313v-209h-83v210zM186.001 728c23.333 18.667 52.333 28.001 87 28.001c22 0 40.167 -6.66699 54.5 -20s21.5 -30.666 21.5 -51.999
c0 -20 -8 -37.667 -24 -53l-29 -22c-22 -16.667 -33 -31.334 -33 -44.001c0 -4.66699 0.666992 -9.66699 2 -15h-31c-3.33301 11.333 -5 20.666 -5 27.999c0 14.667 8.66699 31 26 49c30.667 22.667 46 41.667 46 57c0 26.667 -15.333 40 -46 40
c-13.333 0 -28.333 -4 -45 -12c-8.66699 4.66699 -16.667 10 -24 16z" />
    <glyph glyph-name="glyph369" unicode="&#x1ef8;" horiz-adv-x="537" 
d="M227 272l-221 414h101l130 -262c17.333 -34.667 29 -60.334 35 -77.001c6 14.667 18.333 40.334 37 77.001l132 262h94l-223 -419v-267h-85v272zM425 823l3.00098 -38c-43.333 -32 -86 -48 -128 -48c-11.333 0 -27.666 5 -48.999 15s-37.666 15 -48.999 15
c-14.667 0 -40 -12 -76 -36l-3 38c43.333 32 85.666 48 126.999 48c11.333 0 27.666 -5 48.999 -15s37.666 -15 48.999 -15c14 0 39.667 12 77 36z" />
    <glyph glyph-name="glyph370" unicode="&#x1ef9;" horiz-adv-x="493" 
d="M207 210l-188.999 313h98l105 -176c10.667 -17.333 20.667 -38 30 -62c7.33301 18.667 17.666 39 30.999 61l106 176h92l-190 -313v-209h-83v210zM389.001 644l3.00293 -34c-38.667 -28.667 -77.334 -43 -116.001 -43c-10.667 0 -25.334 4.5 -44.001 13.5
s-33.334 13.5 -44.001 13.5c-12 0 -34.667 -11 -68 -33l-3 34c40 29.333 78 44 114 44c10.667 0 25.5 -4.5 44.5 -13.5s33.833 -13.5 44.5 -13.5c12.667 0 35.667 10.667 69 32z" />
    <glyph glyph-name="endash" unicode="&#x2013;" horiz-adv-x="481" 
d="M-3 250v59h485v-59h-485z" />
    <glyph glyph-name="emdash" unicode="&#x2014;" horiz-adv-x="959" 
d="M124 250v59h712v-59h-712z" />
    <glyph glyph-name="quoteleft" unicode="&#x2018;" horiz-adv-x="260" 
d="M169 708l5 3l28 -44c-39.333 -19.333 -62 -49 -68 -89l11 2c16 0 29.167 -6.5 39.5 -19.5s15.5 -27.833 15.5 -44.5c0 -20 -6.66699 -37.167 -20 -51.5s-30 -21.5 -50 -21.5c-26 0 -46 10 -60 30c-12.667 18 -19 40.333 -19 67c0 64.667 39.333 120.667 118 168z" />
    <glyph glyph-name="quoteright" unicode="&#x2019;" horiz-adv-x="260" 
d="M81 433l-5 -3.00098l-28 44c40 19.333 62.667 49 68 89c-3.33301 -0.666992 -7 -1 -11 -1c-16.667 0 -30 6.33301 -40 19s-15 27.667 -15 45c0 20 6.66699 37 20 51s30 21 50 21c25.333 0 45.333 -10 60 -30c12.667 -17.333 19 -39.333 19 -66
c0 -65.333 -39.333 -121.666 -118 -168.999z" />
    <glyph glyph-name="quotesinglbase" unicode="&#x201a;" horiz-adv-x="267" 
d="M90 -140l-4.99902 -3l-28 44c39.333 19.333 61.666 49 66.999 89c-3.33301 -0.666992 -7 -1 -11 -1c-16 0 -29.167 6.5 -39.5 19.5s-15.5 27.833 -15.5 44.5c0 20 6.66699 37 20 51s30 21 50 21c25.333 0 45.333 -10 60 -30c12.667 -17.333 19 -39.333 19 -66
c0 -66 -39 -122.333 -117 -169z" />
    <glyph glyph-name="quotedblleft" unicode="&#x201c;" horiz-adv-x="456" 
d="M366 708l5 3l28 -44c-39.333 -19.333 -62 -49 -68 -89l11 2c16 0 29.333 -6.5 40 -19.5s16 -27.833 16 -44.5c0 -20 -6.83301 -37.167 -20.5 -51.5s-30.5 -21.5 -50.5 -21.5c-26 0 -46 10 -60 30c-12.667 18 -19 40.333 -19 67c0 64.667 39.333 120.667 118 168zM169 708
l5 3l28 -44c-39.333 -19.333 -62 -49 -68 -89l11 2c16 0 29.167 -6.5 39.5 -19.5s15.5 -27.833 15.5 -44.5c0 -20 -6.66699 -37.167 -20 -51.5s-30 -21.5 -50 -21.5c-26 0 -46 10 -60 30c-12.667 18 -19 40.333 -19 67c0 64.667 39.333 120.667 118 168z" />
    <glyph glyph-name="quotedblright" unicode="&#x201d;" horiz-adv-x="459" 
d="M81 433l-5 -3.00098l-28 44c40 19.333 62.667 49 68 89c-3.33301 -0.666992 -7 -1 -11 -1c-16.667 0 -30 6.33301 -40 19s-15 27.667 -15 45c0 20 6.66699 37 20 51s30 21 50 21c25.333 0 45.333 -10 60 -30c12.667 -17.333 19 -39.333 19 -66
c0 -65.333 -39.333 -121.666 -118 -168.999zM278 432.999l-3.99902 -3l-29 44c40 19.333 62.667 49 68 89c-3.33301 -0.666992 -7 -1 -11 -1c-16.667 0 -30 6.33301 -40 19s-15 27.667 -15 45c0 20 6.66699 37 20 51s30 21 50 21c25.333 0 45.333 -10 60 -30
c12.667 -17.333 19 -39.333 19 -66c0 -36.667 -12.667 -71 -38 -103c-16.667 -21.333 -43.334 -43.333 -80.001 -66z" />
    <glyph glyph-name="quotedblbase" unicode="&#x201e;" horiz-adv-x="461" 
d="M90 -140l-4.99902 -3l-28 44c39.333 19.333 61.666 49 66.999 89c-3.33301 -0.666992 -7 -1 -11 -1c-16 0 -29.167 6.5 -39.5 19.5s-15.5 27.833 -15.5 44.5c0 20 6.66699 37 20 51s30 21 50 21c25.333 0 45.333 -10 60 -30c12.667 -17.333 19 -39.333 19 -66
c0 -66 -39 -122.333 -117 -169zM287.001 -140l-5 -3.00098l-28 44c39.333 19.333 61.666 49 66.999 89c-3.33301 -0.666992 -6.66602 -1 -9.99902 -1c-16 0 -29.333 6.5 -40 19.5s-16 27.833 -16 44.5c0 20 6.83301 37 20.5 51s30.5 21 50.5 21c25.333 0 45.333 -10 60 -30
c12.667 -17.333 19 -39.333 19 -66c0 -65.333 -39.333 -121.666 -118 -168.999z" />
    <glyph glyph-name="dagger" unicode="&#x2020;" horiz-adv-x="434" 
d="M26 524h157v162h79v-162h160l-10 -69h-150v-455h-79v455h-157v69z" />
    <glyph glyph-name="daggerdbl" unicode="&#x2021;" horiz-adv-x="434" 
d="M33 231h150v224h-157v69h157v162h79v-162h160l-10 -69h-150v-224h157v-69h-157v-162h-79v162h-160z" />
    <glyph glyph-name="bullet" unicode="&#x2022;" horiz-adv-x="500" 
d="M73 354c0 49.333 17.167 91.166 51.5 125.499s76.166 51.5 125.499 51.5s91.166 -17.167 125.499 -51.5s51.5 -76.166 51.5 -125.499s-17.167 -91.166 -51.5 -125.499s-76.166 -51.5 -125.499 -51.5s-91.166 17.167 -125.499 51.5s-51.5 76.166 -51.5 125.499z" />
    <glyph glyph-name="ellipsis" unicode="&#x2026;" horiz-adv-x="688" 
d="M46 56c0 18.667 6.33301 34.334 19 47.001s28.334 19 47.001 19c19.333 0 35.5 -6.16699 48.5 -18.5s19.5 -28.166 19.5 -47.499c0 -18.667 -6.33301 -34.834 -19 -48.501s-28.334 -20.5 -47.001 -20.5c-19.333 0 -35.5 6.66699 -48.5 20s-19.5 29.666 -19.5 48.999z
M276 56c0 18.667 6.33301 34.334 19 47.001s28.334 19 47.001 19c19.333 0 35.5 -6.16699 48.5 -18.5s19.5 -28.166 19.5 -47.499c0 -18.667 -6.33301 -34.834 -19 -48.501s-28.334 -20.5 -47.001 -20.5c-19.333 0 -35.5 6.66699 -48.5 20s-19.5 29.666 -19.5 48.999z
M506 56c0 18.667 6.33301 34.334 19 47.001s28.334 19 47.001 19c19.333 0 35.5 -6.16699 48.5 -18.5s19.5 -28.166 19.5 -47.499c0 -18.667 -6.33301 -34.834 -19 -48.501s-28.334 -20.5 -47.001 -20.5c-19.333 0 -35.5 6.66699 -48.5 20s-19.5 29.666 -19.5 48.999z" />
    <glyph glyph-name="perthousand" unicode="&#x2030;" horiz-adv-x="1201" 
d="M221 0l333 681h66l-333 -681h-66zM34 521c0 52 13.834 93.333 41.501 124s67.167 46 118.5 46c53.333 0 93.666 -15.833 120.999 -47.5s41 -74.5 41 -128.5c0 -50.667 -14.333 -91 -43 -121s-68 -45 -118 -45c-51.333 0 -91 15.667 -119 47s-42 73 -42 125zM480.001 162
c0 52 13.834 93.333 41.501 124s67.167 46 118.5 46c53.333 0 93.666 -15.833 120.999 -47.5s41 -74.5 41 -128.5c0 -50.667 -14.333 -91 -43 -121s-68 -45 -118 -45c-51.333 0 -91 15.667 -119 47s-42 73 -42 125zM850.002 162c0 52 13.834 93.333 41.501 124
s67.167 46 118.5 46c53.333 0 93.666 -15.833 120.999 -47.5s41 -74.5 41 -128.5c0 -50.667 -14.333 -91 -43 -121s-68 -45 -118 -45c-51.333 0 -91 15.667 -119 47s-42 73 -42 125zM639.003 277c-60.667 0 -91 -35.666 -91 -106.999c0 -40.667 5.66699 -70.334 17 -89.001
c14.667 -24 41 -36 79 -36c60.667 0 91 35.667 91 107c0 83.333 -32 125 -96 125zM193.003 636.001c-60.667 0 -91 -35.666 -91 -106.999c0 -40.667 5.66699 -70.334 17 -89.001c14.667 -24 41 -36 79 -36c60.667 0 91 35.667 91 107c0 83.333 -32 125 -96 125z
M1009 277.002c-60.667 0 -91 -35.666 -91 -106.999c0 -40.667 5.66699 -70.334 17 -89.001c14.667 -24 41 -36 79 -36c60.667 0 91 35.667 91 107c0 83.333 -32 125 -96 125z" />
    <glyph glyph-name="guilsinglleft" unicode="&#x2039;" horiz-adv-x="314" 
d="M256 418l-117 -178l117 -178l-55 -36l-143 214l143 214z" />
    <glyph glyph-name="guilsinglright" unicode="&#x203a;" horiz-adv-x="314" 
d="M58 62l117 178l-117 178l55 36l143 -214l-143 -214z" />
    <glyph glyph-name="fraction" unicode="&#x2044;" horiz-adv-x="339" 
d="M-98 -154l527 917h66l-527 -917h-66z" />
    <glyph glyph-name="franc" unicode="&#x20a3;" horiz-adv-x="1035" 
d="M90 0v683h361l-13 -68h-265v-222h220v-67h-220v-326h-83zM740 0l-0.000976562 522.001h140c71.333 0 121.333 -9 150 -27c42.667 -26.667 64 -66 64 -118c0 -47.333 -14.167 -83.5 -42.5 -108.5s-66.833 -37.833 -115.5 -38.5c10.667 -5.33301 20 -13 28 -23
c14 -16.667 40 -49.334 78 -98.001l83 -109h-99c-9.33301 19.333 -25 45.333 -47 78c-39.333 58.667 -72.666 100 -99.999 124c-17.333 15.333 -37 24 -59 26v-228h-80zM882.999 456.001h-63v-172h54c42 0 73 4.66699 93 14c29.333 14 44 39.333 44 76
c0 54.667 -42.667 82 -128 82z" />
    <glyph glyph-name="u20AB" unicode="&#x20ab;" horiz-adv-x="393" 
d="M197 501c-32 0 -60 -29.333 -84 -88c-13.333 -32.667 -20 -62.667 -20 -90c0 -34 13 -51 39 -51c27.333 0 52 23.667 74 71c18.667 40 28 75.667 28 107c0 34 -12.333 51 -37 51zM200 267c-35.333 -41.333 -70.667 -62.001 -106 -62.001c-60.667 0 -91 34 -91 102
c0 54.667 18 105.667 54 153c38.667 52 84.334 78 137.001 78c22.667 0 43 -8 61 -24l20 75h-100l10 36h100l2 16c0 20.667 -16 31.334 -48 32.001l7 33c45.333 1.33301 88 6 128 14l15 3c4 0 6 -3 6 -9l-3 -12l-19 -77h65l-10 -36h-65l-69 -280
c-3.33301 -13.333 -5 -22.333 -5 -27c0 -10 4 -15 12 -15c4 0 20.333 14 49 42l20 -18c-46.667 -57.333 -85.667 -86 -117 -86c-28.667 0 -46.334 20.667 -53.001 62zM8.99902 159.999h221v-56h-221v56z" />
    <glyph glyph-name="trademark" unicode="&#x2122;" horiz-adv-x="990" 
d="M194 296v346h-130v66h326v-66h-130v-346h-66zM473 296v412h105l123 -313l123 313h102v-412h-66v346h-2l-136 -346h-45l-136 346h-2v-346h-66z" />
    <glyph glyph-name="minus" unicode="&#x2212;" horiz-adv-x="500" 
d="M36 214v72h428v-72h-428z" />
    <glyph glyph-name="notequal" unicode="&#x2260;" horiz-adv-x="666" 
d="M65 414h300l109 179l46 -30l-91 -149h158v-66h-198l-55 -90h253v-66h-293l-109 -179l-46 30l91 149h-165v66h205l55 90h-260v66z" />
    <glyph glyph-name="SF370000" unicode="&#x255f;" horiz-adv-x="718" 
d="M233 686h107l227 -686h-93l-65 211h-256l-66 -211h-83zM249 513l-73 -235h212l-105 336z" />
    <glyph glyph-name="SF420000" unicode="&#x2560;" horiz-adv-x="681" 
d="M92 0v681h375l-11 -68h-281v-222h235v-71h-235v-249h302v-71h-385z" />
    <glyph glyph-name="SF190000" unicode="&#x2561;" horiz-adv-x="429" 
d="M94 0v686h80v-686h-80z" />
    <glyph glyph-name="SF200000" unicode="&#x2562;" horiz-adv-x="773" 
d="M57 346c0 98.667 20.334 179 61.001 241c48 74 118.667 111 212 111c97.333 0 170 -38.667 218 -116c40 -64 60 -147.333 60 -250c0 -125.333 -33.333 -218.333 -100 -279c-48.667 -44 -106.667 -66 -174 -66c-94.667 0 -166.334 37.667 -215.001 113
c-41.333 64 -62 146 -62 246zM483.001 538c-30 62.667 -80.999 94 -152.999 94c-71.333 0 -121.333 -29 -150 -87c-21.333 -42 -32 -102.667 -32 -182c0 -110 14.667 -189.667 44 -239c12.667 -22 34 -40 64 -54c27.333 -13.333 54.666 -20 81.999 -20
c118.667 0 178 90 178 270c0 99.333 -11 172 -33 218z" />
    <glyph glyph-name="SF230000" unicode="&#x2563;" horiz-adv-x="811" 
d="M79 207l0.000976562 478.999h81v-439c0 -48.667 2.33301 -83.667 7 -105c12 -56 58.333 -84 139 -84c56 0 95 13 117 39c20 24 30 64.333 30 121v468h81v-477c0 -43.333 -2 -73.666 -6 -90.999c-10.667 -46.667 -40 -81 -88 -103c-38 -18 -84 -27 -138 -27
c-102.667 0 -170.334 33 -203.001 99c-13.333 26.667 -20 66.667 -20 120z" />
    <glyph glyph-name="SF470000" unicode="&#x2564;" horiz-adv-x="699" 
d="M227 272l-221 413.999h101l130 -262c16.667 -33.333 28.334 -59 35.001 -77c5.33301 12.667 17.666 38.334 36.999 77.001l132 262h94l-223 -419v-267h-85v272z" />
    <glyph glyph-name="SF480000" unicode="&#x2565;" horiz-adv-x="541" 
d="M211 522h100l193 -522h-90l-53 145h-210l-54 -145h-81zM258 451l-85 -240h169c-2 4 -30 84 -84 240z" />
    <glyph glyph-name="SF410000" unicode="&#x2566;" horiz-adv-x="431" 
d="M90 0v520h325l-11 -67h-234v-148h196v-67h-195v-168h253v-70h-334z" />
    <glyph glyph-name="SF450000" unicode="&#x2567;" horiz-adv-x="314" 
d="M92 0v523h80v-523h-80z" />
    <glyph glyph-name="SF460000" unicode="&#x2568;" horiz-adv-x="314" 
d="M92 0v523h80v-523h-80z" />
    <glyph glyph-name="SF400000" unicode="&#x2569;" horiz-adv-x="498" 
d="M62 263c0 79.333 19.333 142.667 58 190c42 52 101.667 78 179 78c80 0 141.333 -26 184 -78c39.333 -48.667 59 -113.667 59 -195s-18.667 -145 -56 -191c-40.667 -50.667 -101 -76 -181 -76c-78 0 -138.667 26.333 -182 79c-40.667 48.667 -61 113 -61 193z
M296 466.001c-55.333 0 -94.668 -19.332 -118.001 -57.999c-18 -30.667 -27 -75.667 -27 -135c0 -68 9 -118.667 27 -152c24 -45.333 67 -68 129 -68c56.667 0 96.334 19.667 119.001 59c17.333 30 26 75.333 26 136c0 67.333 -9 117.666 -27 150.999
c-24.667 44.667 -67.667 67 -129 67z" />
    <glyph glyph-name="SF540000" unicode="&#x256a;" horiz-adv-x="557" 
d="M78 190l-0.000976562 332h80v-313c0 -43.333 2.33301 -72.333 7 -87c13.333 -41.333 51 -62 113 -62c43.333 0 74.333 10.667 93 32c16.667 19.333 25 51.333 25 96v334h80v-332c0 -37.333 -2 -64.666 -6 -81.999c-9.33301 -41.333 -34 -72 -74 -92
c-32.667 -16.667 -72.667 -25 -120 -25c-103.333 0 -166.666 38 -189.999 114c-5.33301 17.333 -8 45.666 -8 84.999z" />
    <glyph glyph-name="SF530000" unicode="&#x256b;" horiz-adv-x="497" 
d="M207 210l-189 313h98l105 -176c10.667 -18 20.667 -38.667 30 -62c8 20 18.333 40.333 31 61l106 176h92l-190 -313v-209h-83v210z" />
    <glyph glyph-name="circle" unicode="&#x25cb;" horiz-adv-x="718" 
d="M288 793l-31 44l170 135l171 -135l-36 -44l-139 85zM251 1032l207 130l43 -77l-224 -100z" />
    <glyph glyph-name="H18533" unicode="&#x25cf;" horiz-adv-x="718" 
d="M288 793l-31 44l170 135l171 -135l-36 -44l-139 85zM393 1163l207 -130l-26 -47l-224 100z" />
    <glyph glyph-name="invbullet" unicode="&#x25d8;" horiz-adv-x="718" 
d="M288 793l-31 44l170 135l171 -135l-36 -44l-139 85zM614 903c6 18 9.66602 39.335 10.999 64.002c0.666992 7.33301 3.33398 11.666 8.00098 12.999c2 0 4.66699 0.333008 8 1c44.667 7.33301 67 25.333 67 54c0 23.333 -9.33301 35 -28 35
c-3.33301 0 -8 -0.333008 -14 -1s-10.667 -1 -14 -1c-14 0 -21 6 -21 18c0 18.667 10.667 28 32 28c31.333 0 56.833 -8.33301 76.5 -25s28.167 -40.334 25.5 -71.001c-4 -39.333 -33 -66.333 -87 -81c-16.667 -4.66699 -27 -16 -31 -34h-33z" />
    <glyph glyph-name="invcircle" unicode="&#x25d9;" horiz-adv-x="718" 
d="M288 793l-31 44l170 135l171 -135l-36 -44l-139 85zM606 1121l28 -45c-34 -42 -74.333 -63 -121 -63c-15.333 0 -36.666 6.16699 -63.999 18.5s-48.333 18.5 -63 18.5c-21.333 0 -44.333 -13 -69 -39l-28 45c33.333 42 73.333 63 120 63
c15.333 0 36.666 -6.16699 63.999 -18.5s48.333 -18.5 63 -18.5c22 0 45.333 13 70 39z" />
    <glyph glyph-name="apple" unicode="&#xf000;" horiz-adv-x="1000" 
d="M50 775l505 35l200 -120l10 -100l110 15l50 -770l-640 -35l-5 95l-150 -15zM535 755l-425 -30l75 -780l580 30l-55 680l-145 -60zM665 690l-85 55l10 -80zM284 205l-25 288l73 6l105 -211l66 226l72 6l25 -288l-46 -4l-21 242h-2l-73 -250l-31 -3l-117 234h-1l21 -242z
" />
    <glyph glyph-name=".null" horiz-adv-x="0" 
 />
    <glyph glyph-name="glyph2" horiz-adv-x="333" 
 />
    <glyph glyph-name="periodcentered" horiz-adv-x="267" 
d="M68 279c0 18.667 6.16602 34.334 18.499 47.001s27.833 19 46.5 19s34.334 -6.33301 47.001 -19s19 -28.334 19 -47.001c0 -18 -6.33301 -33.5 -19 -46.5s-28 -19.5 -46 -19.5s-33.5 6.5 -46.5 19.5s-19.5 28.5 -19.5 46.5z" />
    <glyph glyph-name="HT" horiz-adv-x="333" 
 />
    <glyph glyph-name="nonmarkingreturn" horiz-adv-x="333" 
 />
    <glyph glyph-name="glyph212" horiz-adv-x="333" 
 />
    <glyph glyph-name="glyph213" horiz-adv-x="333" 
 />
    <glyph glyph-name="glyph258" horiz-adv-x="278" 
 />
    <glyph glyph-name="glyph259" horiz-adv-x="278" 
 />
    <glyph glyph-name="glyph275" horiz-adv-x="249" 
 />
    <glyph glyph-name="glyph276" horiz-adv-x="249" 
 />
    <glyph glyph-name="glyph261" horiz-adv-x="500" 
d="M253 522c6 18 9.66602 39.335 10.999 64.002c0.666992 7.33301 3.33398 11.666 8.00098 12.999c2 0 4.66699 0.333008 8 1c44.667 7.33301 67 25.333 67 54c0 23.333 -9.33301 35 -28 35c-3.33301 0 -8 -0.333008 -14 -1s-10.667 -1 -14 -1c-14 0 -21 6 -21 18
c0 18.667 10.667 28 32 28c31.333 0 56.833 -8.33301 76.5 -25s28.167 -40.334 25.5 -71.001c-4 -39.333 -33 -66.333 -87 -81c-16.667 -4.66699 -27 -16 -31 -34h-33z" />
    <glyph glyph-name="glyph262" horiz-adv-x="541" 
d="M85 561l-31 44l170 135l171 -135l-36 -44l-139 85zM47 801l207 130l43 -77l-224 -100z" />
    <glyph glyph-name="glyph263" horiz-adv-x="541" 
d="M85 561l-31 44l170 135l171 -135l-36 -44l-139 85zM190 931l207 -130l-26 -47l-224 100z" />
    <glyph glyph-name="glyph264" horiz-adv-x="541" 
d="M85 561l-31 44l170 135l171 -135l-36 -44l-139 85zM411 671c6 18 9.66602 39.335 10.999 64.002c0.666992 7.33301 3.33398 11.666 8.00098 12.999c2 0 4.66699 0.333008 8 1c44.667 7.33301 67 25.333 67 54c0 23.333 -9.33301 35 -28 35
c-3.33301 0 -8 -0.333008 -14 -1s-10.667 -1 -14 -1c-14 0 -21 6 -21 18c0 18.667 10.667 28 32 28c31.333 0 56.833 -8.33301 76.5 -25s28.167 -40.334 25.5 -71.001c-4 -39.333 -33 -66.333 -87 -81c-16.667 -4.66699 -27 -16 -31 -34h-33z" />
    <glyph glyph-name="glyph265" horiz-adv-x="541" 
d="M85 561l-31 44l170 135l171 -135l-36 -44l-139 85zM403 889l28 -45c-34 -42 -74.333 -63 -121 -63c-15.333 0 -36.666 6.16699 -63.999 18.5s-48.333 18.5 -63 18.5c-21.333 0 -44.333 -13 -69 -39l-28 45c33.333 42 73.333 63 120 63
c15.333 0 36.666 -6.16699 63.999 -18.5s48.333 -18.5 63 -18.5c22 0 45.333 13 70 39z" />
    <glyph glyph-name="glyph266" horiz-adv-x="541" 
d="M364 736l31 -44l-170 -135l-171 135l36 44l139 -85zM126 801l207 130l43 -77l-224 -100z" />
    <glyph glyph-name="glyph267" horiz-adv-x="541" 
d="M364 736l31 -44l-170 -135l-171 135l36 44l139 -85zM137 931l207 -130l-26 -47l-224 100z" />
    <glyph glyph-name="glyph268" horiz-adv-x="541" 
d="M364 736l31 -44l-170 -135l-171 135l36 44l139 -85zM306 671c6 18 9.66602 39.335 10.999 64.002c0.666992 7.33301 3.33398 11.666 8.00098 12.999c2 0 4.66699 0.333008 8 1c44.667 7.33301 67 25.333 67 54c0 23.333 -9.33301 35 -28 35
c-3.33301 0 -8 -0.333008 -14 -1s-10.667 -1 -14 -1c-14 0 -21 6 -21 18c0 18.667 10.667 28 32 28c31.333 0 56.833 -8.33301 76.5 -25s28.167 -40.334 25.5 -71.001c-4 -39.333 -33 -66.333 -87 -81c-16.667 -4.66699 -27 -16 -31 -34h-33z" />
    <glyph glyph-name="glyph269" horiz-adv-x="541" 
d="M364 736l31 -44l-170 -135l-171 135l36 44l139 -85zM403 889l28 -45c-34 -42 -74.333 -63 -121 -63c-15.333 0 -36.666 6.16699 -63.999 18.5s-48.333 18.5 -63 18.5c-21.333 0 -44.333 -13 -69 -39l-28 45c33.333 42 73.333 63 120 63
c15.333 0 36.666 -6.16699 63.999 -18.5s48.333 -18.5 63 -18.5c22 0 45.333 13 70 39z" />
    <glyph glyph-name="glyph270" horiz-adv-x="249" 
 />
  </font>
</defs>
</svg>
